<svg xmlns="http://www.w3.org/2000/svg" viewBox="0 0 551.67 648.92"><defs><style>.cls-1,.cls-10{fill:#e8405b;}.cls-1,.cls-10,.cls-11,.cls-13,.cls-4,.cls-6,.cls-7{fill-opacity:0.5;}.cls-2,.cls-9{fill:#4fa3a6;}.cls-3{fill:#8d2f89;}.cls-4,.cls-7{fill:#ffd600;}.cls-10,.cls-14,.cls-4,.cls-5,.cls-9{fill-rule:evenodd;}.cls-5{fill:#f1f1f1;}.cls-6{fill:#feca17;}.cls-14,.cls-8{fill:#264248;}.cls-11{fill:#ec647e;}.cls-12{fill:#ffe24a;}.cls-13{fill:#a3529a;}.cls-15{fill:#0f293e;}</style></defs><g id="Layer_2" data-name="Layer 2"><g id="Layer_1-2" data-name="Layer 1"><path class="cls-1" d="M548.36,571.73a1.12,1.12,0,0,0-.62.18,1.1,1.1,0,0,0-.41.5,1.12,1.12,0,0,0,.25,1.22,1.09,1.09,0,0,0,.57.3,1.17,1.17,0,0,0,.64-.07,1.11,1.11,0,0,0,.49-.42,1.06,1.06,0,0,0,.19-.62,1,1,0,0,0-.09-.42,1.19,1.19,0,0,0-.24-.36,1.05,1.05,0,0,0-.36-.23A.88.88,0,0,0,548.36,571.73Z"/><path class="cls-1" d="M548.36,565.81a1.13,1.13,0,0,0-.62.19,1.11,1.11,0,0,0-.41.5,1.08,1.08,0,0,0-.06.64,1.09,1.09,0,0,0,.87.87,1.08,1.08,0,0,0,.64-.06,1.11,1.11,0,0,0,.5-.41,1.13,1.13,0,0,0,.19-.62,1.13,1.13,0,0,0-1.11-1.11Z"/><path class="cls-1" d="M548.36,559.9a1.13,1.13,0,0,0-.62.19,1.06,1.06,0,0,0-.41.5,1.07,1.07,0,0,0-.06.64,1.17,1.17,0,0,0,.3.57,1.13,1.13,0,0,0,.57.3,1.17,1.17,0,0,0,.64-.06,1.18,1.18,0,0,0,.5-.41,1.13,1.13,0,0,0,.19-.62,1.13,1.13,0,0,0-1.11-1.11Z"/><path class="cls-1" d="M548.36,554a1.06,1.06,0,0,0-.62.19,1.09,1.09,0,0,0-.41.49,1.11,1.11,0,0,0-.06.65,1.1,1.1,0,0,0,.3.56,1.07,1.07,0,0,0,.57.31,1.17,1.17,0,0,0,.64-.06,1.18,1.18,0,0,0,.5-.41,1.16,1.16,0,0,0,.19-.62,1.11,1.11,0,0,0-1.11-1.11Z"/><path class="cls-1" d="M548.36,548.08a1.12,1.12,0,0,0-.62.18,1.17,1.17,0,0,0-.41.5,1.13,1.13,0,0,0,.24,1.21,1.14,1.14,0,0,0,.57.31,1.08,1.08,0,0,0,.64-.07,1.05,1.05,0,0,0,.5-.41,1.1,1.1,0,0,0,.19-.61,1.11,1.11,0,0,0-.33-.79A1.1,1.1,0,0,0,548.36,548.08Z"/><path class="cls-1" d="M548.36,542.19a1.13,1.13,0,0,0-.62.19,1.06,1.06,0,0,0-.41.5,1.07,1.07,0,0,0-.06.64,1.1,1.1,0,0,0,.3.56,1.07,1.07,0,0,0,.57.31,1.17,1.17,0,0,0,.64-.06,1.18,1.18,0,0,0,.5-.41,1.16,1.16,0,0,0,.19-.62,1.09,1.09,0,0,0-.33-.78A1.11,1.11,0,0,0,548.36,542.19Z"/><path class="cls-1" d="M548.36,536.27a1.12,1.12,0,0,0-.62.18,1.1,1.1,0,0,0-.41.5,1.11,1.11,0,0,0-.06.65,1,1,0,0,0,.31.56,1.1,1.1,0,0,0,.57.31,1.17,1.17,0,0,0,.64-.07,1.11,1.11,0,0,0,.49-.42,1.06,1.06,0,0,0,.19-.62,1,1,0,0,0-.09-.42,1.08,1.08,0,0,0-.24-.36,1.05,1.05,0,0,0-.36-.23A.88.88,0,0,0,548.36,536.27Z"/><path class="cls-1" d="M548.36,530.35a1.13,1.13,0,0,0-.62.19,1.11,1.11,0,0,0-.41.5,1.07,1.07,0,0,0-.06.64,1.17,1.17,0,0,0,.3.57,1.13,1.13,0,0,0,.57.3,1.17,1.17,0,0,0,.64-.06,1.18,1.18,0,0,0,.5-.41,1.13,1.13,0,0,0,.19-.62,1.13,1.13,0,0,0-1.11-1.11Z"/><path class="cls-1" d="M548.36,524.44a1.13,1.13,0,0,0-.62.19,1.06,1.06,0,0,0-.41.5,1.07,1.07,0,0,0-.06.64,1.17,1.17,0,0,0,.3.57,1.13,1.13,0,0,0,.57.3,1.17,1.17,0,0,0,.64-.06,1.18,1.18,0,0,0,.5-.41,1.16,1.16,0,0,0,.19-.62,1.09,1.09,0,0,0-.33-.78A1.11,1.11,0,0,0,548.36,524.44Z"/><path class="cls-1" d="M548.36,518.49a1.13,1.13,0,0,0-.62.19,1.06,1.06,0,0,0-.41.5,1.07,1.07,0,0,0-.06.64,1.17,1.17,0,0,0,.3.57,1.13,1.13,0,0,0,.57.3,1.17,1.17,0,0,0,.64-.06,1.18,1.18,0,0,0,.5-.41,1.13,1.13,0,0,0,.19-.62,1.09,1.09,0,0,0-.33-.78A1.11,1.11,0,0,0,548.36,518.49Z"/><path class="cls-1" d="M542.32,571.73a1.12,1.12,0,0,0-.62.18,1.24,1.24,0,0,0-.41.5,1.2,1.2,0,0,0-.06.65,1.19,1.19,0,0,0,.31.57,1.13,1.13,0,0,0,.57.3,1.16,1.16,0,0,0,.64-.07,1.08,1.08,0,0,0,.5-.42,1.12,1.12,0,0,0,.18-.62,1.15,1.15,0,0,0-.33-.78,1,1,0,0,0-.36-.23A.88.88,0,0,0,542.32,571.73Z"/><path class="cls-1" d="M542.32,565.81a1.16,1.16,0,0,0-.62.19,1.18,1.18,0,0,0-.41.5,1.17,1.17,0,0,0-.06.64,1.13,1.13,0,0,0,.3.57,1.17,1.17,0,0,0,.57.3,1.07,1.07,0,0,0,.64-.06,1.06,1.06,0,0,0,.5-.41,1.13,1.13,0,0,0,.19-.62,1.11,1.11,0,0,0-.33-.78A1.09,1.09,0,0,0,542.32,565.81Z"/><path class="cls-1" d="M542.32,559.9a1.16,1.16,0,0,0-.62.19,1.12,1.12,0,0,0-.41.5,1.11,1.11,0,0,0,1.45,1.45,1.12,1.12,0,0,0,.69-1,1.11,1.11,0,0,0-.33-.78A1.09,1.09,0,0,0,542.32,559.9Z"/><path class="cls-1" d="M542.32,554a1.08,1.08,0,0,0-.62.19,1.15,1.15,0,0,0-.41.49,1.2,1.2,0,0,0-.06.65,1.1,1.1,0,0,0,.3.56,1.11,1.11,0,0,0,.57.31,1.16,1.16,0,0,0,.64-.06,1.12,1.12,0,0,0,.5-.41,1.16,1.16,0,0,0,.19-.62,1.11,1.11,0,0,0-1.11-1.11Z"/><path class="cls-1" d="M542.32,548.08a1.15,1.15,0,0,0-.62.18,1.24,1.24,0,0,0-.41.5,1.18,1.18,0,0,0-.06.64,1.09,1.09,0,0,0,.3.57,1.19,1.19,0,0,0,.57.31,1.08,1.08,0,0,0,.64-.07,1,1,0,0,0,.5-.41,1.1,1.1,0,0,0,.19-.61,1.11,1.11,0,0,0-.33-.79A1.08,1.08,0,0,0,542.32,548.08Z"/><path class="cls-1" d="M542.32,542.19a1.08,1.08,0,0,0-.62.19,1.12,1.12,0,0,0-.41.5,1.16,1.16,0,0,0-.06.64,1.1,1.1,0,0,0,.3.56,1.11,1.11,0,0,0,.57.31,1.16,1.16,0,0,0,.64-.06,1.12,1.12,0,0,0,.5-.41,1.16,1.16,0,0,0,.19-.62,1.08,1.08,0,0,0-.32-.79,1.41,1.41,0,0,0-.36-.24A1.26,1.26,0,0,0,542.32,542.19Z"/><path class="cls-1" d="M542.32,536.27a1.12,1.12,0,0,0-.62.18,1.24,1.24,0,0,0-.41.5,1.2,1.2,0,0,0-.06.65,1.11,1.11,0,0,0,.31.56,1.14,1.14,0,0,0,.57.31,1.16,1.16,0,0,0,.64-.07,1.08,1.08,0,0,0,.5-.42,1.12,1.12,0,0,0,.18-.62,1,1,0,0,0-.09-.42,1,1,0,0,0-.24-.36,1,1,0,0,0-.36-.23A.88.88,0,0,0,542.32,536.27Z"/><path class="cls-1" d="M542.32,530.35a1.16,1.16,0,0,0-.62.19,1.18,1.18,0,0,0-.41.5,1.11,1.11,0,0,0,1.45,1.45,1.12,1.12,0,0,0,.69-1,1.11,1.11,0,0,0-.33-.78A1.09,1.09,0,0,0,542.32,530.35Z"/><path class="cls-1" d="M542.32,524.44a1.16,1.16,0,0,0-.62.19,1.12,1.12,0,0,0-.41.5,1.11,1.11,0,0,0,1.45,1.45,1.12,1.12,0,0,0,.5-.41,1.16,1.16,0,0,0,.19-.62,1.13,1.13,0,0,0-1.11-1.11Z"/><path class="cls-1" d="M542.32,518.49a1.16,1.16,0,0,0-.62.19,1.12,1.12,0,0,0-.41.5,1.11,1.11,0,0,0,1.45,1.45,1.12,1.12,0,0,0,.69-1,1.13,1.13,0,0,0-1.11-1.11Z"/><path class="cls-1" d="M536.28,571.73a1.1,1.1,0,0,0-.61.19,1.18,1.18,0,0,0-.41.5,1.11,1.11,0,0,0,0,.65,1,1,0,0,0,.31.56,1.09,1.09,0,0,0,.57.3,1.16,1.16,0,0,0,.64-.07,1.11,1.11,0,0,0,.49-.42,1,1,0,0,0,.18-.62,1.2,1.2,0,0,0-.08-.42,1,1,0,0,0-.25-.36,1.13,1.13,0,0,0-.36-.24A1.05,1.05,0,0,0,536.28,571.73Z"/><path class="cls-1" d="M536.28,565.81a1.11,1.11,0,0,0-.61.2,1,1,0,0,0-.4.5,1,1,0,0,0-.06.64,1.09,1.09,0,0,0,.87.86,1.07,1.07,0,0,0,.64-.06,1.18,1.18,0,0,0,.5-.41,1.12,1.12,0,0,0,.18-.62,1.2,1.2,0,0,0-.08-.42,1.06,1.06,0,0,0-.61-.61A1.26,1.26,0,0,0,536.28,565.81Z"/><path class="cls-1" d="M536.28,559.9a1.1,1.1,0,0,0-.61.19,1.12,1.12,0,0,0-.4.51,1,1,0,0,0-.06.64,1.09,1.09,0,0,0,.87.86,1.16,1.16,0,0,0,.64-.06,1.18,1.18,0,0,0,.5-.41,1.15,1.15,0,0,0,.18-.62,1.26,1.26,0,0,0-.08-.43,1.41,1.41,0,0,0-.24-.36,1.31,1.31,0,0,0-.37-.24A1.26,1.26,0,0,0,536.28,559.9Z"/><path class="cls-1" d="M536.28,554a1.1,1.1,0,0,0-.61.19,1.14,1.14,0,0,0-.4.5,1,1,0,0,0-.06.64,1.13,1.13,0,0,0,.3.57,1.17,1.17,0,0,0,.57.3,1.08,1.08,0,0,0,.64-.07,1.05,1.05,0,0,0,.5-.41,1.09,1.09,0,0,0,.18-.61,1.08,1.08,0,0,0-.32-.79,1.31,1.31,0,0,0-.37-.24A1.26,1.26,0,0,0,536.28,554Z"/><path class="cls-1" d="M536.28,548.08a1.09,1.09,0,0,0-1,.69,1,1,0,0,0-.06.64,1.13,1.13,0,0,0,.3.57,1.17,1.17,0,0,0,.57.3,1.08,1.08,0,0,0,.64-.07,1.11,1.11,0,0,0,.5-.41,1.09,1.09,0,0,0,.18-.61,1.26,1.26,0,0,0-.08-.43,1.13,1.13,0,0,0-.24-.36,1,1,0,0,0-.37-.24A1.06,1.06,0,0,0,536.28,548.08Z"/><path class="cls-1" d="M536.28,542.19a1.1,1.1,0,0,0-.61.19,1.14,1.14,0,0,0-.4.5,1,1,0,0,0-.06.64,1.09,1.09,0,0,0,.3.57,1.17,1.17,0,0,0,.57.3,1.08,1.08,0,0,0,.64-.07,1.09,1.09,0,0,0,.5-.4,1.15,1.15,0,0,0,.18-.62.92.92,0,0,0-.08-.43,1.08,1.08,0,0,0-.61-.6A1,1,0,0,0,536.28,542.19Z"/><path class="cls-1" d="M536.28,536.27a1.1,1.1,0,0,0-.61.19,1.18,1.18,0,0,0-.41.5,1.08,1.08,0,0,0,0,.64,1,1,0,0,0,.31.57,1.09,1.09,0,0,0,.57.3,1.16,1.16,0,0,0,.64-.07,1.11,1.11,0,0,0,.49-.42,1,1,0,0,0,.18-.62,1.2,1.2,0,0,0-.08-.42,1,1,0,0,0-.25-.36,1.13,1.13,0,0,0-.36-.24A1.05,1.05,0,0,0,536.28,536.27Z"/><path class="cls-1" d="M536.28,530.35a1.11,1.11,0,0,0-.61.2,1,1,0,0,0-.4.5,1,1,0,0,0-.06.64,1.09,1.09,0,0,0,.87.86,1.16,1.16,0,0,0,.64-.06,1.18,1.18,0,0,0,.5-.41,1.12,1.12,0,0,0,.18-.62,1.2,1.2,0,0,0-.08-.42,1.06,1.06,0,0,0-.61-.61A1.26,1.26,0,0,0,536.28,530.35Z"/><path class="cls-1" d="M536.28,524.44a1.1,1.1,0,0,0-.61.19,1.14,1.14,0,0,0-.4.5,1,1,0,0,0-.06.64,1.09,1.09,0,0,0,.3.57,1.13,1.13,0,0,0,1.21.24,1.18,1.18,0,0,0,.5-.41,1.15,1.15,0,0,0,.18-.62,1.08,1.08,0,0,0-.32-.79,1.31,1.31,0,0,0-.37-.24A1.26,1.26,0,0,0,536.28,524.44Z"/><path class="cls-1" d="M536.28,518.49a1.1,1.1,0,0,0-.61.19,1.14,1.14,0,0,0-.4.5,1,1,0,0,0-.06.65,1.1,1.1,0,0,0,.3.56,1.13,1.13,0,0,0,1.21.24,1.18,1.18,0,0,0,.5-.41,1.15,1.15,0,0,0,.18-.62,1.08,1.08,0,0,0-.32-.79,1.31,1.31,0,0,0-.37-.24A1.26,1.26,0,0,0,536.28,518.49Z"/><path class="cls-1" d="M530.26,571.73a1.12,1.12,0,0,0-.62.18,1.17,1.17,0,0,0-.41.5,1.12,1.12,0,0,0,.25,1.22,1.09,1.09,0,0,0,.57.3,1.17,1.17,0,0,0,.64-.07,1.13,1.13,0,0,0,.5-.42,1.12,1.12,0,0,0,.18-.62,1,1,0,0,0-.09-.42A1.19,1.19,0,0,0,531,572a1,1,0,0,0-.36-.23A.88.88,0,0,0,530.26,571.73Z"/><path class="cls-1" d="M530.26,565.81a1.13,1.13,0,0,0-.62.19,1.18,1.18,0,0,0-.41.5,1.08,1.08,0,0,0-.06.64,1.13,1.13,0,0,0,.3.57,1.17,1.17,0,0,0,.57.3,1.07,1.07,0,0,0,.64-.06,1.11,1.11,0,0,0,.5-.41,1.13,1.13,0,0,0,.19-.62,1.13,1.13,0,0,0-1.11-1.11Z"/><path class="cls-1" d="M530.26,559.9a1.12,1.12,0,0,0-1,.69,1.07,1.07,0,0,0-.06.64,1.11,1.11,0,0,0,1.51.81,1.18,1.18,0,0,0,.5-.41,1.13,1.13,0,0,0,.19-.62,1.13,1.13,0,0,0-1.11-1.11Z"/><path class="cls-1" d="M530.26,554a1.06,1.06,0,0,0-.62.19,1.15,1.15,0,0,0-.41.49,1.11,1.11,0,0,0-.06.65,1.1,1.1,0,0,0,.3.56,1.11,1.11,0,0,0,.57.31,1.16,1.16,0,0,0,.64-.06,1.18,1.18,0,0,0,.5-.41,1.16,1.16,0,0,0,.19-.62,1.11,1.11,0,0,0-1.11-1.11Z"/><path class="cls-1" d="M531.33,549.15a1.11,1.11,0,1,0-1.11,1.11A1.11,1.11,0,0,0,531.33,549.15Z"/><path class="cls-1" d="M530.26,542.19a1.12,1.12,0,0,0-1,.69,1.07,1.07,0,0,0-.06.64,1.1,1.1,0,0,0,.3.56,1.11,1.11,0,0,0,.57.31,1.16,1.16,0,0,0,.64-.06,1.18,1.18,0,0,0,.5-.41,1.16,1.16,0,0,0,.19-.62,1.09,1.09,0,0,0-.33-.78A1.11,1.11,0,0,0,530.26,542.19Z"/><path class="cls-1" d="M530.26,536.27a1.12,1.12,0,0,0-.62.18,1.17,1.17,0,0,0-.41.5,1.11,1.11,0,0,0-.06.65,1,1,0,0,0,.31.56,1.1,1.1,0,0,0,.57.31,1.17,1.17,0,0,0,.64-.07,1.13,1.13,0,0,0,.5-.42,1.12,1.12,0,0,0,.18-.62,1,1,0,0,0-.09-.42,1.08,1.08,0,0,0-.24-.36,1,1,0,0,0-.36-.23A.88.88,0,0,0,530.26,536.27Z"/><path class="cls-1" d="M530.26,530.35a1.13,1.13,0,0,0-.62.19,1.18,1.18,0,0,0-.41.5,1.07,1.07,0,0,0-.06.64,1.11,1.11,0,0,0,1.51.81,1.18,1.18,0,0,0,.5-.41,1.13,1.13,0,0,0,.19-.62,1.13,1.13,0,0,0-1.11-1.11Z"/><path class="cls-1" d="M530.26,524.44a1.12,1.12,0,0,0-1,.69,1.07,1.07,0,0,0-.06.64,1.11,1.11,0,0,0,1.51.81,1.18,1.18,0,0,0,.5-.41,1.16,1.16,0,0,0,.19-.62,1.09,1.09,0,0,0-.33-.78A1.11,1.11,0,0,0,530.26,524.44Z"/><path class="cls-1" d="M530.26,518.49a1.12,1.12,0,0,0-1,.69,1.07,1.07,0,0,0-.06.64,1.11,1.11,0,0,0,1.51.81,1.18,1.18,0,0,0,.5-.41,1.13,1.13,0,0,0,.19-.62,1.09,1.09,0,0,0-.33-.78A1.11,1.11,0,0,0,530.26,518.49Z"/><path class="cls-1" d="M524.22,571.73a1.12,1.12,0,0,0-.62.18,1.24,1.24,0,0,0-.41.5,1.2,1.2,0,0,0-.06.65,1.11,1.11,0,0,0,.31.57,1.09,1.09,0,0,0,.57.3,1.16,1.16,0,0,0,.64-.07,1.13,1.13,0,0,0,.5-.42,1.12,1.12,0,0,0,.18-.62,1.2,1.2,0,0,0-.08-.42A1.13,1.13,0,0,0,525,572a1.41,1.41,0,0,0-.36-.24A1.08,1.08,0,0,0,524.22,571.73Z"/><path class="cls-1" d="M524.22,565.81a1.13,1.13,0,0,0-.62.19,1.18,1.18,0,0,0-.41.5,1.17,1.17,0,0,0-.06.64,1.13,1.13,0,0,0,.3.57,1.17,1.17,0,0,0,.57.3,1.07,1.07,0,0,0,.64-.06,1.06,1.06,0,0,0,.5-.41,1.13,1.13,0,0,0,.19-.62,1.2,1.2,0,0,0-.08-.42,1.13,1.13,0,0,0-.24-.36,1,1,0,0,0-.36-.24A1.07,1.07,0,0,0,524.22,565.81Z"/><path class="cls-1" d="M524.22,559.9a1.12,1.12,0,0,0-1,.69,1.11,1.11,0,0,0,1.45,1.45,1.12,1.12,0,0,0,.69-1,1.2,1.2,0,0,0-.08-.42,1.31,1.31,0,0,0-.24-.37,1.08,1.08,0,0,0-.79-.32Z"/><path class="cls-1" d="M524.22,554a1.06,1.06,0,0,0-.62.19,1.15,1.15,0,0,0-.41.49,1.2,1.2,0,0,0-.06.65,1.1,1.1,0,0,0,.3.56,1.11,1.11,0,0,0,.57.31,1.16,1.16,0,0,0,.64-.06,1.12,1.12,0,0,0,.5-.41,1.16,1.16,0,0,0,.19-.62,1.09,1.09,0,0,0-1.11-1.11Z"/><path class="cls-1" d="M524.22,548.08a1.12,1.12,0,0,0-.62.18,1.24,1.24,0,0,0-.41.5,1.18,1.18,0,0,0-.06.64,1.09,1.09,0,0,0,.3.57,1.19,1.19,0,0,0,.57.31,1.08,1.08,0,0,0,.64-.07,1,1,0,0,0,.5-.41,1.1,1.1,0,0,0,.19-.61,1.08,1.08,0,0,0-.32-.79,1.08,1.08,0,0,0-.36-.24A1.06,1.06,0,0,0,524.22,548.08Z"/><path class="cls-1" d="M524.22,542.19a1.06,1.06,0,0,0-.62.19,1.12,1.12,0,0,0-.41.5,1.16,1.16,0,0,0-.06.64,1.1,1.1,0,0,0,.3.56,1.11,1.11,0,0,0,.57.31,1.16,1.16,0,0,0,.64-.06,1.12,1.12,0,0,0,.5-.41,1.16,1.16,0,0,0,.19-.62,1.09,1.09,0,0,0-1.11-1.11Z"/><path class="cls-1" d="M524.22,536.27a1.12,1.12,0,0,0-.62.18,1.24,1.24,0,0,0-.41.5,1.2,1.2,0,0,0-.06.65,1,1,0,0,0,.31.56,1.1,1.1,0,0,0,.57.31,1.16,1.16,0,0,0,.64-.07,1.13,1.13,0,0,0,.5-.42,1.12,1.12,0,0,0,.18-.62,1.2,1.2,0,0,0-.08-.42,1.13,1.13,0,0,0-.24-.36,1.41,1.41,0,0,0-.36-.24A1.08,1.08,0,0,0,524.22,536.27Z"/><path class="cls-1" d="M524.22,530.35a1.13,1.13,0,0,0-.62.19,1.18,1.18,0,0,0-.41.5,1.11,1.11,0,0,0,1.45,1.45,1.12,1.12,0,0,0,.69-1,1.2,1.2,0,0,0-.08-.42,1.31,1.31,0,0,0-.24-.37,1.08,1.08,0,0,0-.79-.32Z"/><path class="cls-1" d="M524.22,524.44a1.12,1.12,0,0,0-1,.69,1.11,1.11,0,0,0,1.45,1.45,1.12,1.12,0,0,0,.5-.41,1.16,1.16,0,0,0,.19-.62,1.26,1.26,0,0,0-.08-.43,1.41,1.41,0,0,0-.24-.36,1.08,1.08,0,0,0-.79-.32Z"/><path class="cls-1" d="M524.22,518.49a1.12,1.12,0,0,0-1,.69,1.11,1.11,0,0,0,1.45,1.45,1.12,1.12,0,0,0,.69-1,1.26,1.26,0,0,0-.08-.43,1.41,1.41,0,0,0-.24-.36,1.08,1.08,0,0,0-.79-.32Z"/><path class="cls-1" d="M518.19,571.73a1.09,1.09,0,0,0-1,.68,1,1,0,0,0-.06.65,1.11,1.11,0,0,0,1.52.8,1.11,1.11,0,0,0,.49-.42,1,1,0,0,0,.18-.62,1,1,0,0,0-.08-.42A1.41,1.41,0,0,0,519,572a1.16,1.16,0,0,0-.36-.23A.92.92,0,0,0,518.19,571.73Z"/><path class="cls-1" d="M518.19,565.81a1.1,1.1,0,0,0-.61.19,1.11,1.11,0,0,0-.41.5,1.08,1.08,0,0,0-.06.64,1.06,1.06,0,0,0,.3.57,1.13,1.13,0,0,0,.57.3,1.08,1.08,0,0,0,.64-.06,1.09,1.09,0,0,0,.68-1,1.1,1.1,0,0,0-.32-.78A1.11,1.11,0,0,0,518.19,565.81Z"/><path class="cls-1" d="M518.19,559.9a1.1,1.1,0,0,0-.61.19,1.06,1.06,0,0,0-.41.5,1.07,1.07,0,0,0-.06.64,1.09,1.09,0,0,0,.3.57,1.13,1.13,0,0,0,.57.3,1.17,1.17,0,0,0,.64-.06,1.18,1.18,0,0,0,.5-.41,1.12,1.12,0,0,0,.18-.62,1.1,1.1,0,0,0-.32-.78A1.11,1.11,0,0,0,518.19,559.9Z"/><path class="cls-1" d="M518.19,554a1,1,0,0,0-.61.19,1.09,1.09,0,0,0-.41.49,1.11,1.11,0,0,0-.06.65,1,1,0,0,0,.3.56,1.07,1.07,0,0,0,.57.31,1.17,1.17,0,0,0,.64-.06,1.18,1.18,0,0,0,.5-.41,1.15,1.15,0,0,0,.18-.62,1.12,1.12,0,0,0-.32-.79A1.15,1.15,0,0,0,518.19,554Z"/><path class="cls-1" d="M518.19,548.08a1.09,1.09,0,0,0-.61.18,1.17,1.17,0,0,0-.41.5,1.09,1.09,0,0,0-.06.64,1,1,0,0,0,.3.57,1.14,1.14,0,0,0,.57.31,1.08,1.08,0,0,0,.64-.07,1.05,1.05,0,0,0,.5-.41,1.09,1.09,0,0,0,.18-.61,1.09,1.09,0,0,0-1.11-1.11Z"/><path class="cls-1" d="M518.19,542.19a1.1,1.1,0,0,0-.61.19,1.06,1.06,0,0,0-.41.5,1.07,1.07,0,0,0-.06.64,1,1,0,0,0,.3.56,1.07,1.07,0,0,0,.57.31,1.17,1.17,0,0,0,.64-.06,1.18,1.18,0,0,0,.5-.41,1.15,1.15,0,0,0,.18-.62,1.08,1.08,0,0,0-.32-.78A1.11,1.11,0,0,0,518.19,542.19Z"/><path class="cls-1" d="M518.19,536.27a1.09,1.09,0,0,0-1,.68,1,1,0,0,0-.06.65,1.1,1.1,0,0,0,.3.56,1.1,1.1,0,0,0,1.22.24,1.11,1.11,0,0,0,.49-.42,1,1,0,0,0,.18-.62,1,1,0,0,0-.08-.42,1.26,1.26,0,0,0-.24-.36,1.16,1.16,0,0,0-.36-.23A.92.92,0,0,0,518.19,536.27Z"/><path class="cls-1" d="M518.19,530.35a1.1,1.1,0,0,0-.61.19,1.11,1.11,0,0,0-.41.5,1.07,1.07,0,0,0-.06.64,1.09,1.09,0,0,0,.3.57,1.13,1.13,0,0,0,.57.3,1.17,1.17,0,0,0,.64-.06,1.18,1.18,0,0,0,.5-.41,1.12,1.12,0,0,0,.18-.62,1.1,1.1,0,0,0-.32-.78A1.11,1.11,0,0,0,518.19,530.35Z"/><path class="cls-1" d="M518.19,524.44a1.1,1.1,0,0,0-.61.19,1.06,1.06,0,0,0-.41.5,1.07,1.07,0,0,0-.06.64,1.09,1.09,0,0,0,.3.57,1.13,1.13,0,0,0,.57.3,1.17,1.17,0,0,0,.64-.06,1.18,1.18,0,0,0,.5-.41,1.15,1.15,0,0,0,.18-.62,1.08,1.08,0,0,0-.32-.78A1.11,1.11,0,0,0,518.19,524.44Z"/><path class="cls-1" d="M518.19,518.49a1.1,1.1,0,0,0-.61.19,1.06,1.06,0,0,0-.41.5,1.07,1.07,0,0,0-.06.64,1.09,1.09,0,0,0,.3.57,1.13,1.13,0,0,0,.57.3,1.17,1.17,0,0,0,.64-.06,1.18,1.18,0,0,0,.5-.41,1.12,1.12,0,0,0,.18-.62,1.08,1.08,0,0,0-.32-.78A1.11,1.11,0,0,0,518.19,518.49Z"/><path class="cls-1" d="M512.16,571.73a1.12,1.12,0,0,0-.62.18,1.17,1.17,0,0,0-.41.5,1.12,1.12,0,0,0,.25,1.22,1.09,1.09,0,0,0,.57.3,1.17,1.17,0,0,0,.64-.07,1.13,1.13,0,0,0,.5-.42,1.12,1.12,0,0,0,.18-.62,1,1,0,0,0-.09-.42,1.19,1.19,0,0,0-.24-.36,1,1,0,0,0-.36-.23A.88.88,0,0,0,512.16,571.73Z"/><path class="cls-1" d="M512.16,565.81a1.13,1.13,0,0,0-.62.19,1.11,1.11,0,0,0-.41.5,1.08,1.08,0,0,0-.06.64,1.13,1.13,0,0,0,.3.57,1.17,1.17,0,0,0,.57.3,1.07,1.07,0,0,0,.64-.06,1.11,1.11,0,0,0,.5-.41,1.13,1.13,0,0,0,.19-.62,1.13,1.13,0,0,0-1.11-1.11Z"/><path class="cls-1" d="M512.16,559.9a1.13,1.13,0,0,0-.62.19,1.06,1.06,0,0,0-.41.5,1.07,1.07,0,0,0-.06.64,1.11,1.11,0,0,0,1.51.81,1.18,1.18,0,0,0,.5-.41,1.13,1.13,0,0,0,.19-.62,1.13,1.13,0,0,0-1.11-1.11Z"/><path class="cls-1" d="M512.16,554a1.06,1.06,0,0,0-.62.19,1.09,1.09,0,0,0-.41.49,1.11,1.11,0,0,0-.06.65,1.1,1.1,0,0,0,.3.56,1.11,1.11,0,0,0,.57.31,1.16,1.16,0,0,0,.64-.06,1.18,1.18,0,0,0,.5-.41,1.16,1.16,0,0,0,.19-.62,1.11,1.11,0,0,0-1.11-1.11Z"/><path class="cls-1" d="M512.16,548.08a1.12,1.12,0,0,0-.62.18,1.17,1.17,0,0,0-.41.5,1.13,1.13,0,0,0,.24,1.21,1.19,1.19,0,0,0,.57.31,1.08,1.08,0,0,0,.64-.07,1.05,1.05,0,0,0,.5-.41,1.1,1.1,0,0,0,.19-.61,1.11,1.11,0,0,0-.33-.79A1.1,1.1,0,0,0,512.16,548.08Z"/><path class="cls-1" d="M512.16,542.19a1.13,1.13,0,0,0-.62.19,1.06,1.06,0,0,0-.41.5,1.07,1.07,0,0,0-.06.64,1.1,1.1,0,0,0,.3.56,1.11,1.11,0,0,0,.57.31,1.16,1.16,0,0,0,.64-.06,1.18,1.18,0,0,0,.5-.41,1.16,1.16,0,0,0,.19-.62,1.09,1.09,0,0,0-.33-.78A1.11,1.11,0,0,0,512.16,542.19Z"/><path class="cls-1" d="M512.16,536.27a1.12,1.12,0,0,0-.62.18,1.17,1.17,0,0,0-.41.5,1.11,1.11,0,0,0-.06.65,1,1,0,0,0,.31.56,1.1,1.1,0,0,0,.57.31,1.17,1.17,0,0,0,.64-.07,1.13,1.13,0,0,0,.5-.42,1.12,1.12,0,0,0,.18-.62,1,1,0,0,0-.09-.42,1.08,1.08,0,0,0-.24-.36,1,1,0,0,0-.36-.23A.88.88,0,0,0,512.16,536.27Z"/><path class="cls-1" d="M512.16,530.35a1.13,1.13,0,0,0-.62.19,1.11,1.11,0,0,0-.41.5,1.07,1.07,0,0,0-.06.64,1.11,1.11,0,0,0,1.51.81,1.18,1.18,0,0,0,.5-.41,1.13,1.13,0,0,0,.19-.62,1.13,1.13,0,0,0-1.11-1.11Z"/><path class="cls-1" d="M512.16,524.44a1.13,1.13,0,0,0-.62.19,1.06,1.06,0,0,0-.41.5,1.07,1.07,0,0,0-.06.64,1.11,1.11,0,0,0,1.51.81,1.18,1.18,0,0,0,.5-.41,1.16,1.16,0,0,0,.19-.62,1.09,1.09,0,0,0-.33-.78A1.11,1.11,0,0,0,512.16,524.44Z"/><path class="cls-1" d="M512.16,518.49a1.13,1.13,0,0,0-.62.19,1.06,1.06,0,0,0-.41.5,1.07,1.07,0,0,0-.06.64,1.11,1.11,0,0,0,1.51.81,1.18,1.18,0,0,0,.5-.41,1.13,1.13,0,0,0,.19-.62,1.09,1.09,0,0,0-.33-.78A1.11,1.11,0,0,0,512.16,518.49Z"/><path class="cls-1" d="M506.12,571.73a1.12,1.12,0,0,0-.62.18,1.24,1.24,0,0,0-.41.5,1.2,1.2,0,0,0-.06.65,1.19,1.19,0,0,0,.31.57,1.1,1.1,0,0,0,1.21.23,1.08,1.08,0,0,0,.5-.42,1.12,1.12,0,0,0,.18-.62,1.15,1.15,0,0,0-.33-.78,1,1,0,0,0-.36-.23A.85.85,0,0,0,506.12,571.73Z"/><path class="cls-1" d="M506.12,565.81a1.13,1.13,0,0,0-.62.19,1.18,1.18,0,0,0-.41.5,1.17,1.17,0,0,0-.06.64,1.13,1.13,0,0,0,.3.57,1.17,1.17,0,0,0,.57.3,1.11,1.11,0,0,0,.65-.06,1.09,1.09,0,0,0,.49-.41,1.06,1.06,0,0,0,.19-.62,1.11,1.11,0,0,0-.33-.78A1.09,1.09,0,0,0,506.12,565.81Z"/><path class="cls-1" d="M506.12,559.9a1.12,1.12,0,0,0-1,.69,1.1,1.1,0,0,0,.81,1.51,1.2,1.2,0,0,0,.65-.06,1.15,1.15,0,0,0,.49-.41,1.06,1.06,0,0,0,.19-.62,1.11,1.11,0,0,0-.33-.78A1.09,1.09,0,0,0,506.12,559.9Z"/><path class="cls-1" d="M506.12,554a1.06,1.06,0,0,0-.62.19,1.15,1.15,0,0,0-.41.49,1.2,1.2,0,0,0-.06.65,1.1,1.1,0,0,0,.3.56,1.11,1.11,0,0,0,.57.31,1.2,1.2,0,0,0,.65-.06,1.15,1.15,0,0,0,.49-.41,1.08,1.08,0,0,0,.19-.62,1.11,1.11,0,0,0-1.11-1.11Z"/><path class="cls-1" d="M506.12,548.08a1.12,1.12,0,0,0-.62.18,1.24,1.24,0,0,0-.41.5,1.18,1.18,0,0,0-.06.64,1.09,1.09,0,0,0,.3.57,1.19,1.19,0,0,0,.57.31,1.12,1.12,0,0,0,.65-.07,1.13,1.13,0,0,0,.68-1,1.11,1.11,0,0,0-.33-.79A1.08,1.08,0,0,0,506.12,548.08Z"/><path class="cls-1" d="M506.12,542.19a1.12,1.12,0,0,0-1,.69,1.16,1.16,0,0,0-.06.64,1.1,1.1,0,0,0,.3.56,1.11,1.11,0,0,0,.57.31,1.2,1.2,0,0,0,.65-.06,1.15,1.15,0,0,0,.49-.41,1.08,1.08,0,0,0,.19-.62,1.13,1.13,0,0,0-1.11-1.11Z"/><path class="cls-1" d="M506.12,536.27a1.12,1.12,0,0,0-.62.18,1.24,1.24,0,0,0-.41.5,1.2,1.2,0,0,0-.06.65,1.11,1.11,0,0,0,.31.56,1.19,1.19,0,0,0,.57.31,1.16,1.16,0,0,0,.64-.07,1.08,1.08,0,0,0,.5-.42,1.12,1.12,0,0,0,.18-.62,1,1,0,0,0-.09-.42,1,1,0,0,0-.24-.36,1,1,0,0,0-.36-.23A.85.85,0,0,0,506.12,536.27Z"/><path class="cls-1" d="M506.12,530.35a1.13,1.13,0,0,0-.62.19,1.18,1.18,0,0,0-.41.5,1.1,1.1,0,0,0,.81,1.51,1.2,1.2,0,0,0,.65-.06,1.15,1.15,0,0,0,.49-.41,1.06,1.06,0,0,0,.19-.62,1.11,1.11,0,0,0-.33-.78A1.09,1.09,0,0,0,506.12,530.35Z"/><path class="cls-1" d="M506.12,524.44a1.12,1.12,0,0,0-1,.69,1.1,1.1,0,0,0,.81,1.51,1.2,1.2,0,0,0,.65-.06,1.15,1.15,0,0,0,.49-.41,1.08,1.08,0,0,0,.19-.62,1.13,1.13,0,0,0-1.11-1.11Z"/><path class="cls-1" d="M506.12,518.49a1.12,1.12,0,0,0-1,.69,1.1,1.1,0,0,0,.81,1.51,1.2,1.2,0,0,0,.65-.06,1.15,1.15,0,0,0,.49-.41,1.06,1.06,0,0,0,.19-.62,1.13,1.13,0,0,0-1.11-1.11Z"/><path class="cls-1" d="M500.1,571.73a1.08,1.08,0,0,0-.63.18,1.06,1.06,0,0,0-.41.5,1.08,1.08,0,0,0-.07.64,1.14,1.14,0,0,0,.88.88,1.08,1.08,0,0,0,.64-.07,1.12,1.12,0,0,0,.5-.41,1.1,1.1,0,0,0,.18-.63,1.09,1.09,0,0,0-1.09-1.09Z"/><path class="cls-1" d="M500.1,565.81a1.17,1.17,0,0,0-.46.05,1.27,1.27,0,0,0-.41.23,1.31,1.31,0,0,0-.27.38,1.13,1.13,0,0,0-.09.45,1.17,1.17,0,0,0,.09.45,1.26,1.26,0,0,0,.27.37,1,1,0,0,0,.41.23,1,1,0,0,0,.46,0,1.11,1.11,0,0,0,.7-.36,1.08,1.08,0,0,0,.29-.74,1.06,1.06,0,0,0-.29-.74A1.08,1.08,0,0,0,500.1,565.81Z"/><path class="cls-1" d="M500.1,559.9a1.17,1.17,0,0,0-.46.05,1.27,1.27,0,0,0-.41.23,1.26,1.26,0,0,0-.27.37,1.22,1.22,0,0,0-.09.46,1.17,1.17,0,0,0,.09.45,1.26,1.26,0,0,0,.27.37,1.11,1.11,0,0,0,.41.23,1,1,0,0,0,.46.05,1.11,1.11,0,0,0,.7-.36,1.1,1.1,0,0,0,0-1.49A1.11,1.11,0,0,0,500.1,559.9Z"/><path class="cls-1" d="M500.1,554a1.1,1.1,0,0,0-.62.18,1.12,1.12,0,0,0-.49,1.14,1.17,1.17,0,0,0,.3.57,1.14,1.14,0,0,0,.57.31,1.16,1.16,0,0,0,.64-.06,1.21,1.21,0,0,0,.51-.41,1.15,1.15,0,0,0,.18-.62,1.1,1.1,0,0,0-.32-.78A1.07,1.07,0,0,0,500.1,554Z"/><path class="cls-1" d="M500.1,548.08a1,1,0,0,0-.62.18,1.1,1.1,0,0,0-.49,1.14,1.17,1.17,0,0,0,.3.57,1.23,1.23,0,0,0,.57.31,1.08,1.08,0,0,0,.64-.07,1.12,1.12,0,0,0,.51-.4,1.15,1.15,0,0,0,.18-.62,1.08,1.08,0,0,0-.32-.78A1.07,1.07,0,0,0,500.1,548.08Z"/><path class="cls-1" d="M500.1,542.19a1.1,1.1,0,0,0-.62.18,1.12,1.12,0,0,0-.49,1.14,1.17,1.17,0,0,0,.3.57,1.14,1.14,0,0,0,.57.31,1.16,1.16,0,0,0,.64-.06,1.21,1.21,0,0,0,.51-.41,1.12,1.12,0,0,0,.18-.62,1.1,1.1,0,0,0-.32-.78A1.07,1.07,0,0,0,500.1,542.19Z"/><path class="cls-1" d="M500.1,536.27a1.1,1.1,0,0,0-1,.67,1.12,1.12,0,0,0-.07.65,1.14,1.14,0,0,0,.31.57,1,1,0,0,0,.57.3A1.09,1.09,0,0,0,501,538a1.1,1.1,0,0,0-.91-1.71Z"/><path class="cls-1" d="M500.1,530.35a1.17,1.17,0,0,0-.46,0,1.27,1.27,0,0,0-.41.23,1.41,1.41,0,0,0-.27.37,1.22,1.22,0,0,0-.09.46,1.17,1.17,0,0,0,.09.45,1.26,1.26,0,0,0,.27.37,1.11,1.11,0,0,0,.41.23,1,1,0,0,0,.46,0,1.11,1.11,0,0,0,.7-.36,1.08,1.08,0,0,0,.29-.74,1.12,1.12,0,0,0-1-1.11Z"/><path class="cls-1" d="M500.1,524.44a1.1,1.1,0,0,0-.62.18,1.12,1.12,0,0,0-.49,1.14,1.13,1.13,0,0,0,.3.57,1.14,1.14,0,0,0,.57.31,1.16,1.16,0,0,0,.64-.06,1.21,1.21,0,0,0,.51-.41,1.12,1.12,0,0,0,.18-.62,1.1,1.1,0,0,0-.32-.78A1.07,1.07,0,0,0,500.1,524.44Z"/><path class="cls-1" d="M500.1,518.49a1.1,1.1,0,0,0-.62.18,1.11,1.11,0,0,0,.38,2,1.16,1.16,0,0,0,.64-.06,1.21,1.21,0,0,0,.51-.41,1.12,1.12,0,0,0,.18-.62,1.1,1.1,0,0,0-.32-.78A1.07,1.07,0,0,0,500.1,518.49Z"/><path class="cls-1" d="M494,571.73a1.12,1.12,0,0,0-.62.18,1.17,1.17,0,0,0-.41.5,1.2,1.2,0,0,0-.06.65,1.11,1.11,0,0,0,.31.57,1.09,1.09,0,0,0,.57.3,1.16,1.16,0,0,0,.64-.07,1.13,1.13,0,0,0,.5-.42,1.12,1.12,0,0,0,.18-.62,1,1,0,0,0-.09-.42,1.19,1.19,0,0,0-.24-.36,1,1,0,0,0-.36-.23A.88.88,0,0,0,494,571.73Z"/><path class="cls-1" d="M494,565.81a1.13,1.13,0,0,0-.62.19,1.18,1.18,0,0,0-.41.5,1.17,1.17,0,0,0-.06.64,1.13,1.13,0,0,0,.3.57,1.17,1.17,0,0,0,.57.3,1.07,1.07,0,0,0,.64-.06,1.06,1.06,0,0,0,.5-.41,1.13,1.13,0,0,0,.19-.62,1.13,1.13,0,0,0-1.11-1.11Z"/><path class="cls-1" d="M494,559.9a1.12,1.12,0,0,0-1,.69,1.11,1.11,0,0,0,1.45,1.45,1.12,1.12,0,0,0,.69-1A1.13,1.13,0,0,0,494,559.9Z"/><path class="cls-1" d="M494,554a1.06,1.06,0,0,0-.62.19,1.15,1.15,0,0,0-.41.49,1.2,1.2,0,0,0-.06.65,1.1,1.1,0,0,0,.3.56,1.11,1.11,0,0,0,.57.31,1.16,1.16,0,0,0,.64-.06,1.12,1.12,0,0,0,.5-.41,1.16,1.16,0,0,0,.19-.62A1.11,1.11,0,0,0,494,554Z"/><path class="cls-1" d="M494,548.08a1.12,1.12,0,0,0-.62.18,1.24,1.24,0,0,0-.41.5,1.18,1.18,0,0,0-.06.64,1.09,1.09,0,0,0,.3.57,1.19,1.19,0,0,0,.57.31,1.08,1.08,0,0,0,.64-.07,1,1,0,0,0,.5-.41,1.1,1.1,0,0,0,.19-.61,1.11,1.11,0,0,0-.33-.79A1.1,1.1,0,0,0,494,548.08Z"/><path class="cls-1" d="M494,542.19a1.12,1.12,0,0,0-1,.69,1.16,1.16,0,0,0-.06.64,1.1,1.1,0,0,0,.3.56,1.11,1.11,0,0,0,.57.31,1.16,1.16,0,0,0,.64-.06,1.12,1.12,0,0,0,.5-.41,1.16,1.16,0,0,0,.19-.62,1.09,1.09,0,0,0-.33-.78A1.11,1.11,0,0,0,494,542.19Z"/><path class="cls-1" d="M494,536.27a1.12,1.12,0,0,0-.62.18,1.17,1.17,0,0,0-.41.5,1.2,1.2,0,0,0-.06.65,1,1,0,0,0,.31.56,1.1,1.1,0,0,0,.57.31,1.16,1.16,0,0,0,.64-.07,1.13,1.13,0,0,0,.5-.42,1.12,1.12,0,0,0,.18-.62,1,1,0,0,0-.09-.42,1.08,1.08,0,0,0-.24-.36,1,1,0,0,0-.36-.23A.88.88,0,0,0,494,536.27Z"/><path class="cls-1" d="M494,530.35a1.13,1.13,0,0,0-.62.19,1.18,1.18,0,0,0-.41.5,1.11,1.11,0,0,0,1.45,1.45,1.12,1.12,0,0,0,.69-1,1.13,1.13,0,0,0-1.11-1.11Z"/><path class="cls-1" d="M494,524.44a1.12,1.12,0,0,0-1,.69,1.11,1.11,0,0,0,1.45,1.45,1.12,1.12,0,0,0,.5-.41,1.16,1.16,0,0,0,.19-.62,1.09,1.09,0,0,0-.33-.78A1.11,1.11,0,0,0,494,524.44Z"/><path class="cls-1" d="M494,518.49a1.12,1.12,0,0,0-1,.69,1.11,1.11,0,0,0,1.45,1.45,1.12,1.12,0,0,0,.69-1,1.09,1.09,0,0,0-.33-.78A1.11,1.11,0,0,0,494,518.49Z"/><path class="cls-2" d="M294.58,645.21a1.84,1.84,0,0,1,1.71,1.14,1.9,1.9,0,0,1,.11,1.08,1.85,1.85,0,0,1-.51,1,1.85,1.85,0,0,1-2,.4,1.85,1.85,0,0,1-.83-.68,1.92,1.92,0,0,1-.31-1,1.76,1.76,0,0,1,.14-.71,1.84,1.84,0,0,1,1-1A1.78,1.78,0,0,1,294.58,645.21Z"/><path class="cls-2" d="M304.72,645.21a1.85,1.85,0,0,1,1,.31,1.86,1.86,0,0,1,.78,1.91,1.87,1.87,0,0,1-1.46,1.46,1.87,1.87,0,0,1-1.07-.11,1.8,1.8,0,0,1-.83-.69,1.78,1.78,0,0,1-.31-1,1.85,1.85,0,0,1,.54-1.31,1.93,1.93,0,0,1,.61-.41A1.77,1.77,0,0,1,304.72,645.21Z"/><path class="cls-2" d="M304.72,635.29a1.87,1.87,0,0,1,1.7,1.15,1.82,1.82,0,0,1,.1,1.08,1.85,1.85,0,0,1-.51,1,1.9,1.9,0,0,1-.95.5,1.87,1.87,0,0,1-1.07-.11,1.84,1.84,0,0,1-1.14-1.71,1.78,1.78,0,0,1,.14-.72,1.86,1.86,0,0,1,.4-.6,1.9,1.9,0,0,1,.61-.4A1.78,1.78,0,0,1,304.72,635.29Z"/><path class="cls-2" d="M314.85,645.21a1.84,1.84,0,0,1,1.71,1.14,1.9,1.9,0,0,1,.11,1.08,1.85,1.85,0,0,1-.51,1,1.85,1.85,0,0,1-2,.4,1.85,1.85,0,0,1-.83-.68,1.92,1.92,0,0,1-.31-1,1.84,1.84,0,0,1,1.86-1.85Z"/><path class="cls-2" d="M314.85,635.29a1.83,1.83,0,0,1,1.71,1.15,1.87,1.87,0,0,1,.11,1.07,1.87,1.87,0,0,1-1.46,1.46,1.82,1.82,0,0,1-1.08-.11,1.78,1.78,0,0,1-.83-.68,1.86,1.86,0,0,1,.23-2.34A1.86,1.86,0,0,1,314.85,635.29Z"/><path class="cls-2" d="M314.85,625.35a1.88,1.88,0,1,1-1.33.55A1.88,1.88,0,0,1,314.85,625.35Z"/><path class="cls-2" d="M325,645.21a1.84,1.84,0,0,1,1.72,1.14,1.9,1.9,0,0,1,.11,1.08,1.85,1.85,0,0,1-.51,1,1.85,1.85,0,0,1-2,.4,1.87,1.87,0,0,1-1.15-1.72,1.94,1.94,0,0,1,.55-1.31A1.89,1.89,0,0,1,325,645.21Z"/><path class="cls-2" d="M325,635.29a1.83,1.83,0,0,1,1.72,1.15,1.87,1.87,0,0,1,.11,1.07,1.87,1.87,0,0,1-1.46,1.46,1.82,1.82,0,0,1-1.08-.11,1.78,1.78,0,0,1-.83-.68,1.82,1.82,0,0,1-.32-1,1.71,1.71,0,0,1,.15-.71,1.9,1.9,0,0,1,.4-.61,1.86,1.86,0,0,1,.6-.4A2,2,0,0,1,325,635.29Z"/><path class="cls-2" d="M325,625.35a1.92,1.92,0,0,1,1,.31,1.85,1.85,0,0,1,.68.83,1.86,1.86,0,0,1-.4,2,1.92,1.92,0,0,1-1,.51,1.86,1.86,0,0,1-1.07-.1,1.93,1.93,0,0,1-.84-.68,2,2,0,0,1-.32-1,1.88,1.88,0,0,1,1.86-1.87Z"/><path class="cls-2" d="M325,615.43a1.87,1.87,0,0,1,1.72,1.15,1.87,1.87,0,0,1,.11,1.07,1.87,1.87,0,0,1-1.46,1.46,1.9,1.9,0,0,1-1.08-.1,1.9,1.9,0,0,1-1.15-1.72,1.94,1.94,0,0,1,.55-1.31A1.9,1.9,0,0,1,325,615.43Z"/><path class="cls-2" d="M335.1,645.21a1.84,1.84,0,0,1,1.72,1.14,1.9,1.9,0,0,1-.4,2,1.91,1.91,0,0,1-1,.51,1.88,1.88,0,0,1-1.07-.11,1.87,1.87,0,0,1-1.15-1.72,1.86,1.86,0,0,1,1.86-1.85Z"/><path class="cls-2" d="M335.1,635.29a1.83,1.83,0,0,1,1.72,1.15,1.78,1.78,0,0,1,.1,1.07,1.83,1.83,0,0,1-1.46,1.46,1.87,1.87,0,0,1-1.9-.79,1.82,1.82,0,0,1-.32-1,1.71,1.71,0,0,1,.15-.71,1.9,1.9,0,0,1,.4-.61,1.86,1.86,0,0,1,.6-.4A2,2,0,0,1,335.1,635.29Z"/><path class="cls-2" d="M335.1,625.35a1.86,1.86,0,0,1,1,.31,1.8,1.8,0,0,1,.69.83,1.86,1.86,0,0,1-.4,2,1.92,1.92,0,0,1-.95.51,1.86,1.86,0,0,1-1.07-.1,1.93,1.93,0,0,1-.84-.68,2,2,0,0,1-.32-1,1.88,1.88,0,0,1,1.86-1.87Z"/><path class="cls-2" d="M335.1,615.43a1.87,1.87,0,0,1,1.72,1.15,1.78,1.78,0,0,1,.1,1.07,1.83,1.83,0,0,1-1.46,1.46,1.87,1.87,0,0,1-1.07-.1,1.9,1.9,0,0,1-1.15-1.72,1.88,1.88,0,0,1,1.86-1.86Z"/><path class="cls-2" d="M335.1,605.5a1.87,1.87,0,0,1,1.72,1.15,1.78,1.78,0,0,1,.1,1.07,1.86,1.86,0,0,1-.5,1,1.82,1.82,0,0,1-1,.5,1.87,1.87,0,0,1-2.22-1.82,1.88,1.88,0,0,1,1.86-1.86Z"/><path class="cls-2" d="M345.24,645.21a1.83,1.83,0,0,1,1.71,1.15,1.78,1.78,0,0,1,.1,1.07,1.87,1.87,0,0,1-1.46,1.46,1.86,1.86,0,0,1-2.22-1.83,1.78,1.78,0,0,1,.15-.71,1.75,1.75,0,0,1,.4-.6,1.93,1.93,0,0,1,.61-.41A1.75,1.75,0,0,1,345.24,645.21Z"/><path class="cls-2" d="M345.24,635.29a1.79,1.79,0,0,1,1,.32,1.86,1.86,0,0,1,.27,2.86,1.9,1.9,0,0,1-1,.5,1.87,1.87,0,0,1-1.07-.11,1.83,1.83,0,0,1-1.15-1.71,1.79,1.79,0,0,1,.15-.72,1.86,1.86,0,0,1,.4-.6,1.9,1.9,0,0,1,.61-.4A1.76,1.76,0,0,1,345.24,635.29Z"/><path class="cls-2" d="M345.24,625.35a1.85,1.85,0,0,1,1.81,2.22,1.9,1.9,0,0,1-.5.95,1.85,1.85,0,0,1-.95.51,1.86,1.86,0,0,1-1.91-.78,1.9,1.9,0,0,1-.32-1,1.88,1.88,0,0,1,1.87-1.87Z"/><path class="cls-2" d="M345.24,615.43a1.86,1.86,0,0,1,1.71,1.16,1.78,1.78,0,0,1,.1,1.07,1.84,1.84,0,0,1-1.46,1.45,1.85,1.85,0,0,1-2.22-1.82,1.74,1.74,0,0,1,.15-.71,1.8,1.8,0,0,1,.4-.61,1.9,1.9,0,0,1,.61-.4A2,2,0,0,1,345.24,615.43Z"/><path class="cls-2" d="M345.24,605.5a2,2,0,0,1,1,.32,1.86,1.86,0,0,1,.68.84,1.78,1.78,0,0,1,.1,1.07,1.85,1.85,0,0,1-.51.95,1.92,1.92,0,0,1-1,.51,1.86,1.86,0,0,1-2.22-1.83,1.74,1.74,0,0,1,.15-.71,1.79,1.79,0,0,1,1-1A2,2,0,0,1,345.24,605.5Z"/><path class="cls-2" d="M345.24,595.57a1.82,1.82,0,0,1,1,.32,1.88,1.88,0,0,1,.69.84,1.9,1.9,0,0,1,.11,1.08,1.87,1.87,0,0,1-.51,1,1.91,1.91,0,0,1-1,.51,1.82,1.82,0,0,1-1.08-.11,1.87,1.87,0,0,1-.84-.68,1.85,1.85,0,0,1-.32-1,1.88,1.88,0,0,1,1.87-1.88Z"/><path class="cls-2" d="M355.37,645.21a1.78,1.78,0,0,1,1,.31,1.8,1.8,0,0,1,.69.83,1.86,1.86,0,0,1-1.36,2.54,1.87,1.87,0,0,1-1.07-.11,1.87,1.87,0,0,1-1.15-1.72,1.86,1.86,0,0,1,1.86-1.85Z"/><path class="cls-2" d="M355.37,635.29a1.86,1.86,0,0,1,1,.31,1.87,1.87,0,0,1,.8,1.91,1.92,1.92,0,0,1-.51,1,1.84,1.84,0,0,1-1,.51,1.87,1.87,0,0,1-1.9-.79,1.82,1.82,0,0,1-.32-1,1.87,1.87,0,0,1,.14-.71,2.11,2.11,0,0,1,.41-.61,1.86,1.86,0,0,1,.6-.4A2,2,0,0,1,355.37,635.29Z"/><path class="cls-2" d="M355.37,625.35a1.86,1.86,0,0,1,1,.31,1.8,1.8,0,0,1,.69.83,1.86,1.86,0,0,1-.4,2,1.92,1.92,0,0,1-.95.51,1.86,1.86,0,0,1-1.07-.1,1.93,1.93,0,0,1-.84-.68,2,2,0,0,1-.32-1,1.88,1.88,0,0,1,1.86-1.87Z"/><path class="cls-2" d="M355.37,615.43a1.9,1.9,0,0,1,1.72,1.15,1.87,1.87,0,0,1,.11,1.07,1.92,1.92,0,0,1-.51,1,1.84,1.84,0,0,1-1,.51,1.86,1.86,0,0,1-1.07-.1,1.9,1.9,0,0,1-1.15-1.72,1.88,1.88,0,0,1,1.86-1.86Z"/><path class="cls-2" d="M355.37,605.5a1.9,1.9,0,0,1,1.72,1.15,1.87,1.87,0,0,1,.11,1.07,2,2,0,0,1-.51,1,1.82,1.82,0,0,1-1,.5,1.78,1.78,0,0,1-1.07-.1,1.9,1.9,0,0,1-1.15-1.72,1.88,1.88,0,0,1,1.86-1.86Z"/><path class="cls-2" d="M355.37,595.57a2,2,0,0,1,1.05.31,1.88,1.88,0,0,1,.69.84,1.9,1.9,0,0,1,.11,1.08,1.84,1.84,0,0,1-.51,1,1.79,1.79,0,0,1-.95.52,1.93,1.93,0,0,1-1.09-.1,2,2,0,0,1-.84-.69,1.86,1.86,0,0,1,.23-2.36A1.91,1.91,0,0,1,355.37,595.57Z"/><path class="cls-2" d="M355.37,585.66a1.86,1.86,0,0,1,1,.31,1.87,1.87,0,0,1,.8,1.91,1.92,1.92,0,0,1-.51,1,1.84,1.84,0,0,1-1,.51,1.87,1.87,0,0,1-1.07-.11,1.78,1.78,0,0,1-.83-.68,1.84,1.84,0,0,1-.32-1,1.86,1.86,0,0,1,1.86-1.86Z"/><path class="cls-2" d="M365.53,645.21a1.91,1.91,0,0,1,1,.31,1.84,1.84,0,0,1,.67.84,1.78,1.78,0,0,1,.1,1.07,1.87,1.87,0,0,1-1.46,1.46,1.87,1.87,0,0,1-1.07-.11,1.9,1.9,0,0,1-1.15-1.72,1.78,1.78,0,0,1,.15-.71,1.75,1.75,0,0,1,.4-.6,1.93,1.93,0,0,1,.61-.41A1.77,1.77,0,0,1,365.53,645.21Z"/><path class="cls-2" d="M365.53,635.29a1.84,1.84,0,0,1,1,.32,1.86,1.86,0,0,1,.77,1.91,1.85,1.85,0,0,1-.51,1,1.9,1.9,0,0,1-.95.5,1.87,1.87,0,0,1-1.07-.11,1.87,1.87,0,0,1-1.15-1.71,1.79,1.79,0,0,1,.15-.72,1.86,1.86,0,0,1,.4-.6,1.9,1.9,0,0,1,.61-.4A1.78,1.78,0,0,1,365.53,635.29Z"/><path class="cls-2" d="M365.53,625.35a1.87,1.87,0,0,1,1.7,1.15,1.87,1.87,0,0,1,.11,1.07,1.92,1.92,0,0,1-.51.95,1.85,1.85,0,0,1-.95.51,2,2,0,0,1-1.07-.1,1.93,1.93,0,0,1-.84-.68,2,2,0,0,1-.32-1,1.86,1.86,0,0,1,.55-1.32A1.88,1.88,0,0,1,365.53,625.35Z"/><path class="cls-2" d="M365.53,615.43a1.92,1.92,0,0,1,1,.32,1.84,1.84,0,0,1,.67.84,1.78,1.78,0,0,1,.1,1.07,1.84,1.84,0,0,1-1.46,1.45,1.86,1.86,0,0,1-1.07-.1,1.9,1.9,0,0,1-1.15-1.72,1.74,1.74,0,0,1,.15-.71,1.8,1.8,0,0,1,.4-.61,1.9,1.9,0,0,1,.61-.4A2,2,0,0,1,365.53,615.43Z"/><path class="cls-2" d="M365.53,605.5a2,2,0,0,1,1,.32,1.84,1.84,0,0,1,.67.84,1.78,1.78,0,0,1,.1,1.07,1.85,1.85,0,0,1-.51.95,1.92,1.92,0,0,1-.95.51,1.87,1.87,0,0,1-1.07-.11,1.9,1.9,0,0,1-1.15-1.72,1.74,1.74,0,0,1,.15-.71,1.79,1.79,0,0,1,1-1A2,2,0,0,1,365.53,605.5Z"/><path class="cls-2" d="M365.53,595.57a1.85,1.85,0,0,1,1,.32,2,2,0,0,1,.69.84,1.9,1.9,0,0,1,.1,1.08,1.86,1.86,0,0,1-1.47,1.47,1.82,1.82,0,0,1-1.08-.11,1.86,1.86,0,0,1-1.16-1.72,1.88,1.88,0,0,1,1.88-1.88Z"/><path class="cls-2" d="M365.53,585.66a1.84,1.84,0,0,1,1,.32,1.76,1.76,0,0,1,.67.83,1.82,1.82,0,0,1,.1,1.08,1.85,1.85,0,0,1-.51,1,1.9,1.9,0,0,1-.95.5,1.87,1.87,0,0,1-1.07-.11,1.87,1.87,0,0,1-1.15-1.71,1.79,1.79,0,0,1,.15-.72,1.86,1.86,0,0,1,.4-.6,1.9,1.9,0,0,1,.61-.4A1.78,1.78,0,0,1,365.53,585.66Z"/><path class="cls-2" d="M365.53,575.73a1.85,1.85,0,0,1,1,.32,1.85,1.85,0,0,1,.79,1.92,1.85,1.85,0,0,1-.51.95,1.87,1.87,0,0,1-2.88-.28,1.93,1.93,0,0,1-.32-1,1.86,1.86,0,0,1,.55-1.32A1.88,1.88,0,0,1,365.53,575.73Z"/><path class="cls-2" d="M375.64,645.21a1.86,1.86,0,1,1-.72,3.57,1.88,1.88,0,0,1-.84-.69,1.86,1.86,0,0,1-.31-1,1.8,1.8,0,0,1,.55-1.31,1.82,1.82,0,0,1,.61-.41A1.72,1.72,0,0,1,375.64,645.21Z"/><path class="cls-2" d="M375.64,635.29a1.79,1.79,0,0,1,1,.32,1.83,1.83,0,0,1,.68.83,1.9,1.9,0,0,1,.1,1.08,1.85,1.85,0,0,1-.51,1,1.9,1.9,0,0,1-.95.5,1.87,1.87,0,0,1-1.07-.11,1.83,1.83,0,0,1-1.15-1.71,2,2,0,0,1,.14-.72,2.06,2.06,0,0,1,.41-.6,1.8,1.8,0,0,1,.61-.4A1.73,1.73,0,0,1,375.64,635.29Z"/><path class="cls-2" d="M375.64,625.35a1.79,1.79,0,0,1,1,.32,1.85,1.85,0,0,1,.68.83,1.86,1.86,0,0,1,.1,1.07,1.85,1.85,0,0,1-.51.95,1.82,1.82,0,0,1-.94.51,2,2,0,0,1-1.08-.1,1.87,1.87,0,0,1-1.15-1.71,1.88,1.88,0,0,1,1.87-1.87Z"/><path class="cls-2" d="M375.64,615.43a1.86,1.86,0,0,1,1.81,2.23,1.84,1.84,0,0,1-1.46,1.45,1.85,1.85,0,0,1-2.22-1.82,1.91,1.91,0,0,1,.14-.71,2,2,0,0,1,.41-.61,1.8,1.8,0,0,1,.61-.4A1.91,1.91,0,0,1,375.64,615.43Z"/><path class="cls-2" d="M375.64,605.5a2,2,0,0,1,1,.32,1.86,1.86,0,0,1,.27,2.86,1.92,1.92,0,0,1-.95.51,1.86,1.86,0,0,1-2.22-1.83,1.91,1.91,0,0,1,.14-.71,2.11,2.11,0,0,1,.41-.61,1.8,1.8,0,0,1,.61-.4A1.91,1.91,0,0,1,375.64,605.5Z"/><path class="cls-2" d="M375.64,595.57a1.85,1.85,0,0,1,1,.32,1.88,1.88,0,0,1,.69.84,1.9,1.9,0,0,1,.11,1.08,1.87,1.87,0,0,1-.51,1,1.91,1.91,0,0,1-1,.51,1.9,1.9,0,0,1-1.92-.79,1.85,1.85,0,0,1-.32-1,1.88,1.88,0,0,1,1.87-1.88Z"/><path class="cls-2" d="M375.64,585.66a1.87,1.87,0,0,1,1.71,1.15,1.9,1.9,0,0,1,.1,1.08,1.85,1.85,0,0,1-.51,1,1.9,1.9,0,0,1-.95.5,1.87,1.87,0,0,1-1.07-.11,1.83,1.83,0,0,1-1.15-1.71,2,2,0,0,1,.14-.72,2.06,2.06,0,0,1,.41-.6,1.8,1.8,0,0,1,.61-.4A1.73,1.73,0,0,1,375.64,585.66Z"/><path class="cls-2" d="M375.64,575.73a1.85,1.85,0,0,1,1,.32,1.78,1.78,0,0,1,.69.84,1.89,1.89,0,0,1,.11,1.08,1.85,1.85,0,0,1-.51.95,1.93,1.93,0,0,1-1,.52,1.89,1.89,0,0,1-1.08-.11,1.78,1.78,0,0,1-.84-.69,1.86,1.86,0,0,1,.23-2.36A1.88,1.88,0,0,1,375.64,575.73Z"/><path class="cls-2" d="M375.64,565.81a2,2,0,0,1,1,.32,1.86,1.86,0,0,1-1.75,3.26,1.88,1.88,0,0,1-.84-.69,1.86,1.86,0,0,1-.31-1,1.91,1.91,0,0,1,.14-.71,2.11,2.11,0,0,1,.41-.61,1.8,1.8,0,0,1,.61-.4A1.91,1.91,0,0,1,375.64,565.81Z"/><path class="cls-3" d="M434.44,82.72l-.24.25,21.86,21.81.24-.24Z"/><path class="cls-3" d="M470.1,109.49l.25-.25L429.79,68.69l-.25.25Z"/><path class="cls-3" d="M479.45,109.49l.25-.24L429.78,59.32l-.25.26Z"/><path class="cls-3" d="M431.34,51.52l-.26.25L487.26,108l.25-.26Z"/><path class="cls-3" d="M495.07,106.39l.25-.25L432.86,43.69l-.26.25Z"/><path class="cls-3" d="M501.33,103.31l.25-.25L435.65,37.13l-.25.26Z"/><path class="cls-3" d="M440.05,31.92l-.25.24L508.16,101l.25-.24Z"/><path class="cls-3" d="M444.58,27.43l-.25.25L513,96.19l.25-.24Z"/><path class="cls-3" d="M449.24,22.71,449,23l68.68,68.53.25-.25Z"/><path class="cls-3" d="M520,84.6l.25-.26L454.36,18.42l-.24.25Z"/><path class="cls-3" d="M523.13,78.33l.25-.25L460.91,15.63l-.24.25Z"/><path class="cls-3" d="M526.24,72.09l.25-.25-59.3-59.31-.25.25Z"/><path class="cls-3" d="M527.79,64.28l.26-.25L475,11l-.25.25Z"/><path class="cls-3" d="M485.87,12.62l-.24.24,40.65,40.46.25-.25Z"/><path class="cls-3" d="M523.1,40.88l.26-.25-25-25-.25.25Z"/><path class="cls-1" d="M.23,230.06H.09l-.06.06,0,.08a.28.28,0,0,0,0,.09.11.11,0,0,0,0,.07l32.43,32.43.06,0a.13.13,0,0,0,.08,0h.08l.07-.05,0-.06a.25.25,0,0,0,0-.08.19.19,0,0,0,0-.08l0-.06L.3,230.1Z"/><path class="cls-1" d="M41.3,222.88a.15.15,0,0,0-.13,0,.19.19,0,0,0,0,.26L73.6,255.57a.19.19,0,0,0,.12,0,.17.17,0,0,0,.12-.06.14.14,0,0,0,.06-.12.17.17,0,0,0,0-.12L41.43,222.88A.15.15,0,0,0,41.3,222.88Z"/><path class="cls-1" d="M49.94,264.83a.17.17,0,0,0-.14,0,.19.19,0,0,0,0,.13.24.24,0,0,0,0,.13l32.43,32.43.06,0,.07,0,.07,0a.1.1,0,0,0,0,0,.17.17,0,0,0,0-.13.15.15,0,0,0,0-.13L50.05,264.83Z"/><path class="cls-1" d="M494.68,337.16h-.09a.14.14,0,0,0,0,.09.12.12,0,0,0,0,.09l22.46,22.46a.15.15,0,0,0,.18,0,.17.17,0,0,0,0-.1.16.16,0,0,0,0-.09l-22.45-22.45A.17.17,0,0,0,494.68,337.16Z"/><path class="cls-1" d="M523.15,332.17h-.09a.13.13,0,0,0,0,.09.12.12,0,0,0,0,.08l22.45,22.45,0,0h.11l0,0,0-.05a.43.43,0,0,0,0-.05l0,0,0,0-22.46-22.45h-.08Z"/><path class="cls-1" d="M529.11,361.26H529a.11.11,0,0,0,0,.08.12.12,0,0,0,0,.09l22.45,22.45.09,0,.08,0a.11.11,0,0,0,0-.08.08.08,0,0,0,0-.08L529.2,361.26Z"/><path class="cls-1" d="M110.81,599.27l-.07,0,0,.06a.22.22,0,0,0,0,.08s0,0,0,.06l22.46,22.45a.09.09,0,0,0,.08,0,.11.11,0,0,0,.09,0,.15.15,0,0,0,0-.09.13.13,0,0,0,0-.09L110.9,599.3l0,0Z"/><path class="cls-1" d="M139.27,594.28h-.08a.09.09,0,0,0,0,.08.1.1,0,0,0,0,.09l22.45,22.45a.11.11,0,0,0,.08,0,.14.14,0,0,0,.12-.12.19.19,0,0,0,0-.08l-22.46-22.45h-.09Z"/><path class="cls-1" d="M145.24,623.36h-.1a.18.18,0,0,0,0,.09.15.15,0,0,0,0,.09L167.59,646a.18.18,0,0,0,.09,0,.18.18,0,0,0,.1,0,.12.12,0,0,0,0-.09.11.11,0,0,0,0-.08l-22.46-22.46Z"/><path class="cls-1" d="M233.09,0H233a.12.12,0,0,0,0,.09.11.11,0,0,0,0,.08l22.46,22.46a.15.15,0,0,0,.18,0,.15.15,0,0,0,0-.18L233.19,0Z"/><path class="cls-4" d="M193.56,479l-2,1.16-2,1.14V486l2,1.15,2,1.16,2-1.16,2-1.15v-4.64l-2-1.14Z"/><path class="cls-5" d="M224.46,213.05v15h15v-15Zm2.64,2.64h9.73v9.68h-9.76Z"/><path class="cls-6" d="M206.16,563.19H197v9.12h9.12Z"/><path class="cls-7" d="M328.73,290.3h-14v14h14Z"/><path class="cls-7" d="M474.54,237h-14v14h14Z"/><path class="cls-7" d="M190.54,69.91h-10.2v10.2h10.2Z"/><path class="cls-7" d="M385.3,75H375.09v10.2H385.3Z"/><path class="cls-3" d="M451.38,179.11l-2.33,4-2.33,4H456l-2.32-4Z"/><path class="cls-8" d="M414.87,114,410.2,122l-4.67,8.07h18.64L419.54,122Z"/><path class="cls-8" d="M47.29,144.45l-3,5.21-3,5.2h12l-3-5.2Z"/><path class="cls-8" d="M307.75,406.11l-3.5,6-3.49,6H314.7l-3.46-6Z"/><path class="cls-8" d="M479.91,421.26l-2.68,4.63-2.68,4.64h10.71l-2.67-4.64Z"/><path class="cls-8" d="M401.68,534.07l-3.5,6-3.49,6h13.95l-3.47-6Z"/><path class="cls-2" d="M337,277.05a7.42,7.42,0,0,0,8.85,7.27,7.51,7.51,0,0,0,3.8-2,7.42,7.42,0,0,0,2-3.8,7.31,7.31,0,0,0-.42-4.28A7.41,7.41,0,0,0,337,277.05Z"/><path class="cls-2" d="M289.82,88.79a8.68,8.68,0,1,0-8.68-8.68A8.67,8.67,0,0,0,289.82,88.79Z"/><path class="cls-2" d="M123.82,67.19a7.72,7.72,0,1,0,2.26-5.45A7.69,7.69,0,0,0,123.82,67.19Z"/><path class="cls-2" d="M71.14,113.36a8.68,8.68,0,0,0,10.41,8.44A8.66,8.66,0,0,0,88.32,115a8.67,8.67,0,0,0-3.71-8.88,8.74,8.74,0,0,0-4.81-1.45,8.65,8.65,0,0,0-3.33.67,8.56,8.56,0,0,0-2.82,1.9,8.66,8.66,0,0,0-2.51,6.16Z"/><path class="cls-1" d="M84.94,154.94a1.72,1.72,0,0,0,.29,1,1.68,1.68,0,0,0,.78.64,1.71,1.71,0,0,0,1,.1,1.74,1.74,0,0,0,1.36-1.36,1.67,1.67,0,0,0-.1-1,1.74,1.74,0,0,0-1.6-1.07,1.74,1.74,0,0,0-1.73,1.74Z"/><path class="cls-2" d="M63.46,206.58A7.63,7.63,0,1,0,55.84,199,7.62,7.62,0,0,0,63.46,206.58Z"/><path class="cls-1" d="M84.94,248.5a4.51,4.51,0,0,0,7.69,3.18,4.5,4.5,0,0,0-6.37-6.37A4.49,4.49,0,0,0,84.94,248.5Z"/><path class="cls-2" d="M481.53,219.44a3.77,3.77,0,0,0,.63,2.08,3.81,3.81,0,0,0,1.68,1.37,3.74,3.74,0,0,0,4.89-4.89,3.81,3.81,0,0,0-1.37-1.68,3.75,3.75,0,0,0-5.83,3.12Z"/><path class="cls-2" d="M442.57,466.45a4.15,4.15,0,1,0-4.16-4.15A4.15,4.15,0,0,0,442.57,466.45Z"/><path class="cls-2" d="M496.54,406.12a3.56,3.56,0,1,0-3.56-3.55A3.56,3.56,0,0,0,496.54,406.12Z"/><path class="cls-2" d="M337.47,356.34a5,5,0,0,0,3.08,4.61,5,5,0,0,0,5.44-1.08,5.05,5.05,0,0,0,1.37-2.56,5,5,0,1,0-9.89-1Z"/><path class="cls-1" d="M290.8,475.17a3.85,3.85,0,1,0,7.41-1.49,3.93,3.93,0,0,0-1.42-1.73,3.87,3.87,0,0,0-2.14-.64,3.94,3.94,0,0,0-1.48.29,3.77,3.77,0,0,0-1.25.84,3.93,3.93,0,0,0-.84,1.25A3.75,3.75,0,0,0,290.8,475.17Z"/><path class="cls-1" d="M268,501.33a3.49,3.49,0,0,0,.59,1.95,3.52,3.52,0,0,0,6.17-3.31,3.53,3.53,0,0,0-3.26-2.16,3.54,3.54,0,0,0-2.48,1,3.45,3.45,0,0,0-.76,1.14A3.31,3.31,0,0,0,268,501.33Z"/><path class="cls-1" d="M179.9,506.87a5.53,5.53,0,1,0,1.62-3.92A5.58,5.58,0,0,0,179.9,506.87Z"/><path class="cls-2" d="M349,549.6a3.47,3.47,0,0,0,.58,1.93,3.53,3.53,0,0,0,1.57,1.29,3.48,3.48,0,0,0,4.74-2.55,3.48,3.48,0,0,0-3.43-4.15,3.43,3.43,0,0,0-2.46,1,3.49,3.49,0,0,0-.75,1.13A3.35,3.35,0,0,0,349,549.6Z"/><path class="cls-9" d="M142.34,517.13c3.46,1.6,23.26,15.59,61.79-.82s37.42-41.25,47.83-35.85,4.52,16.83-.88,25.05-21.91,17.53-1.65,13.37,37.91-3.08,65.79-38.78,22.07-61.82,31.43-61S345,441,353.9,442.46c6,1,11.63-20.69,17.13-43.72,14-59.1-28-78.9-17.64-89.81s20.52,19.3,26.38,17.13,5.81-32-23.55-64.08-60.7-41.6-98.34-34.21-75.16,54.17-91.15,44-14.24-48,15.17-69.85,204-30.81,222.16,56.48,16.21,170.54-27.17,216.32-118.71,71.09-165.15,69.39S142.34,517.13,142.34,517.13Z"/><path class="cls-4" d="M158,180.47c-6.44,6.37,46.65-30.45,43.36-42S93.94,176,99.35,158.92s55.08-39.29,48.71-40.94-50.77,21.2-37.42.41,85-33.33,154.87-20.32,94.34,37.7,90.11,23.25-39.1-31.9-23.32-36.89,83.57,71.23,109,131.1,17.79,105.14,25.28,97.68-3.86-47.89,13.16-40.08c35.23,21.36-2.5,165.26-82.92,230.38-8.43,6.84,18.06-3.65,20.27,6s-23,17-98.85,39.14S176.16,541,176.16,541s106.83,2.72,161.4-29.68,78.65-79.11,90.22-167.25-55-167.78-122.24-177.61S158,180.47,158,180.47Z"/><path class="cls-10" d="M142.34,517.13c101,41,223.65-10.39,255.23-124.82,29.27-106.16-46-263.85-244.49-143.09C120,269.44,109.57,260,120.84,235.8s-40.63,15.89-46-6.58.17-38.42,60-74.48c186.71-112.53,357.38,56.68,312,250.71-30.51,130.33-219,197.07-304.56,111.66Z"/><path class="cls-10" d="M142.34,517.13c76.81,11.89,77.83-7.2,84.1-4.63s8.24,9.37,1.25,15,37.42-1.64,52.83-8S321,498.41,330.6,479s2.73-29.12,14.77-25.87-5.2,18.2,9.35,17,26.55-17.32,36.12-53.7-19.55-65.67-7.49-75.81,17.54,34.27,24.28,13.95,1.24-58.95-19.24-83.57-47.31-16.16-45.68-30.14,10.8-4.21,14.82-3.74-11.31-16.81-35.95-23.2-35.49-1.95-65.38,9.16-49.17-5-26.13-20.11S341,168.6,379.29,200.23s49.85,76,49.4,134.63S394,463.07,360.23,490.08s-75.87,46.6-120,52.21S142.34,517.13,142.34,517.13Z"/><path class="cls-4" d="M234.21,555.4s40.82-.85,79-24.95c20-12.62,13.9-27.15,24.24-29s10.23,10.45,5.55,19.86,41.29-9,58.18-43.46-4.17-41.46,8.43-53.23,3.08,38.82,14.87,19.95,22.36-59.19,20.06-101.37-43.94-52.57-29.94-71.85,22.84,31.58,31.18,27.31-4.89-55.5-39.5-87.65-70.42-16-65.48-42.4,28.76-28.54,50.56-8.17S426,202.5,437.65,234.54s20.12,58.28,21,101-1.24,64.55-15.23,94.69-33.58,57.8-50.65,71.34c-61.94,49-114.2,56.91-158.58,53.84Z"/><path class="cls-11" d="M293.1,186.47c-15.25,2.16-29.85,7.6-44.15,13.31-4.35,1.73-8.92,3.53-13.55,2.85s-9.08-4.85-8.26-9.45,6-7.4,6.14-11.92c.1-3.51-3.13-6.42-6.56-7.11s-7,.28-10.29,1.41c-32.62,11.15-60,37.15-94.14,41.32-4,.49-8.3.6-11.71-1.54-4.72-2.94-6.17-9.47-4.69-14.84s5.29-9.76,9.23-13.72a127.43,127.43,0,0,1,108.29-35c2.63.43,6.38.16,6.65-2.49s-3.33-3.68-5.23-5.55c-3-2.92-1.24-8.41,2.34-10.53s8.05-1.73,12.12-.9A65.32,65.32,0,0,1,266,144.54c3.56,2.74,6.9,5.89,11,7.67s9.43,1.77,12.64-1.38c1.33-1.31,2.28-3.1,4-3.88,2.84-1.24,5.95,1,8.27,3.06l28.37,25.66c3.17,2.87,6.39,6,8.22,10,.6,1.24,1.78,3.74.84,5s-2.76,1-4,.64c-4.35-1.17-8.38-3.18-12.83-4.15a75.29,75.29,0,0,0-13.87-1.66A91,91,0,0,0,293.1,186.47Z"/><path class="cls-11" d="M414.85,363.69c-.36,4-2.1,9.2-6.15,9.14-1.7,0-3.23-1.06-4.92-1.25-3.74-.47-6.87,3.58-6.86,7.39s2.15,7.23,4.29,10.37c4.46,6.54,9.22,12.88,14.27,19,1.25,1.54,2.79,3.16,4.77,3.27,3.42.17,5.18-4,5.83-7.35A182.08,182.08,0,0,0,416.76,303c-1.41-3.56-5-10.46-10-7.49-3.31,2,1,7.64,1.87,10,4.25,11.54,5.92,24.65,6.56,36.87A150.22,150.22,0,0,1,414.85,363.69Z"/><path class="cls-11" d="M358,491.94c-1.25,3.19-.56,7.48,2.5,9a7.67,7.67,0,0,0,6.46-.39c4.6-2.12,7.81-6.41,10.48-10.72a101.89,101.89,0,0,0,8.28-16.59q1.69-4.35,3-8.85c.28-1,1.25-3.22,0-3.94-2.17-1.25-6.9,3.48-8.19,4.69-3.74,3.53-6.38,8-9.67,11.95a91.34,91.34,0,0,1-7.11,7.48C361.63,486.8,359.29,489,358,491.94Z"/><path class="cls-11" d="M206.65,536.45c11.42.06,22.76-1.64,34.14-2.78,4.06-.41,9.26-.09,10.72,3.74,1,2.5-.41,5.45-2.56,7.07a16.51,16.51,0,0,1-7.56,2.59A85.93,85.93,0,0,1,206.32,545a87.72,87.72,0,0,1-16.51-6.24c-2.3-1.16-5-2.28-6.81-4.19-.24-.25-1.4-1.4-1-1.82s2.82.75,3.28.88A77.78,77.78,0,0,0,206.65,536.45Z"/><path class="cls-11" d="M409.32,244.53a5,5,0,0,1-5.91-.31,13.84,13.84,0,0,1-3.74-5.06c-2.62-5.06-5-10.27-8.46-14.8a26.16,26.16,0,0,0-14-9.74c-2.72-.78-3.4-3.27-.11-3.74,3.07-.47,6.3.42,9.27,1.07,3.58.79,7.32,1.6,10.33,3.82,3.53,2.61,6.17,6.67,8.47,10.34a48.71,48.71,0,0,1,4.86,10.2C410.88,238.81,411.79,242.57,409.32,244.53Z"/><path class="cls-12" d="M414.91,188c1.56,3.35,2.77,7.9-.1,10.22a5.91,5.91,0,0,1-6.3.24,20.65,20.65,0,0,1-5.08-4.28,82.29,82.29,0,0,0-34.27-21,14.52,14.52,0,0,1-5.63-2.58c-1.53-1.4-2.32-3.91-1.11-5.59,2.82-4,10.34,1.66,13.72-1.89,2-2.13.53-5.61-1.36-7.8-2.12-2.5-4.7-4.5-6.51-7.19a9.47,9.47,0,0,1-1.67-3.73,9.61,9.61,0,0,1,.07-4.1,6.09,6.09,0,0,1,6-4.14,12.86,12.86,0,0,1,5.89,1.45,16.38,16.38,0,0,1,3.74,3.55c3.94,4.47,8.08,8.73,11.81,13.39A165,165,0,0,1,414,185.85C414.25,186.59,414.59,187.31,414.91,188Z"/><path class="cls-12" d="M458.3,342.62a9.68,9.68,0,0,1,1-4.12,4.89,4.89,0,0,1,6.25-1.8,4.89,4.89,0,0,1,2.48,6c6.56-4.81,10.84-12.24,13.29-20s3.26-15.94,4.05-24c2.39.24,4.21,2.49,4.76,4.83a17.65,17.65,0,0,1-.32,7.2c-2.31,12.47-4.72,25.23-10.84,36.37-3.16,5.74-7.25,10.95-10,16.92-4.52,10-4.83,21.31-8,31.79a59.37,59.37,0,0,1-9.66,18.71c-1.18,1.53-2.8,3.17-4.72,2.87a3.92,3.92,0,0,1-2.93-3.56,11.2,11.2,0,0,1,.89-4.84c1.09-4.4,2.94-8.73,4.39-13l4.45-13.21c.74-2.21,1.49-4.4,2.22-6.61a9.76,9.76,0,0,0,.43-4.36,39.91,39.91,0,0,1,.41-6.46l.56-6.93Z"/><path class="cls-12" d="M366.27,528.79c-1.41.45-3.08.84-4.24-.07a3.16,3.16,0,0,1-.92-1.78,3.11,3.11,0,0,1,.36-2,8,8,0,0,1,2.81-2.75,53.23,53.23,0,0,1,15-6.87q4.06-1.18,8.24-2a20.38,20.38,0,0,1,6.78-.61,14.92,14.92,0,0,1,5.3,1.79c.77.45,2.43,1.41,2.16,2.5-.13.56-.73.82-1.25,1-1.37.56-2.87.91-4.29,1.35l-9.2,2.87-18.48,5.77Z"/><path class="cls-13" d="M185.74,237.75a32.44,32.44,0,0,0-13.39,11.72,12.51,12.51,0,0,0-2,6.33,6.47,6.47,0,0,0,3,5.67c2.59,1.46,5.84.42,8.48-.92,11.76-6,20.5-17.83,33.33-20.92a9.28,9.28,0,0,0,3.33-1.25,2.6,2.6,0,0,0,1-3.1c-.84-1.6-3.22-1.14-4.88-.46l-19,7.78c-.54-2,1.38-3.87,3.31-4.64s4-1.05,5.49-2.5c.86-.84,1.71-3.13.12-3.74-1.24-.5-3.15.23-4.41.6-2.21.65-4.41,1.32-6.56,2.08A63.15,63.15,0,0,0,185.74,237.75Z"/><path class="cls-13" d="M375.51,407.48a171.28,171.28,0,0,1-8.15,20.37,7.32,7.32,0,0,0-.85,3,2.54,2.54,0,0,0,.43,1.49,2.5,2.5,0,0,0,1.23.94c1.25.33,2.38-.66,3.24-1.59a44.53,44.53,0,0,0,7.31-11,46.31,46.31,0,0,0,3.9-12.74,45.33,45.33,0,0,0,.11-13.31c-.15-1.11-.35-2.21-.6-3.29a5.92,5.92,0,0,0-1.25-3.12,1.92,1.92,0,0,0-.94-.37,2,2,0,0,0-1.8.78,1.93,1.93,0,0,0-.38.95c-.11,1.24.12,2.62.08,3.89s-.13,2.69-.28,4a55.62,55.62,0,0,1-1.53,8A11.53,11.53,0,0,1,375.51,407.48Z"/><path class="cls-14" d="M183,464.52l-40.89,45.9a286.81,286.81,0,0,0,16-71.59c14.69.86,25.95-4.21,34.79-13.4l15.88,14.14,15.87,14.14c-8.12,9.84-11.85,21.6-9.31,36.09A287.39,287.39,0,0,0,146.06,514L187,468.09a5.81,5.81,0,1,0-4-3.57Z"/><path class="cls-8" d="M205.5,414.42,196.91,424l32.47,29,8.59-9.62Z"/><path class="cls-14" d="M205,410.77l32.33,28.8,23.55-26.44a.52.52,0,0,0,.11-.1c1.35-1.51-4.79-9.18-13.72-17.14S230,382.72,228.65,384.23a.4.4,0,0,0-.09.13Z"/><path class="cls-15" d="M292.11,321.52H197.27v1h94.84Z"/><path class="cls-15" d="M197,325.68a3.65,3.65,0,0,1-2-.62,3.64,3.64,0,0,1-1.54-3.75,3.65,3.65,0,0,1,2.87-2.87,3.72,3.72,0,0,1,2.11.21,3.65,3.65,0,0,1,2.25,3.38,3.57,3.57,0,0,1-.28,1.4,3.64,3.64,0,0,1-.79,1.19,3.81,3.81,0,0,1-1.19.79A3.75,3.75,0,0,1,197,325.68Z"/><path class="cls-15" d="M292.4,325.68a3.64,3.64,0,0,1-2-.62,3.59,3.59,0,0,1-1.34-1.64,3.64,3.64,0,0,1-.21-2.11,3.73,3.73,0,0,1,1-1.87,3.64,3.64,0,0,1,1.87-1,3.65,3.65,0,0,1,3.75,1.56,3.66,3.66,0,0,1,.61,2,3.57,3.57,0,0,1-.28,1.4,3.64,3.64,0,0,1-.79,1.19,3.81,3.81,0,0,1-1.19.79A3.76,3.76,0,0,1,292.4,325.68Z"/><path class="cls-15" d="M244.69,320.71a45.39,45.39,0,0,0-45.35,45.36H202a42.73,42.73,0,0,1,85.45,0h2.63a45.41,45.41,0,0,0-45.36-45.36Z"/><path class="cls-15" d="M290,362.42h-2.13a2.6,2.6,0,0,0-2.6,2.59v1.4a2.6,2.6,0,0,0,2.6,2.59H290a2.6,2.6,0,0,0,2.6-2.59V365A2.6,2.6,0,0,0,290,362.42Z"/><path class="cls-15" d="M201.54,362.42h-2.13a2.59,2.59,0,0,0-2.59,2.59v1.4a2.59,2.59,0,0,0,2.59,2.59h2.13a2.59,2.59,0,0,0,2.6-2.59V365A2.59,2.59,0,0,0,201.54,362.42Z"/><path class="cls-15" d="M245.75,318h-2.13a2.6,2.6,0,0,0-2.6,2.6V322a2.6,2.6,0,0,0,2.6,2.6h2.13a2.6,2.6,0,0,0,2.6-2.6v-1.39A2.6,2.6,0,0,0,245.75,318Z"/></g></g></svg>