<svg xmlns="http://www.w3.org/2000/svg" xmlns:xlink="http://www.w3.org/1999/xlink" viewBox="0 0 430.23 243.49"><defs><style>.cls-1{fill:#1e4174;}.cls-12,.cls-18,.cls-2,.cls-24,.cls-33,.cls-35,.cls-37,.cls-8{fill:none;}.cls-3{fill:#228c7e;}.cls-4{fill:#03aa99;}.cls-5{fill:#fdae38;}.cls-6{fill:#e09736;}.cls-7{fill:#40c7a7;}.cls-8{stroke:#3b55ce;stroke-width:1.05px;}.cls-12,.cls-24,.cls-33,.cls-35,.cls-8{stroke-linecap:round;}.cls-12,.cls-18,.cls-24,.cls-33,.cls-35,.cls-37,.cls-8{stroke-miterlimit:10;}.cls-9{fill:#3b55ce;}.cls-10{fill:#aaeeed;}.cls-11{clip-path:url(#clip-path);}.cls-12,.cls-35{stroke:#aaeeed;}.cls-12,.cls-18{stroke-width:0.55px;}.cls-13{fill:#ff9a8d;}.cls-14{clip-path:url(#clip-path-2);}.cls-15{fill:#85b8ed;}.cls-16{fill:#4e7eac;}.cls-17{clip-path:url(#clip-path-3);}.cls-18,.cls-37{stroke:#274d79;}.cls-19{fill:#001c45;}.cls-20{fill:#3ed9c7;}.cls-21{fill:#ba5964;}.cls-22{fill:#264248;}.cls-23{fill:#3e5960;}.cls-24{stroke:#001c45;stroke-width:0.79px;}.cls-25{fill:#dd7a79;}.cls-26{fill:#91dbac;}.cls-27{fill:#22a482;}.cls-28{fill:#3dc19a;}.cls-29{fill:#638be2;}.cls-30{fill:#e5f7ff;}.cls-31{fill:#8fc9c6;}.cls-32{clip-path:url(#clip-path-4);}.cls-33{stroke:#8fc9c6;}.cls-33,.cls-35,.cls-37{stroke-width:0.53px;}.cls-34{clip-path:url(#clip-path-5);}.cls-36{clip-path:url(#clip-path-6);}.cls-38{fill:#ffc253;}</style><clipPath id="clip-path"><path class="cls-1" d="M274.4,112.53c-.06,1.5.3,5.16-.43,6.71-1.77.89-4.93.22-7.14-.94s-4.17-.36-7.17-.9-5.17-1.92-5.46-3.28,5-1.28,8.7-1.51a16.19,16.19,0,0,0,6.6-1.68Z"/></clipPath><clipPath id="clip-path-2"><path class="cls-1" d="M288.2,111.32c1,1.11,3.81,3.48,4.38,5.1-.64,1.87-3.37,3.6-5.77,4.32s-3.22,2.66-5.74,4.37-5,2.24-6.2,1.48,2.67-4.41,5.16-7.17a16.11,16.11,0,0,0,3.55-5.82Z"/></clipPath><clipPath id="clip-path-3"><path class="cls-2" d="M317.42,58.57a45,45,0,0,0,3.27,5.65c1,1.69,4.05,6.18,2.28,10.91-1.9,5.07-6.11,6.33-10.47,6.33H302.35c-3,0-21.26-4.49-21.26-4.49a8,8,0,0,1,3.15,4.49c1,3.28,3.11,25.26,3.11,25.26a6.83,6.83,0,0,1-5.63,1.73s-5.53-17-7.75-23.35c-2.29-6.54-5-13-4.52-15.85.72-4,7.63-4.11,13.34-3.91s18.84.69,21.51.31l-1.38-4.77Z"/></clipPath><clipPath id="clip-path-4"><path class="cls-3" d="M96.56,193.37c-.28,1.4-1.43,4.71-1.1,6.32,1.44,1.22,4.52,1.3,6.83.72s3.94.6,6.84.77,5.22-.63,5.8-1.82-4.34-2.3-7.73-3.34a15.37,15.37,0,0,1-5.74-3Z"/></clipPath><clipPath id="clip-path-5"><path class="cls-4" d="M52.3,181.52c-1.43.1-4.92-.13-6.38.61-.8,1.71-.06,4.7,1.11,6.78s.46,4,1.06,6.8,2,4.86,3.29,5.11,1.07-4.79,1.18-8.34A15.32,15.32,0,0,1,54,186.14Z"/></clipPath><clipPath id="clip-path-6"><path class="cls-2" d="M59,183.46s25.66-13.9,27.38-15.24,12-36.68,12.83-39c0,0,7.6-6.19,8.65-11.09L90.29,106.65c-1.34,2.89-1.33,4.82-4.91,12-3.42,6.9-4.65,26.33-7.94,42.79a29.91,29.91,0,0,0-5.28,2.06c-3.1,1.48-16.24,15.38-16.24,15.38A6.44,6.44,0,0,0,59,183.46Z"/></clipPath></defs><g id="Layer_2" data-name="Layer 2"><g id="Objects"><rect class="cls-5" x="221.87" y="81.46" width="179.12" height="121.15"/><path class="cls-6" d="M221.87,81.46l84.07,76.71a8.14,8.14,0,0,0,11,0L401,81.46Z"/><polygon class="cls-6" points="400.99 202.61 311.43 109.14 400.99 194.65 400.99 202.61"/><polygon class="cls-6" points="221.87 202.61 311.43 109.14 221.87 194.65 221.87 202.61"/><path class="cls-5" d="M221.87,81.46l82.78,69.94a10.5,10.5,0,0,0,13.56,0L401,81.46Z"/><path class="cls-7" d="M386.68,202.61s-5.67-2.56-5.26-8.64,4.57-7.33,8.16-9.54,3.87-6,4-10.51,3.18-9.12,9.26-8.85,8.33,1.52,12.74-3.73,10.35-5.11,12.84-2.21a8.13,8.13,0,0,1-1.13,11.34c-4.59,4.19-5.78,5.25-7.1,9.86-1.8,6.25.79,12.35-1.52,15.25-3.09,3.89-6.42,2.93-9.6,4.19s-3.3,2.84-3.3,2.84Z"/><path class="cls-8" d="M423,163.18c-9.31,5.42-25.49,21.92-28.24,39.43"/><path class="cls-9" d="M281.58,23.56a2.79,2.79,0,1,1,2.79,2.79A2.79,2.79,0,0,1,281.58,23.56Z"/><path class="cls-10" d="M254.2,114.12c-.38.43-.42,1.47,1.34,2.76s5.41,1.8,6.88,1.86a8.7,8.7,0,0,1,4.42.8c2,.94,5.46,1.58,6.7.95.46-.33.43-1.25.43-1.25Z"/><path class="cls-1" d="M274.4,112.53c-.06,1.5.3,5.16-.43,6.71-1.77.89-4.93.22-7.14-.94s-4.17-.36-7.17-.9-5.17-1.92-5.46-3.28,5-1.28,8.7-1.51a16.19,16.19,0,0,0,6.6-1.68Z"/><g class="cls-11"><path class="cls-12" d="M267.57,113.81a6.65,6.65,0,0,0-1-3"/><path class="cls-12" d="M264.69,114.22a6.65,6.65,0,0,0-1-3"/><path class="cls-12" d="M261.81,114.63a6.79,6.79,0,0,0-1-3"/></g><path class="cls-13" d="M276,107.29l-1.57,5.24a2.65,2.65,0,0,0-1.07.32c-.35.25-1,1.24-1.46,1.15-1.86-.37-2.37-3.07-2.37-3.07l1.33-5.48Z"/><path class="cls-1" d="M302.92,60.88l-.71,5.52L282.94,66a6.19,6.19,0,0,0-5.89,4.52c-1.34,4.61-6.38,35.57-6.38,35.57s2.71,2,5.46,1.56c0,0,9.09-18.8,10.39-24a26.76,26.76,0,0,0,.64-9.52l23.24-2Z"/><path class="cls-10" d="M274.87,126.59c0,.57.72,1.34,2.89,1s5.12-2.49,6.22-3.47a8.66,8.66,0,0,1,3.72-2.52c2.07-.72,5-2.69,5.45-4,.1-.56-.57-1.19-.57-1.19Z"/><path class="cls-1" d="M288.2,111.32c1,1.11,3.81,3.48,4.38,5.1-.64,1.87-3.37,3.6-5.77,4.32s-3.22,2.66-5.74,4.37-5,2.24-6.2,1.48,2.67-4.41,5.16-7.17a16.11,16.11,0,0,0,3.55-5.82Z"/><g class="cls-14"><path class="cls-12" d="M284.21,117a6.76,6.76,0,0,0-2.79-1.42"/><path class="cls-12" d="M282.44,119.32a6.62,6.62,0,0,0-2.8-1.42"/><path class="cls-12" d="M280.66,121.63a6.73,6.73,0,0,0-2.79-1.43"/></g><path class="cls-13" d="M287.35,106.72l.85,4.6a2.71,2.71,0,0,0-.55,1c-.07.43.17,1.59-.24,1.85-1.59,1-3.83-.54-3.83-.54l-1.86-5.69Z"/><path class="cls-15" d="M317.42,58.57a45,45,0,0,0,3.27,5.65c1,1.69,4.05,6.18,2.28,10.91-1.9,5.07-6.11,6.33-10.47,6.33H302.35c-3,0-21.26-4.49-21.26-4.49a8,8,0,0,1,3.15,4.49c1,3.28,3.11,25.26,3.11,25.26a6.83,6.83,0,0,1-5.63,1.73s-5.48-17-7.75-23.35c-2.38-6.59-5-13-4.52-15.85.72-4,7.63-4.11,13.34-3.91s18.84.69,21.51.31l-1.38-4.77Z"/><path class="cls-16" d="M323,75.13c1.77-4.73-1.29-9.22-2.28-10.91a45,45,0,0,1-3.27-5.65l-14.5,2.31.88,3s8,1.1,11.55-3a36.07,36.07,0,0,1,3.31,6.23c1,3.23.74,8.46-5.57,9.72s-29.62-2.17-32.71-2.52-2.05,1.44-.34,5.06,2.43,10.13,4,17.91c1,5,2.1,10.38,2.1,10.38a6,6,0,0,0,1.24-.94s-2.08-22-3.11-25.26A8,8,0,0,0,281.09,77s18.29,4.49,21.26,4.49H312.5C316.86,81.46,321.07,80.2,323,75.13Z"/><g class="cls-17"><path class="cls-18" d="M312,58.59c.7,4.31,2.51,6.44,2.34,10.38s-3.37,6-12.64,5.12-23.53-2.91-24.78-2.56-.83,2.24.83,7.86S285.06,110,285.06,110"/><path class="cls-18" d="M314.19,70a4.48,4.48,0,0,1-3.7-1c-1.65-1.45-2.12-8.07-2.12-8.07"/><path class="cls-18" d="M280.43,106.4a8.45,8.45,0,0,0,7.28-2.21"/></g><path class="cls-19" d="M311.25,5.92S308.34,3.46,302.92,4c-4.32.41-7.48,2.92-8.47,6.08A10.64,10.64,0,0,0,299,22.22s-1.62.89.18,2.6c0,0-2.8.69-3.7,2.24s0,3,.54,4.77.72,2-1.62,4.37S290,42.7,293.33,48s9.07,9.79,17.07,9.37,17.22-3.13,19.52-15.59-5.56-15.3-7.73-14.74a25.94,25.94,0,0,0,1.67-12.18C323.14,8,319.79,4.94,317,4.72,312.82,4.39,311.25,5.92,311.25,5.92Z"/><path class="cls-13" d="M309.56,30.5c-1.07.32-2.86.59-3.81,1.33s-10.29,15.29-10.29,15.29S286.85,33.64,285.57,32s-7.91-3.79-9.1-3.55c-1.48.3-.68,2.14-.38,3.34.17.68.44,2.58,1.66,3.42s5.54,1.49,5.54,1.49S291,53.05,292.64,55.5c1,1.58,2.18,1.6,4.1-.52S306,43.2,306,43.2Z"/><path class="cls-4" d="M309.56,30.5c-1.71.62-3.28.58-4.15,1.68s-1.61,6.13-1.61,6.13,4.29-.86,5.43-3.1a10.83,10.83,0,0,0,1.17-4.28Z"/><path class="cls-20" d="M315.52,27.69a3,3,0,0,0,1.45.52c.95.14,4.07.82,4.7,2,1.51,2.08,0,8.93-.92,13.73-.54,2.93-5.73,9.51-2.19,16.21,0,0-8,4.72-16.05.74-.84-4,.15-6.78.18-11.27a10.06,10.06,0,0,1-2.38-5c-.38-5.48,5.1-7.15,9.37-13.26,1.19-1.7,2.1-1.62,3.72-2.86A3.89,3.89,0,0,1,315.52,27.69Z"/><path class="cls-13" d="M318,30.07c2.42-1.52,4.38.36,5.52,3.1s7.18,19.79,7.71,21.91-1.8,23.08-2.44,24.29-1.3,2.09-3.72,2.09H313.94a3.65,3.65,0,0,1,2.45-1.61c1.91-.48,7.31-.63,8.37-2.33s.61-21.24.61-21.24-6.7-14.32-8.19-17.87S316.28,31.15,318,30.07Z"/><path class="cls-4" d="M319.12,29.15c-1.43,0-4.7,3.25-1.94,9.26,0,0,3.59-5.09,6.87-3.85C324.05,34.56,322.62,28.33,319.12,29.15Z"/><path class="cls-13" d="M312.62,22.2l2.53,2.24,1.11,3.77a9.9,9.9,0,0,0-2.19,2c-.75,1.12-2.41,3.81-4.41,4a16.36,16.36,0,0,0-.1-3.73c-.3-1.31-1.22-3.9-1.22-3.9Z"/><path class="cls-21" d="M312.63,22.2a13.58,13.58,0,0,1,.45,3.18,8.23,8.23,0,0,1-3.52,5.12c-.3-1.31-1.22-3.9-1.22-3.9Z"/><path class="cls-21" d="M302,17.44c-.47,1.7-2.41,4.08-2,4.5s2,.28,2,.28a3.1,3.1,0,0,0,.8-2.82C302.42,17.75,302,17.44,302,17.44Z"/><path class="cls-13" d="M306.24,6.84c-2.35.21-4.7,3.47-4.66,6.43s.73,4.57.54,6.66a13,13,0,0,0,.7,6.29c.59,1.46,2.11,1.79,4.14,1.3a14.76,14.76,0,0,0,5-2.8c.58-.56.69-2.52.69-2.52a5.82,5.82,0,0,0,4-2.94C317.93,16.72,317.7,5.8,306.24,6.84Z"/><path class="cls-19" d="M312.62,22.2a3.81,3.81,0,0,0,2.31-3.8c-.23-2.89-4.12-3-4-.45a8.66,8.66,0,0,1-4.37-2.48c-3.11-3.65-3.45-6.62-3.45-6.62.65-4.54,8.1-2.93,8.1-2.93s3.77-1.63,7,.51c2.3,1.53,3.47,7,1.61,11.61a14.24,14.24,0,0,1-4.69,6.4Z"/><path class="cls-19" d="M304.05,18.18a.69.69,0,0,1,.72-.64.68.68,0,0,1-.07,1.36A.68.68,0,0,1,304.05,18.18Z"/><path class="cls-19" d="M303.49,16.4l3.11,1A1.62,1.62,0,0,0,305.46,16,1.84,1.84,0,0,0,303.49,16.4Z"/><path class="cls-21" d="M313.33,17.79a1.62,1.62,0,0,0-1.41.16c-.13.11.09.33.22.28.72-.27,1.59-.3,1.94.53,0,0,.05,0,.05,0A1.19,1.19,0,0,0,313.33,17.79Z"/><path class="cls-21" d="M313,17.86c-.07,0-.26.16-.24.22a.88.88,0,0,1,.39.34,1.27,1.27,0,0,1,.17.81,1.46,1.46,0,0,1-1.15,1.39s0,0,0,0a1.38,1.38,0,0,0,1.43-1A1.47,1.47,0,0,0,313,17.86Z"/><path class="cls-13" d="M309.68,31.37c0,.81-1.49,2.6-1.11,3.84s2.94,1.4,4.32,0,2.19-5.8,4.08-7a1.07,1.07,0,0,1-.93-.76Z"/><path class="cls-22" d="M282.07,27.13s-.75,6.66,1.82,12a1.1,1.1,0,0,1-.47,1.44l-3.14,1.74a1.11,1.11,0,0,1-1.65-.77,33.41,33.41,0,0,1,.61-14.73Z"/><path class="cls-13" d="M278.79,28.86c.79.22,1.94.71,2,1.47s-1.22.79-1.22.79.89.39.95.95-.49,1.11-1.31,1.11c0,0,.85.29.59,1s-1.51.13-1.75.69a3.55,3.55,0,0,1-.81-2.33C277.16,31,278.79,28.86,278.79,28.86Z"/><path class="cls-13" d="M285.57,32a5.78,5.78,0,0,0-3.22-3.18c-1.46-.58-2.15-1.7-2.53-1.13s.65,2.38,2.25,2.93Z"/><path class="cls-22" d="M277.21,26.91l6.48.81c1.66.2,2.69-8.34,1-8.54l-6.36-1.07Z"/><path class="cls-23" d="M278.36,18.11C276,17.84,267.87,14,266.1,7.2,259.43,6.35,256.31,31,263,31.83c1.83-4.26,11-5.33,14.23-4.92C278.48,27.07,279.63,18.27,278.36,18.11Z"/><path class="cls-24" d="M305.41.39a9.26,9.26,0,0,1,5.84,5.53"/><path class="cls-25" d="M105.48,79.8c5.34,4.87,11.15,8.18,17.89,6.89,9.49-1.8,16.89-11.47,16.89-11.47a33.31,33.31,0,0,1,2.45,3.51c0,.31-6.27,12.75-17.64,15.3s-21.59-5.6-21.59-5.6Z"/><path class="cls-23" d="M202.89,146.94a15.81,15.81,0,0,0,19.9,5l12.65-6.24a5.25,5.25,0,0,1,6.75,1.89l22.88,36a5.25,5.25,0,0,1-1.83,7.39c-7.4,4.18-22.68,11.26-39.51,9.89-23.62-1.92-39-23.88-65-64.75S119.34,72,127.59,49.81c5.89-15.82,18.77-26.67,25.7-31.6a5.25,5.25,0,0,1,7.47,1.46l22.87,35.95a5.25,5.25,0,0,1-1.14,6.92l-11,8.82a15.81,15.81,0,0,0-3.86,20.16Z"/><path class="cls-22" d="M173.22,70l9.27-7.42a5.25,5.25,0,0,0,1.14-6.92l-12.09-19L160.61,19.49a5.23,5.23,0,0,0-7.32-1.28,84.21,84.21,0,0,0-8.6,7Z"/><path class="cls-22" d="M253.22,195.78a86.41,86.41,0,0,0,10-4.81,5.25,5.25,0,0,0,1.95-7.16L241.68,147a5.26,5.26,0,0,0-6.24-1.23l-10.76,5.31Z"/><path class="cls-6" d="M105.82,80.07l4.33,3.24s1.95,6-1.34,9.11l-5.74-3.48Z"/><path class="cls-26" d="M31.09,202.61a26.12,26.12,0,0,0,7-8.92c2.84-5.93.31-11.1-3.66-10.35-4.23.8-4.82-2.66-6-7-1.4-5.25-8.19-12.73-13.74-12-7.15,1-2.63,8.62-1.9,11.4s2.54,6-1.9,6.41c-4,.4-5.81,4.07-2.66,7.82,3,3.57,6.25,3.52,6.4,7.14s2.4,4.65,4.3,5.52Z"/><path class="cls-8" d="M17.71,170.66s9.74,12.72,7.28,32"/><path class="cls-7" d="M118.16,202.61a10.57,10.57,0,0,0,1.09-9.06c-2.15-6.92-8.56-10.11-6.25-14.63,1.93-3.77,7.68-1.86,10.73,3.21,2.93,4.87,3.15,15.14-1.47,20.48Z"/><path class="cls-8" d="M117.52,180.89s8.84,9.55,3,21.72"/><path class="cls-27" d="M124.7,202.61A29.27,29.27,0,0,0,135,190.12c3.65-8.41,3.81-18.26,0-21.75-3.56-3.27-7.78-1.27-8.89,4.44s1.43,20.22-6,29.8Z"/><path class="cls-8" d="M131.68,170a50.4,50.4,0,0,1-1.42,17.81A42.74,42.74,0,0,1,123,202.61"/><path class="cls-26" d="M218.6,202.61a37.59,37.59,0,0,0-9.18-22.73c-9.34-11-20-14.89-29.24-11.56-6.87,2.47-5.1,10.42.51,13.81,6.65,4,31.54,5.63,32.43,20.48Z"/><path class="cls-8" d="M181.17,173.63c12.68-.72,32.1,11,34.77,29"/><path class="cls-28" d="M221.5,202.61s6.14-6.55,5-19.16-12.28-15.74-14.27-9.64c-1.57,4.79,9.23,16,5.38,28.8Z"/><path class="cls-8" d="M217.57,174.69c2.37,3.09,7,15.69,2.28,27.92"/><path class="cls-29" d="M414,204.19H1.57A1.58,1.58,0,0,1,0,202.61H0A1.57,1.57,0,0,1,1.57,201H414a1.57,1.57,0,0,1,1.57,1.57h0A1.57,1.57,0,0,1,414,204.19Z"/><path class="cls-30" d="M70.41,204.19H388.74a0,0,0,0,1,0,0v7.67a31.64,31.64,0,0,1-31.64,31.64H102a31.64,31.64,0,0,1-31.64-31.64v-7.67A0,0,0,0,1,70.41,204.19Z"/><path class="cls-31" d="M114.93,199.36c.25.48.06,1.45-1.87,2.25s-5.4.46-6.79.19a8.32,8.32,0,0,0-4.27-.24c-2,.43-5.41.24-6.42-.62-.36-.41-.12-1.25-.12-1.25Z"/><path class="cls-3" d="M96.56,193.37c-.28,1.4-1.43,4.71-1.1,6.32,1.44,1.22,4.52,1.3,6.83.72s3.94.6,6.84.77,5.22-.63,5.8-1.82-4.34-2.3-7.73-3.34a15.37,15.37,0,0,1-5.74-3Z"/><g class="cls-32"><path class="cls-33" d="M102.6,196.08a6.4,6.4,0,0,1,1.6-2.52"/><path class="cls-33" d="M105.18,197.11a6.36,6.36,0,0,1,1.6-2.53"/><path class="cls-33" d="M107.76,198.13a6.42,6.42,0,0,1,1.59-2.53"/></g><path class="cls-13" d="M96.56,187.76v5.61a2.46,2.46,0,0,1,.92.53c.27.32.64,1.38,1.1,1.4,1.81.07,2.88-2.32,2.88-2.32l.68-5.09Z"/><path class="cls-10" d="M51.38,200.82c-.4.37-1.38.44-2.66-1.21s-1.88-5.09-2-6.49a8.36,8.36,0,0,0-.9-4.19c-1-1.86-1.66-5.15-1.1-6.36.3-.45,1.18-.44,1.18-.44Z"/><path class="cls-4" d="M52.3,181.52c-1.43.1-4.92-.13-6.38.61-.8,1.71-.06,4.7,1.11,6.78s.46,4,1.06,6.8,2,4.86,3.29,5.11,1.07-4.79,1.18-8.34A15.32,15.32,0,0,1,54,186.14Z"/><g class="cls-34"><path class="cls-35" d="M51.28,188.07a6.44,6.44,0,0,1,2.86.86"/><path class="cls-35" d="M51,190.82a6.37,6.37,0,0,1,2.86.87"/><path class="cls-35" d="M50.67,193.58a6.37,6.37,0,0,1,2.86.87"/></g><path class="cls-13" d="M55.92,178.92l-3.62,2.6a2.46,2.46,0,0,1-.27,1c-.24.34-1.16,1-1.05,1.42.4,1.77,3,2.17,3,2.17l5-2.68Z"/><path class="cls-1" d="M107.39,107.91c-6.28,0-11,.47-11,.47-2,.88-5.46,5.44-6.47,8.34s.49,7,1,9.44c3,13.88,6,23.53,7.11,29,.7,3.37-1.8,3.9-1.82,9.24,0,7.63.28,23.91.28,23.91a7.32,7.32,0,0,0,5.46.43s4.71-26.84,5.23-29.91c.83-5,1.12-7.08,1.22-15.7C108.6,131,107.39,107.91,107.39,107.91Z"/><path class="cls-15" d="M107.31,118.43c-1,4.91-8.09,10.82-8.09,10.82-.8,2.29-11.12,37.63-12.85,39S59,183.45,59,183.45a5.87,5.87,0,0,1-2.44-2.56,7.26,7.26,0,0,1-.58-1.68c0-.12,0-.2,0-.24a.21.21,0,0,1,0-.06S69.06,165,72.16,163.54a29.91,29.91,0,0,1,5.28-2.06h0c3.53-16.42,3.42-29.25,6.28-38.32a38.48,38.48,0,0,1,1.66-4.46c.73-1.61,1.29-3,1.74-4.1.19-.49.36-.94.51-1.37s.3-.83.41-1.2.16-.49.23-.71c.33-1,.56-1.86.81-2.65.12-.35.23-.68.36-1,.07-.17.14-.35.21-.51s.15-.36.23-.54h0l4.9,3.65L97.16,112Z"/><path class="cls-16" d="M97.16,112a23.31,23.31,0,0,1-3,3.21c-3.64,3.17-5.84,8.1-7.78,18.33-2.19,11.51-5.87,28.64-6.31,29.7s-3.67.66-9.59,5c-4.48,3.26-11,10.05-13.92,12.66a7.26,7.26,0,0,1-.58-1.68c0-.12,0-.2,0-.24a.21.21,0,0,1,0-.06S69.06,165,72.16,163.54a29.91,29.91,0,0,1,5.28-2.06h0c3.37-16.42,3.42-29.25,6.28-38.32a36.47,36.47,0,0,1,1.67-4.45c.73-1.61,1.29-3,1.73-4.11.2-.49.37-1,.51-1.37s.3-.83.41-1.2.16-.49.23-.71c.33-1,.56-1.86.81-2.65.12-.35.23-.68.36-1,.07-.17.14-.35.21-.51s.16-.35.24-.53h0l4.9,3.66Z"/><path class="cls-16" d="M107.31,118.43s-3.21,4.2-12,4.53a18.64,18.64,0,0,1-10-2.22L87.68,117Z"/><g class="cls-36"><path class="cls-37" d="M103.61,108.76c-3.7,4.74-8.41,7.62-10.37,10.87s-3.06,10.29-5.6,23.14S82.82,164.23,82.12,165s-5,1.53-11.79,6.07a145.34,145.34,0,0,0-14.61,11.81"/><path class="cls-37" d="M99.51,120s-1.46,8.08-8.65,6.73"/><path class="cls-37" d="M57.31,176.39a9.13,9.13,0,0,0,4.34,7"/></g><polygon class="cls-13" points="98.39 71.82 104.47 77.03 107.95 68.76 100.71 64.58 98.39 71.82"/><path class="cls-21" d="M106.92,71.21s-7.17-2-6.21-6.63L108,68.76Z"/><path class="cls-38" d="M104.32,76.82a7.11,7.11,0,0,1,2.5,4.65c.33,2.94.59,7.34.84,13.73.22,5.79.81,22.61.81,22.61s-4.44,2.91-11.9,2.32c-7.12-.57-10.19-4.07-10.19-4.07s.74-23.66,3.08-33c3.46-9.6,8.93-11.27,8.93-11.27Z"/><path class="cls-21" d="M111.58,57.81c.37.65,2.34,3.4,3,4.2s-1.9,1-1.9,1Z"/><path class="cls-13" d="M100.71,64.58a16.62,16.62,0,0,0,.84,1.65c.42.71,6.39,3.13,8,3.32s3.66-.13,3.25-5.38S111,54.37,107.5,52s-8.43.22-10.56,3.59S97.08,65.55,100.71,64.58Z"/><path class="cls-19" d="M100.71,64.58h0L99.93,67s-.6.28-2.12-1.6c-1.66-2.07-4.7-5.6-4.4-7.84.39-3,3.76-4,3.76-4s1.72-5.43,8.44-8.32,9.7,2,4.53,5.56c0,0,3.59,1.79,1.32,3.15s-8.76,1.2-8.76,1.2,3.19,1.21,2.24,2.12-5.06.52-5.06.52l.52,2.08a2.6,2.6,0,0,0-2.58.57C96.73,61.73,98.4,65.26,100.71,64.58Z"/><path class="cls-24" d="M96.51,47.23s-2,4.33,1.76,7.25c0,0-3.76-.12-4.55-3.68"/><path class="cls-19" d="M108.94,58.85a.65.65,0,0,0-1.23.42.65.65,0,0,0,.83.4A.64.64,0,0,0,108.94,58.85Z"/><path class="cls-19" d="M109,57.07l-2.59,1.71a1.56,1.56,0,0,1,.68-1.57A1.75,1.75,0,0,1,109,57.07Z"/><path class="cls-21" d="M98.64,61.07a1.54,1.54,0,0,1,1.33-.22c.15.07,0,.33-.13.32-.73-.06-1.54.13-1.65,1,0,0,0,0,0,0A1.12,1.12,0,0,1,98.64,61.07Z"/><path class="cls-21" d="M99,61.05c.06-.06.28.08.28.13a.93.93,0,0,0-.27.42,1.23,1.23,0,0,0,0,.78,1.39,1.39,0,0,0,1.42,1s0,0,0,0a1.32,1.32,0,0,1-1.57-.57A1.4,1.4,0,0,1,99,61.05Z"/><path class="cls-6" d="M95.75,77.08c-1.47.78-3.4,5-2,9.61S96.87,96,96.87,96s7.09-1.67,8.95-6.19c0,0-2.5-6.11-3.67-8.59S99.47,75.11,95.75,77.08Z"/><path class="cls-6" d="M103.17,103.72a19.77,19.77,0,0,0,5,3.81c-.1-2.67-.2-4.93-.29-7.41l-5.3-7-3.49-1L97.8,95.75S100.63,101.17,103.17,103.72Z"/><path class="cls-13" d="M97.42,77c-3.35.89-4.49,5.69-1.12,13.14,3.24,7.14,8.45,13.67,11.65,15.91s15.61,1.49,26-1.58c0,0,5.91-2.12,7.56-3.58,3.66-3.24,3.84-7.55,1.15-6.91s-6.94,3.55-6.94,3.55-1.13-2.22-1.94-4c0,0-.73.19-1,1.73s-.23,3.68-.68,4c-1.19.83-17.82,2.23-19.81.28-2.25-2.22-5.51-8.1-7.82-13.53C101.91,80.07,100.85,76.12,97.42,77Z"/><path class="cls-38" d="M96.3,76.28c-1.47.78-3.4,5-2,9.61s3.15,9.32,3.15,9.32,6.66-1,9.48-4.83c0,0-3-7.48-4.19-9.95S100,74.31,96.3,76.28Z"/></g></g></svg>