<svg xmlns="http://www.w3.org/2000/svg" viewBox="0 0 288.15 288.21"><defs><style>.cls-1{fill:#4FA3A5;}</style></defs><g id="Layer_2" data-name="Layer 2"><g id="Layer_1-2" data-name="Layer 1"><path class="cls-1" d="M0,148.54c1.11-1.92,1.94-4.09,3.38-5.71,3.89-4.37,8.81-5.65,14.52-4.18a3.86,3.86,0,0,0,3.12-.54Q42.1,117.28,63,96.26a2.85,2.85,0,0,0,.31-.46c-5.79-9.64-5.12-21.52,3.87-30,5.84-5.5,16.47-9.36,28.49-2.4.56-.5,1.2-1,1.78-1.58q20.06-20.08,40.12-40.15a3.49,3.49,0,0,0,1.06-4.11A13.61,13.61,0,0,1,146.54,1c.67-.29,1.32-.64,2-1h6.75c5.32,2.15,9.22,5.49,10.28,11.52,1.69,9.59-7.43,18.2-16.84,15.56-2.27-.64-3.51-.13-5,1.43C137,35.34,130.15,42,123.37,48.8c-.65.65-1.27,1.34-2.27,2.4,47-17.93,90.78-12.66,132.36,16.26,2-2.14,4.13-4.57,6.41-6.87,2.76-2.78,5-2.81,7.76-.09q9.3,9.19,18.49,18.5c2.74,2.76,2.7,5-.09,7.76q-9.12,9.19-18.3,18.3c-2.8,2.78-5.1,2.76-8-.06q-9.12-9-18.18-18c-2.89-2.88-2.85-5.29,0-8.19,1.51-1.53,3-3.08,4.5-4.61-37.92-29.51-97.75-33.76-142.65-2.34,4.24,10,3.61,19.44-4.35,27.35s-17.28,8.46-27.21,4.24c-27.75,38.1-31.29,97.95,2.47,143.31,1.59-1.83,3-3.66,4.66-5.3,2.53-2.55,5.13-2.62,7.6-.16q9.36,9.33,18.6,18.79c2.54,2.59,2.51,5,0,7.56Q95.87,277,86.47,286.31c-2.54,2.52-4.8,2.52-7.35,0q-9.41-9.3-18.69-18.7c-2.64-2.66-2.64-4.91,0-7.55,2.31-2.31,4.75-4.5,7-6.63-28.8-41.37-34.1-85.13-16.25-132.07-.66.54-1.09.83-1.45,1.19-7.31,7.27-14.65,14.52-21.88,21.88a3.8,3.8,0,0,0-.86,3c2.06,7.85-1.57,15.24-8.86,17.66S3.5,163.88.55,156.22a6.31,6.31,0,0,0-.55-.93ZM96.81,83.06a14,14,0,0,0-13.9-14.22A14.1,14.1,0,0,0,68.85,82.71a13.92,13.92,0,0,0,14,14.14A13.77,13.77,0,0,0,96.81,83.06ZM95.74,263.72,83,251,70.3,263.73l12.64,12.74ZM263.89,70.19,251.46,82.61,264,95.18l12.46-12.46ZM151.79,18.56a4.67,4.67,0,0,0,4.73-4.51,4.62,4.62,0,1,0-9.22-.51A4.68,4.68,0,0,0,151.79,18.56Zm-138,128.76a4,4,0,0,0-4.27,4.43,4.69,4.69,0,0,0,4.67,4.61,4.51,4.51,0,0,0,4.38-4.55A4.64,4.64,0,0,0,13.77,147.32Z"/><path class="cls-1" d="M116.12,96.06c1.4.51,2.38.82,3.33,1.2Q176.33,120,233.21,142.67a7.69,7.69,0,0,1,4.7,4.78q8.57,22.55,17.34,45a6.88,6.88,0,0,0,3,3.32c8.63,4.47,17.36,8.75,26,13.11,4.62,2.32,5.11,5.33,1.43,9q-33.9,33.93-67.82,67.83c-3.79,3.79-6.7,3.26-9.14-1.61-4.32-8.61-8.56-17.25-13-25.8a6.82,6.82,0,0,0-3.29-3q-22.44-8.82-45-17.35a7.59,7.59,0,0,1-4.79-4.66q-22.61-56.81-45.4-113.52c-1.27-3.16-.87-5.43,1.58-7.76,4.61-4.39,9-9,13.58-13.46A24.58,24.58,0,0,1,116.12,96.06Zm-7.65,19.5c-2,1-2.07,2.45-1.17,4.68,14.34,35.63,28.56,71.32,42.91,107a6.12,6.12,0,0,0,3.11,3.07c13.72,5.42,27.52,10.66,41.26,16a3.24,3.24,0,0,0,4.13-.81Q222,222,245.42,198.73a3.26,3.26,0,0,0,.85-4.12q-8-20.49-15.8-41.07a5.62,5.62,0,0,0-3.53-3.55q-53.53-21.31-107-42.83c-2.43-1-3.55-.3-4.35,1.27l57.83,57.86c14.06-8.75,29-3.54,36.2,6.22a26.53,26.53,0,0,1-37.17,37.11c-9.61-7.13-15-21.9-6.15-36.25Zm95.32,138.19c3.61,7.19,7.27,14.51,10.84,21.61l60.65-60.66-21.59-10.82C237.05,220.52,220.55,237,203.79,253.75ZM188.4,171A17.24,17.24,0,0,0,171,188.42a17.47,17.47,0,0,0,17.26,17.42,17.67,17.67,0,0,0,17.54-17.52A17.45,17.45,0,0,0,188.4,171Z"/><path class="cls-1" d="M151.79,18.56a4.68,4.68,0,0,1-4.49-5,4.62,4.62,0,1,1,9.22.51A4.67,4.67,0,0,1,151.79,18.56Z"/><path class="cls-1" d="M13.77,147.32a4.64,4.64,0,0,1,4.78,4.49,4.51,4.51,0,0,1-4.38,4.55,4.69,4.69,0,0,1-4.67-4.61A4,4,0,0,1,13.77,147.32Z"/></g></g></svg>