<svg xmlns="http://www.w3.org/2000/svg" xmlns:xlink="http://www.w3.org/1999/xlink" viewBox="0 0 895.37 794.23"><defs><style>.cls-1{fill:url(#linear-gradient);}.cls-2{opacity:0.39;fill:url(#linear-gradient-2);}</style><linearGradient id="linear-gradient" x1="109.58" y1="708.31" x2="689.34" y2="130.93" gradientUnits="userSpaceOnUse"><stop offset="0" stop-color="#fdd190"/><stop offset="1" stop-color="#fff" stop-opacity="0"/></linearGradient><linearGradient id="linear-gradient-2" x1="166.48" y1="729.11" x2="746.24" y2="151.73" gradientTransform="translate(-144.17 220.82) rotate(-23.99)" xlink:href="#linear-gradient"/></defs><g id="Layer_2" data-name="Layer 2"><g id="Layer_1-2" data-name="Layer 1"><path class="cls-1" d="M93.66,101.64C25,140.72-18.78,237.52,7.94,293.3,34,347.76,114.32,336.11,124.61,379c12.87,53.71-109.06,88.14-113.1,163.09C7.07,624.55,147.18,720,277,739.73c80.23,12.18,90.58-14.59,232.14-9.52C641.78,735,658.52,759.38,702,738.54c94.54-45.32,142.48-221.8,91.67-342.86-34.54-82.27-89.14-78.05-132.15-182.14-41-99.38-10.26-149.17-50-177.38C555.45-3.64,486.35,89.93,321,101.64,197.71,110.37,160.42,63.66,93.66,101.64Z"/><path class="cls-2" d="M43.17,271.47c-46.87,63.64-47.48,169.86-.38,210,46,39.15,114.59-4.14,141.43,30.88,33.6,43.84-63.8,124.87-37,195,29.45,77.12,196.27,107.39,322.89,72.62,78.24-21.49,76.82-50.16,208.21-103.09C801.43,627.24,826.66,642.75,857.9,606c68-79.84,40-260.58-55.64-350.51-65-61.13-113.18-35.07-194.78-112.69-77.92-74.1-70-132.11-117.8-141.73-67.4-13.57-92.49,100-238.77,177.92C141.79,237.15,88.73,209.63,43.17,271.47Z"/></g></g></svg>