<svg xmlns="http://www.w3.org/2000/svg" viewBox="0 0 544.42 339.58"><defs><style>.cls-1{fill:#403d56;}.cls-2{fill:#cdcccc;}.cls-3{fill:#f28c68;}.cls-4{fill:#d8566d;}.cls-5{fill:#ef7c91;}.cls-6{fill:#f9b135;}.cls-7{fill:#f9c6b1;}.cls-8{fill:#fff;}.cls-9{fill:#f6b6b8;}.cls-10{fill:#167073;}.cls-11{fill:#2f2f41;}.cls-12{fill:#264248;}.cls-13{opacity:0.2;isolation:isolate;}</style></defs><g id="Layer_2" data-name="Layer 2"><g id="Layer_1-2" data-name="Layer 1"><path class="cls-1" d="M330.37,188.74H11.18a10.84,10.84,0,0,1-7.9-3.5A12.34,12.34,0,0,1,0,176.81V11.93A12.32,12.32,0,0,1,3.28,3.5,10.8,10.8,0,0,1,11.18,0H330.37a10.83,10.83,0,0,1,7.9,3.5,12.41,12.41,0,0,1,3.28,8.43V176.81a12.43,12.43,0,0,1-3.28,8.43A10.87,10.87,0,0,1,330.37,188.74ZM11.18,1.4a9.53,9.53,0,0,0-7,3.09,10.86,10.86,0,0,0-2.89,7.43V176.81a10.9,10.9,0,0,0,2.89,7.44,9.56,9.56,0,0,0,7,3.08H330.37a9.57,9.57,0,0,0,7-3.08,10.9,10.9,0,0,0,2.89-7.44V11.93a10.88,10.88,0,0,0-2.89-7.44,9.54,9.54,0,0,0-7-3.09Z"/><path class="cls-2" d="M61.31,64.9a6.33,6.33,0,1,0-5.92-6.31A6.13,6.13,0,0,0,61.31,64.9Z"/><path class="cls-2" d="M61.31,88.76a6.33,6.33,0,1,0-5.92-6.32A6.13,6.13,0,0,0,61.31,88.76Z"/><path class="cls-2" d="M61.31,112.61a6.33,6.33,0,1,0-5.92-6.31A6.13,6.13,0,0,0,61.31,112.61Z"/><path class="cls-2" d="M160.91,160.32A6.33,6.33,0,1,0,155,154,6.12,6.12,0,0,0,160.91,160.32Z"/><path class="cls-2" d="M118.18,160.32a6.33,6.33,0,1,0-5.92-6.31A6.12,6.12,0,0,0,118.18,160.32Z"/><path class="cls-2" d="M249,160.32a6.33,6.33,0,1,0-5.92-6.31A6.12,6.12,0,0,0,249,160.32Z"/><path class="cls-2" d="M204.3,160.32a6.33,6.33,0,1,0-5.91-6.31A6.12,6.12,0,0,0,204.3,160.32Z"/><path class="cls-2" d="M285.5,83.14H90.89a.6.6,0,0,1-.46-.21.73.73,0,0,1-.19-.49.76.76,0,0,1,.19-.5.63.63,0,0,1,.46-.2H285.5a.63.63,0,0,1,.46.2.76.76,0,0,1,.19.5.73.73,0,0,1-.19.49A.6.6,0,0,1,285.5,83.14Z"/><path class="cls-2" d="M285.5,107H90.89a.63.63,0,0,1-.46-.2.74.74,0,0,1,0-1,.64.64,0,0,1,.46-.21H285.5a.64.64,0,0,1,.46.21.74.74,0,0,1,0,1A.63.63,0,0,1,285.5,107Z"/><path class="cls-3" d="M127.71,130.85H108.64a3.18,3.18,0,0,1-2.32-1,3.57,3.57,0,0,1-1-2.47V108.4a3.62,3.62,0,0,1,1-2.48,3.18,3.18,0,0,1,2.32-1h19.07a3.16,3.16,0,0,1,2.32,1,3.62,3.62,0,0,1,1,2.48v18.95a3.58,3.58,0,0,1-1,2.47A3.16,3.16,0,0,1,127.71,130.85Z"/><path class="cls-4" d="M170.44,130.85H151.38a3.2,3.2,0,0,1-2.33-1,3.62,3.62,0,0,1-1-2.47V84.54a3.62,3.62,0,0,1,1-2.47,3.2,3.2,0,0,1,2.33-1h19.06a3.18,3.18,0,0,1,2.33,1,3.62,3.62,0,0,1,1,2.47v42.81a3.62,3.62,0,0,1-1,2.47A3.18,3.18,0,0,1,170.44,130.85Z"/><path class="cls-5" d="M213.84,130.85H194.77a3.16,3.16,0,0,1-2.32-1,3.58,3.58,0,0,1-1-2.47V60.69a3.62,3.62,0,0,1,1-2.48,3.16,3.16,0,0,1,2.32-1h19.07a3.18,3.18,0,0,1,2.32,1,3.62,3.62,0,0,1,1,2.48v66.65a3.6,3.6,0,0,1-1,2.48,3.18,3.18,0,0,1-2.32,1Z"/><path class="cls-6" d="M258.54,130.85H239.48a3.2,3.2,0,0,1-2.33-1,3.62,3.62,0,0,1-1-2.47V37.54a3.66,3.66,0,0,1,1-2.48,3.2,3.2,0,0,1,2.33-1h19.06a3.2,3.2,0,0,1,2.33,1,3.66,3.66,0,0,1,1,2.48v89.81a3.62,3.62,0,0,1-1,2.47A3.2,3.2,0,0,1,258.54,130.85Z"/><path class="cls-7" d="M436.19,335.62a26.28,26.28,0,0,1-8.56-21.95c.94-8.2,6.77-15.74,14.33-17.48a16.1,16.1,0,0,1,18.49,11c1.27-15.21,2.73-31.06,10.3-44,6.86-11.73,18.74-20.12,31.62-21.62a38.05,38.05,0,0,1,34.47,15c8,10.85,10,26.62,4.37,39.07-4.15,9.17-11.78,16-19.77,21.56a121.27,121.27,0,0,1-87.29,20.38Z"/><path class="cls-8" d="M524.11,246a224.22,224.22,0,0,0-61.88,89.29c-.59,1.55,1.76,2.22,2.34.69a221.78,221.78,0,0,1,61.25-88.15c1.22-1-.51-2.88-1.71-1.83Z"/><path class="cls-1" d="M373.83,142.47a10.41,10.41,0,0,1-2.22-.24l-.4-.09-161-40c-1.75-.43-2.91-1.61-2.71-2.73a1.87,1.87,0,0,1,.5-.86,1.77,1.77,0,0,1,.85-.46,4.57,4.57,0,0,1,2.38-.06l162,36.11c3.65.81,6.19,3.2,5.77,5.44a3.54,3.54,0,0,1-2.72,2.56,8.34,8.34,0,0,1-2.43.34Z"/><path class="cls-9" d="M339.73,136.94a6.24,6.24,0,0,0,5.57.56,6.56,6.56,0,0,0,2.42-1.63,7.1,7.1,0,0,0,1.56-2.57l23.48.53-6.5-11L345,124a6.26,6.26,0,0,0-4.71.37A7,7,0,0,0,337,128a7.58,7.58,0,0,0-.2,5,7,7,0,0,0,3,3.91Z"/><path class="cls-10" d="M349.93,132.93l-.12-7.68a3.34,3.34,0,0,1,.75-2.16,2.93,2.93,0,0,1,1.92-1l42.21-4.35,35.17-12.3a7.82,7.82,0,0,1,3.29-.41,8,8,0,0,1,3.18,1,8.36,8.36,0,0,1,2.58,2.2,9.22,9.22,0,0,1,1.59,3.1,9.64,9.64,0,0,1-.6,6.9,9.14,9.14,0,0,1-2.1,2.74,8.35,8.35,0,0,1-2.92,1.66L396,134.87,353,136a2.78,2.78,0,0,1-1.14-.21,2.83,2.83,0,0,1-1-.66,3.34,3.34,0,0,1-.67-1,3.52,3.52,0,0,1-.24-1.21Z"/><path class="cls-9" d="M412.39,331h-8.06l-3.83-33.17h11.9Z"/><path class="cls-11" d="M414.45,339.35h-26V339a11.19,11.19,0,0,1,3-7.64,9.83,9.83,0,0,1,7.16-3.16h15.87Z"/><path class="cls-9" d="M436.06,331H428l-3.83-33.17h11.9Z"/><path class="cls-11" d="M438.12,339.35h-26V339a11.19,11.19,0,0,1,3-7.64,9.83,9.83,0,0,1,7.16-3.16h15.87Z"/><path class="cls-12" d="M441.47,196.93,439.54,318.8a2.83,2.83,0,0,1-.23,1.11,2.76,2.76,0,0,1-.64.93,2.49,2.49,0,0,1-.93.57,2.39,2.39,0,0,1-1.06.13l-9.43-.91a2.59,2.59,0,0,1-1.64-.82,3,3,0,0,1-.75-1.76l-5.52-76a.74.74,0,0,0-.2-.49.62.62,0,0,0-.47-.19.64.64,0,0,0-.46.21.72.72,0,0,0-.18.5l-2.77,77.76a2.85,2.85,0,0,1-.8,1.91,2.52,2.52,0,0,1-1.82.79H402.52a2.54,2.54,0,0,1-1.8-.76,2.92,2.92,0,0,1-.82-1.88l-7.08-123.65L434.89,185Z"/><path class="cls-9" d="M411,82.5c8.92,0,16.15-7.72,16.15-17.24S419.87,48,411,48,394.8,55.75,394.8,65.26,402,82.5,411,82.5Z"/><path class="cls-10" d="M391.38,200.55a3,3,0,0,1-.66-1,3.3,3.3,0,0,1-.24-1.21l-1.09-83.1a21,21,0,0,1,3.41-11.82A18.88,18.88,0,0,1,402.07,96c1.51-7.33,9.56-8.24,14.26-8.13a6.82,6.82,0,0,1,3.34,1,7.46,7.46,0,0,1,2.56,2.5l3.36,5.39,7.42,4.64a19.59,19.59,0,0,1,7.73,9.27A21.27,21.27,0,0,1,441.87,123l-1.14,5.54a135.62,135.62,0,0,0,1.11,59.4l2.3,9.35a3.41,3.41,0,0,1,0,1.49,3.32,3.32,0,0,1-.62,1.33,3,3,0,0,1-1.12.89,2.75,2.75,0,0,1-1.38.24l-2.67-.22a2.87,2.87,0,0,1-1.84-.89,3.25,3.25,0,0,1-.88-1.94l-.44-4.72a.37.37,0,0,0-.1-.23.35.35,0,0,0-.23-.09.31.31,0,0,0-.22.09.38.38,0,0,0-.11.23l-.42,4.57a3.27,3.27,0,0,1-.95,2,2.86,2.86,0,0,1-1.95.83l-37.76.62h-.05A2.81,2.81,0,0,1,391.38,200.55Z"/><path class="cls-11" d="M412.21,75.2c.07,2.43,1.65,3.84,3.6,5.12a19.81,19.81,0,0,0,6.45,2.36,1.83,1.83,0,0,0,1.93-.05,1.93,1.93,0,0,0,.71-.76,2.27,2.27,0,0,0,.25-1l2.05-8.3a55.45,55.45,0,0,0,1.57-8.1c.49-5.27-.68-10.93-4.12-14.74s-9.42-5.17-13.55-2.23c-4.9-6.68-27.3,8.08-21.78,12.72,1,.83,2.49-.22,3.74-.32a3.65,3.65,0,0,1,1.85.15,3.88,3.88,0,0,1,1.58,1c1,1.35.59,3.36,1,5a4.79,4.79,0,0,0,.83,1.62,4.68,4.68,0,0,0,1.36,1.15,4.26,4.26,0,0,0,1.66.5,4,4,0,0,0,1.72-.22,15.19,15.19,0,0,0,2.9-2,3.62,3.62,0,0,1,1.53-.79,3.42,3.42,0,0,1,1.71,0c1.42.56,1.92,2.42,2,4a40.05,40.05,0,0,0,.94,4.76Z"/><path class="cls-1" d="M531.83,339.58H281.34a.56.56,0,0,1-.25-.05.8.8,0,0,1-.21-.15.68.68,0,0,1-.14-.23.76.76,0,0,1-.05-.27.75.75,0,0,1,.05-.26.59.59,0,0,1,.14-.23.51.51,0,0,1,.21-.15.57.57,0,0,1,.25-.06H531.83a.66.66,0,0,1,.47.21.74.74,0,0,1,0,1A.65.65,0,0,1,531.83,339.58Z"/><path class="cls-13" d="M408.44,121.38l-2.63,34.38L392,191.54l20.38-35.08Z"/><path class="cls-9" d="M388.78,204.87a7.09,7.09,0,0,0,1.79-2.39,7.37,7.37,0,0,0,.68-3,7.51,7.51,0,0,0-.56-3,7.33,7.33,0,0,0-1.7-2.46l8.79-23.25-12,2.58-6.52,21.68a7.43,7.43,0,0,0,.67,9.39,6.46,6.46,0,0,0,4.33,2,6.4,6.4,0,0,0,4.48-1.58Z"/><path class="cls-10" d="M388.14,194.62,381.36,192a3,3,0,0,1-1.61-1.52,3.32,3.32,0,0,1-.24-2.28l11.18-43.65,1.7-39.46a9.41,9.41,0,0,1,.81-3.43,8.93,8.93,0,0,1,2-2.82,8.25,8.25,0,0,1,2.85-1.8,8,8,0,0,1,6.48.42,8.36,8.36,0,0,1,2.63,2.15,8.9,8.9,0,0,1,1.65,3.06,9.46,9.46,0,0,1,.42,3.51l-3,43.2-14.25,43.3a3.25,3.25,0,0,1-.59,1.06,2.8,2.8,0,0,1-.93.75,2.75,2.75,0,0,1-1.12.3,2.81,2.81,0,0,1-1.15-.19Z"/><path class="cls-1" d="M285.5,130.85H90.89a.63.63,0,0,1-.46-.2.76.76,0,0,1-.19-.5.71.71,0,0,1,.19-.49.6.6,0,0,1,.46-.21H285.5a.74.74,0,0,1,.25.05.65.65,0,0,1,.21.16.64.64,0,0,1,.14.22.75.75,0,0,1,0,.54.79.79,0,0,1-.14.23.8.8,0,0,1-.21.15A.74.74,0,0,1,285.5,130.85Z"/></g></g></svg>