<svg xmlns="http://www.w3.org/2000/svg" viewBox="0 0 354.9 35.37"><defs><style>.cls-1{fill:#4fa3a6;}</style></defs><g id="Layer_2" data-name="Layer 2"><g id="Layer_1-2" data-name="Layer 1"><path class="cls-1" d="M19.28,1a13.31,13.31,0,0,1,7,7,12.74,12.74,0,0,1,1,5.13,12.7,12.7,0,0,1-1,5.1,13.55,13.55,0,0,1-2.83,4.17,13.35,13.35,0,0,1-4.17,2.82,12.5,12.5,0,0,1-5.09,1h-6l-1.15-6h7.14a7.07,7.07,0,0,0,2.8-.56,6.94,6.94,0,0,0,2.27-1.53,7.88,7.88,0,0,0,1.54-2.29,7,7,0,0,0,0-5.58A7.32,7.32,0,0,0,17,6.56,6.91,6.91,0,0,0,14.19,6H5.94V35.37H0V0H14.19A12.66,12.66,0,0,1,19.28,1Z"/><path class="cls-1" d="M56.22,0h5.94V35.37H56.22Z"/><path class="cls-1" d="M118.52,35.37h-6.9L104.87,23.7,98.11,35.37h-6.9l10.18-17.66L91.21,0h6.9l6.76,11.68L111.62,0h6.9L108.34,17.71Z"/><path class="cls-1" d="M172.86,17a8.55,8.55,0,0,1,3,2.84,7,7,0,0,1,1,3.72,10.14,10.14,0,0,1-.87,3.91,11.69,11.69,0,0,1-2.68,3.84,14.59,14.59,0,0,1-4.58,2.92,19.38,19.38,0,0,1-12.69.16,14.79,14.79,0,0,1-4.44-2.5,11.34,11.34,0,0,1-2.8-3.41,11.88,11.88,0,0,1-1.28-3.66l5.84-1.11a6.2,6.2,0,0,0,.41,1.49,5.41,5.41,0,0,0,1.35,1.93,8.31,8.31,0,0,0,2.68,1.67,11.55,11.55,0,0,0,4.34.7,11.23,11.23,0,0,0,4.46-.75A8.29,8.29,0,0,0,169.29,27a5.4,5.4,0,0,0,1.31-2,5.23,5.23,0,0,0,.33-1.47c0-.71-.7-1.38-2.12-2a17.47,17.47,0,0,0-6.66-.94,28.74,28.74,0,0,1-5.84-.51,16.72,16.72,0,0,1-4.05-1.33A9.34,9.34,0,0,1,149.65,17a7.8,7.8,0,0,1-1.45-2,6.6,6.6,0,0,1-.62-1.83,8.17,8.17,0,0,1-.15-1.37,10.1,10.1,0,0,1,.87-3.91A11.32,11.32,0,0,1,151,4.05a14.84,14.84,0,0,1,4.58-2.89A19.23,19.23,0,0,1,168.26,1a15.09,15.09,0,0,1,4.44,2.53,11.81,11.81,0,0,1,4.07,7l-5.84,1.16a6.25,6.25,0,0,0-.41-1.5,5.27,5.27,0,0,0-1.35-1.91,8.83,8.83,0,0,0-2.68-1.64,11.55,11.55,0,0,0-4.34-.7,11.15,11.15,0,0,0-4.42.75,8.17,8.17,0,0,0-2.67,1.73,5.58,5.58,0,0,0-1.33,1.94,4.58,4.58,0,0,0-.36,1.39,1.51,1.51,0,0,0,.46,1,4,4,0,0,0,1.49,1,12.62,12.62,0,0,0,2.73.72,25,25,0,0,0,4.1.29Q169.05,14.72,172.86,17Z"/><path class="cls-1" d="M223.44,0,241.1,35.37H205.73Zm0,12.06L214.51,30h17.86Z"/><path class="cls-1" d="M289.46,20v8.06L275.51,13.66V35.37h-5.36V0Zm1.69-20h5.35V35.37l-5.35-5.55V0Z"/><path class="cls-1" d="M350.89,17a8.55,8.55,0,0,1,3,2.84,7,7,0,0,1,1,3.72,10.14,10.14,0,0,1-.87,3.91,11.69,11.69,0,0,1-2.68,3.84,14.71,14.71,0,0,1-4.58,2.92,17.11,17.11,0,0,1-6.59,1.15,17.32,17.32,0,0,1-6.11-1,15,15,0,0,1-4.44-2.5,11.49,11.49,0,0,1-2.8-3.41,11.85,11.85,0,0,1-1.27-3.66l5.84-1.11a5.76,5.76,0,0,0,.41,1.49,5.41,5.41,0,0,0,1.35,1.93,8.37,8.37,0,0,0,2.67,1.67,11.64,11.64,0,0,0,4.35.7,11.23,11.23,0,0,0,4.46-.75A8.4,8.4,0,0,0,347.32,27a5.36,5.36,0,0,0,1.3-2,5,5,0,0,0,.34-1.47c0-.71-.71-1.38-2.12-2a17.47,17.47,0,0,0-6.66-.94,28.67,28.67,0,0,1-5.84-.51,16.72,16.72,0,0,1-4-1.33A9.34,9.34,0,0,1,327.68,17a7.8,7.8,0,0,1-1.45-2,7,7,0,0,1-.63-1.83,9.15,9.15,0,0,1-.14-1.37,10.1,10.1,0,0,1,.87-3.91A11.32,11.32,0,0,1,329,4.05a14.72,14.72,0,0,1,4.58-2.89A19.21,19.21,0,0,1,346.28,1a14.83,14.83,0,0,1,4.44,2.53,11.52,11.52,0,0,1,2.8,3.39,11.74,11.74,0,0,1,1.28,3.65L349,11.73a6.25,6.25,0,0,0-.41-1.5,5.27,5.27,0,0,0-1.35-1.91,8.83,8.83,0,0,0-2.68-1.64,11.55,11.55,0,0,0-4.34-.7,11.12,11.12,0,0,0-4.42.75,8.33,8.33,0,0,0-2.68,1.73,5.68,5.68,0,0,0-1.32,1.94,4.58,4.58,0,0,0-.36,1.39,1.54,1.54,0,0,0,.45,1,4.13,4.13,0,0,0,1.5,1,12.62,12.62,0,0,0,2.73.72,25,25,0,0,0,4.1.29Q347.08,14.72,350.89,17Z"/></g></g></svg>