<svg xmlns="http://www.w3.org/2000/svg" xmlns:xlink="http://www.w3.org/1999/xlink" viewBox="0 0 895.37 794.23"><defs><style>.cls-1{fill:url(#linear-gradient);}.cls-2{opacity:0.39;fill:url(#linear-gradient-2);}</style><linearGradient id="linear-gradient" x1="109.58" y1="708.31" x2="689.34" y2="130.93" gradientTransform="matrix(-1, 0, 0, 1, 895.37, 0)" gradientUnits="userSpaceOnUse"><stop offset="0" stop-color="#fdd190"/><stop offset="1" stop-color="#fff" stop-opacity="0"/></linearGradient><linearGradient id="linear-gradient-2" x1="72.27" y1="1172.56" x2="652.03" y2="595.18" gradientTransform="matrix(-0.91, -0.41, -0.41, 0.91, 1133.75, -222.62)" xlink:href="#linear-gradient"/></defs><g id="Layer_2" data-name="Layer 2"><g id="Layer_1-2" data-name="Layer 1"><path class="cls-1" d="M801.71,101.64c68.7,39.08,112.44,135.88,85.72,191.66C861.34,347.76,781.05,336.11,770.76,379c-12.87,53.71,109.06,88.14,113.1,163.09C888.3,624.55,748.2,720,618.38,739.73c-80.23,12.18-90.58-14.59-232.14-9.52-132.65,4.74-149.39,29.17-192.86,8.33C98.84,693.22,50.9,516.74,101.71,395.68c34.54-82.27,89.15-78.05,132.15-182.14,41.05-99.38,10.26-149.17,50-177.38C339.92-3.64,409,89.93,574.33,101.64,697.66,110.37,735,63.66,801.71,101.64Z"/><path class="cls-2" d="M852.2,271.47c46.88,63.64,47.48,169.86.39,210-46,39.15-114.6-4.14-141.44,30.88-33.6,43.84,63.8,124.87,37,195-29.46,77.12-196.28,107.39-322.89,72.62C347,758.43,348.45,729.76,217.06,676.83,93.94,627.24,68.71,642.75,37.47,606c-67.95-79.84-40-260.58,55.65-350.51,65-61.13,113.17-35.07,194.78-112.69,77.91-74.1,70-132.11,117.79-141.73,67.4-13.57,92.5,100,238.77,177.92C753.58,237.15,806.64,209.63,852.2,271.47Z"/></g></g></svg>