<svg xmlns="http://www.w3.org/2000/svg" viewBox="0 0 480.74 396.15"><defs><style>.cls-1{fill:#afe0e8;}.cls-2{fill:#457d84;}.cls-3{opacity:0.1;}.cls-4{fill:#fff;}.cls-5{fill:#d5d1de;}.cls-6{fill:#0e919b;}.cls-7{fill:#7b8dff;}.cls-8{fill:#7e72ac;}.cls-9{fill:#264248;}.cls-10{fill:#39accc;}.cls-11{fill:#8a91e6;}.cls-12{fill:#2a2e5e;}.cls-13{fill:#fdae38;}.cls-14{fill:#373c7a;}.cls-15{fill:#f7a152;}.cls-16{fill:#fe9b88;}.cls-17{opacity:0.05;}.cls-18{fill:#363a68;}.cls-19{fill:#fe8d77;}.cls-20{fill:#310047;}.cls-21{fill:#0e3266;}.cls-22{fill:#2a95ad;}.cls-23{fill:#082951;}.cls-24{fill:#eff4df;}.cls-25{fill:#cf8800;}.cls-26{fill:#ffa800;}.cls-27{fill:#a3cfd1;}.cls-28{fill:#4929cf;}.cls-29{fill:#401671;}.cls-30{fill:#24004d;}</style></defs><g id="Layer_2" data-name="Layer 2"><g id="OBJECTS"><path class="cls-1" d="M372.19,65.83C414,114.41,434.66,184.26,408,255.94c-6.66,17.94-19.37,34.29-35.41,40.66-19.49,7.76-39.36-.09-58.88-3.2-61.31-9.79-125.31,28.13-188.21,29.84-25.54.7-51.51-5.14-70.45-22.55-23.26-21.38-33-58.39-29.36-94.31C31.32,150.65,66.22,98.23,104,61.13c35.47-34.88,80.26-57.24,125-60.72C281.2-3.66,335.05,22.69,372.19,65.83Z"/><path class="cls-2" d="M180.37,157.54l9,3,1.1,25.56-.08,1.44h14s-3.62-36.81-4-38c0,0-20.82-4.78-21.17-5.16,0,0-7.12-3-7.86-2-1.16,1.53-10.81,28.85-15.54,45.17h13.57Z"/><g class="cls-3"><ellipse cx="259.55" cy="358.47" rx="221.19" ry="14.74"/></g><path class="cls-4" d="M327.68,113.89a26,26,0,0,0-5.69.63,37.55,37.55,0,0,0-69.81,0,26,26,0,0,0-31.68,25.36c0,.82.05,1.62.12,2.42a.29.29,0,0,0-.12.19c0,1.83,29.78,3.32,66.52,3.32s66.52-1.49,66.52-3.32a24.79,24.79,0,0,0,.13-2.61A26,26,0,0,0,327.68,113.89Z"/><path class="cls-4" d="M107.17,147.36a26,26,0,0,0-5.68.63,37.55,37.55,0,0,0-69.81,0A26,26,0,0,0,0,173.35a24.21,24.21,0,0,0,.12,2.42A.26.26,0,0,0,0,176c0,1.83,29.78,3.32,66.52,3.32S133,177.79,133,176c.08-.86.13-1.73.13-2.61A26,26,0,0,0,107.17,147.36Z"/><path class="cls-4" d="M439.8,169.32a26,26,0,0,0-5.68.63,37.55,37.55,0,0,0-69.81,0,26,26,0,0,0-31.68,25.36,24.21,24.21,0,0,0,.12,2.42.26.26,0,0,0-.12.19c0,1.84,29.78,3.32,66.52,3.32s66.52-1.48,66.52-3.32c.08-.85.13-1.72.13-2.61A26,26,0,0,0,439.8,169.32Z"/><path class="cls-4" d="M196.8,34.32a26,26,0,0,0-5.68.63,37.55,37.55,0,0,0-69.81,0A26,26,0,0,0,89.63,60.31a24.21,24.21,0,0,0,.12,2.42.26.26,0,0,0-.12.19c0,1.84,29.78,3.32,66.52,3.32s66.52-1.48,66.52-3.32c.08-.85.13-1.72.13-2.61A26,26,0,0,0,196.8,34.32Z"/><path class="cls-5" d="M100.52,361.64H341.26L309.32,179.2h-260L78,342.68A22.91,22.91,0,0,0,100.52,361.64Z"/><polygon class="cls-6" points="48.81 179.28 79.25 346.97 85.48 346.93 55.04 179.24 48.81 179.28"/><path class="cls-5" d="M444.75,361.64H98.49a20.47,20.47,0,0,1-20.18-16.95L77,337.19H456.28v12.92A11.53,11.53,0,0,1,444.75,361.64Z"/><path class="cls-2" d="M211.54,350.11V337.19H77l2.28,13a13.8,13.8,0,0,0,13.6,11.41H223.08A11.54,11.54,0,0,1,211.54,350.11Z"/><polygon class="cls-6" points="77.66 341 456.28 341 456.28 337.19 76.99 337.19 77.66 341"/><polygon class="cls-7" points="326.99 328.54 302.34 187.77 66.76 187.77 91.4 328.54 326.99 328.54"/><path class="cls-8" d="M188.75,184.1l-.18-1a1.36,1.36,0,0,0-1.34-1.13h-3.52a1.36,1.36,0,0,0-1.34,1.6l.18,1a1.35,1.35,0,0,0,1.34,1.13h3.52A1.36,1.36,0,0,0,188.75,184.1Z"/><polygon class="cls-8" points="118.84 347.08 102.81 347.08 103.63 351.76 119.66 351.76 118.84 347.08"/><polygon class="cls-8" points="141.04 347.08 125.01 347.08 125.83 351.76 141.86 351.76 141.04 347.08"/><polygon class="cls-9" points="327.14 324.55 98.9 324.55 77.16 198.93 305.4 198.93 327.14 324.55"/><polygon class="cls-2" points="306.39 204.56 69.55 204.56 66.58 187.77 303.43 187.77 306.39 204.56"/><polygon class="cls-10" points="320.71 298.4 284.98 298.4 270.37 215.56 306.1 215.56 320.71 298.4"/><path class="cls-11" d="M300,199.41a.54.54,0,0,1-.34-.12l-5.44-4.63a.51.51,0,1,1,.67-.78l5.44,4.62a.52.52,0,0,1,.06.73A.51.51,0,0,1,300,199.41Z"/><path class="cls-11" d="M295.37,199.41a.54.54,0,0,1-.33-.12.52.52,0,0,1-.07-.73l3.81-4.62a.52.52,0,0,1,.8.66l-3.81,4.62A.5.5,0,0,1,295.37,199.41Z"/><polygon class="cls-12" points="127.86 219.1 99.15 219.1 98.48 215.29 127.19 215.29 127.86 219.1"/><polygon class="cls-13" points="130.38 233.37 101.67 233.37 98.98 218.13 127.69 218.13 130.38 233.37"/><polygon class="cls-12" points="131.05 237.17 102.34 237.17 101.67 233.37 130.38 233.37 131.05 237.17"/><polygon class="cls-13" points="133.56 251.44 104.86 251.44 102.17 236.21 130.88 236.21 133.56 251.44"/><path class="cls-11" d="M290.26,199.44h-4.69a.52.52,0,0,1-.51-.42l-.82-4.69a.51.51,0,0,1,.11-.43.54.54,0,0,1,.4-.18h4.69a.52.52,0,0,1,.51.43l.82,4.69a.5.5,0,0,1-.11.42A.5.5,0,0,1,290.26,199.44Zm-4.25-1h3.64l-.65-3.66h-3.64Z"/><polygon class="cls-2" points="327.84 328.54 91 328.54 89.59 320.55 326.44 320.55 327.84 328.54"/><polygon class="cls-2" points="100.77 320.55 89.59 320.55 69.55 204.56 80.73 204.56 100.77 320.55"/><polygon class="cls-6" points="309.08 232.45 273.35 232.45 272.8 229.33 308.53 229.33 309.08 232.45"/><polygon class="cls-6" points="312.05 249.34 276.33 249.34 275.78 246.22 311.5 246.22 312.05 249.34"/><polygon class="cls-6" points="315.03 266.22 279.3 266.22 278.75 263.1 314.48 263.1 315.03 266.22"/><polygon class="cls-6" points="318.01 283.11 282.28 283.11 281.73 279.99 317.46 279.99 318.01 283.11"/><polygon class="cls-4" points="281.44 302.83 146.06 302.83 130.63 215.28 266 215.28 281.44 302.83"/><polygon class="cls-5" points="115.85 330.92 111.07 329.98 116.38 318.62 120.45 320.93 115.85 330.92"/><path class="cls-12" d="M129.08,336.91c0-1.42-.58-5.55-3.58-5.55l-5-.07-1-3.56c-.35-1.17-1.55-1.29-1.79-.77-.86,1.77-1.09,2.58-2.12,2.64l-3.8-.05c-1.67,0-1.57,1-1.58,2.19,0,0-.05,4.17,0,5.17Z"/><path class="cls-14" d="M123.9,336.91h5.18c0-1.42-.58-5.55-3.58-5.55l-1.6,0Z"/><polygon class="cls-14" points="129.18 338.19 110.23 338.19 110.14 336.83 129.09 336.83 129.18 338.19"/><path class="cls-15" d="M111.68,322.61l8.77,2.16c26.69-50.58-11.59-40.59-37.77-19.11l7.88,7.13c9.89-9,25-17.36,29.3-14.28C122.44,300.36,118.75,309,111.68,322.61Z"/><path class="cls-16" d="M103.21,294.11a11.4,11.4,0,0,1-4.41-.86c-6.68-2.77-9.76-11.58-9.17-26.19a2.38,2.38,0,1,1,4.76.19c-.49,12.06,1.72,19.73,6.23,21.6,4.34,1.8,11.55-1.64,17.95-8.56a2.38,2.38,0,0,1,3.5,3.23C117,289,109.81,294.11,103.21,294.11Z"/><polygon class="cls-5" points="68.62 289.27 68.47 264.75 145.34 264.81 145.49 289.32 68.62 289.27"/><rect class="cls-5" x="45.63" y="260.09" width="24.52" height="33.98" transform="translate(334.61 217.48) rotate(89.65)"/><polygon class="cls-6" points="168.83 275.91 145.34 264.81 145.49 289.32 168.83 279.25 168.83 275.91"/><path class="cls-5" d="M144.65,264.9h0c5,0,5.14,24.27.15,24.3h0C139.8,289.24,139.65,264.93,144.65,264.9Z"/><path class="cls-8" d="M165.2,274.19a26.5,26.5,0,0,1,.06,6.6l4.63-1.68a1.73,1.73,0,0,0,.06-3Z"/><path class="cls-6" d="M40.83,265.05h0c5-.06,5.3,24.45.31,24.51h0C36.15,289.63,35.84,265.11,40.83,265.05Z"/><path class="cls-8" d="M116.4,268.21H105.14a1.79,1.79,0,1,0,0,3.58H116.4Z"/><path class="cls-8" d="M130,268.21H118.75v3.58H130a1.79,1.79,0,1,0,0-3.58Z"/><path class="cls-11" d="M116.4,267H105.14a1.79,1.79,0,1,0,0,3.57H116.4Z"/><path class="cls-11" d="M130,267H118.75v3.57H130a1.79,1.79,0,1,0,0-3.57Z"/><path class="cls-8" d="M40.87,272.69h0c1.83,0,1.89,9,.06,9h0C39.1,281.69,39,272.7,40.87,272.69Z"/><g class="cls-17"><path d="M170.73,278.05a1.72,1.72,0,0,0-.78-1.94l-4.75-1.92-19.86-9.38v0l-70.54-.05v0l-6.33,0h0l-27.65.18c-2.61,0-3.81,6.72-3.65,13.12Z"/></g><g class="cls-3"><path d="M40,391c0,2.85,18.69,5.16,41.75,5.16s41.75-2.31,41.75-5.16-18.7-5.15-41.75-5.15S40,388.15,40,391Z"/></g><path class="cls-18" d="M74.2,384H68.13V379.9a1.56,1.56,0,0,1,1.55-1.56h3a1.55,1.55,0,0,1,1.55,1.56Z"/><rect class="cls-5" x="67.23" y="371.19" width="5.2" height="11.16"/><path class="cls-12" d="M67.35,382.35h5.23a3,3,0,0,1,3,3v2.92a0,0,0,0,1,0,0H65.9a0,0,0,0,1,0,0v-4.5A1.45,1.45,0,0,1,67.35,382.35Z"/><polygon class="cls-14" points="65.91 388.29 75.6 388.29 75.7 390.01 66 390.01 65.91 388.29"/><path class="cls-15" d="M73.32,376.77H66L64.8,305H74.88Z"/><path class="cls-15" d="M65.61,313c6.47,2.18,27.07.12,27.15.1l.83-12.57s-23.69-5.58-29.4-.57C62.25,301.62,63,312.09,65.61,313Z"/><path class="cls-2" d="M93.59,300.49l-29.4-.57L63,263.13a11.38,11.38,0,0,1,11.37-11.38H84.6c6.28,0,10.44,4.17,10.44,10.45Z"/><path class="cls-16" d="M101.92,294l-.31,0a10.85,10.85,0,0,1-4.72-1.78,13,13,0,0,1-4-4.47c-2.55-4.54-3.65-11.5-3.28-20.69a2.38,2.38,0,1,1,4.76.19c-.34,8.3.56,14.41,2.67,18.16a8.38,8.38,0,0,0,2.5,2.87,6.05,6.05,0,0,0,2.67,1,2.38,2.38,0,0,1-.31,4.74Z"/><path class="cls-6" d="M95.42,273.7s-6.45.28-9.83,0a17.63,17.63,0,0,1-.35-10.25,17.13,17.13,0,0,1,5.28-8.63C91.26,254.14,96.74,268.3,95.42,273.7Z"/><path class="cls-19" d="M88.2,241.21H87.07V236h1.49l1.11,3a1.63,1.63,0,0,1-1.32,2.19Z"/><path class="cls-16" d="M84,250.18H78.34V230.74H88.56c.17,0,.26,13.36.26,13.36C88.82,248.58,86.82,250.18,84,250.18Z"/><path class="cls-20" d="M88.78,234.81h-.47a.31.31,0,0,1-.31-.31h0a.31.31,0,0,1,.31-.31h.47a.31.31,0,0,1,.31.31h0A.31.31,0,0,1,88.78,234.81Z"/><path class="cls-14" d="M86.39,222H76.67a4.21,4.21,0,0,0-.62,0c-.27,0-.53,0-.8,0h0a10.08,10.08,0,0,0-10.08,10.08v24a10.08,10.08,0,0,0,10.08,10.08h0A10.08,10.08,0,0,0,85.33,256.1V233.81a1.23,1.23,0,0,1,1.23-1.23h0a5.29,5.29,0,0,0,5.23-6.07A5.4,5.4,0,0,0,86.39,222Z"/><rect class="cls-5" x="344.35" y="330.31" width="5.37" height="11.54" transform="translate(6.86 679.1) rotate(-89.32)"/><path class="cls-14" d="M334.5,325.67c.38.06,6.09-2.63,6.05.46v3.49l3.66,1.13a1.51,1.51,0,0,1,1.21,1.3v.83c0,.21-.12.28-.35.29-1.92.11-2.85.27-2.84,1.3v4.23c0,1.72-1,1.61-2.29,1.61,0,0-4.31,0-5.34,0Z"/><path class="cls-12" d="M334.7,340.29l.17-14.22,5.68.06v-1.66c0-3-4.09-3.68-5.62-3.76h0l-1.5,0-.23,19.59Z"/><rect class="cls-5" x="353.67" y="340.19" width="5.37" height="11.54" transform="translate(301.91 839.63) rotate(-127.86)"/><path class="cls-14" d="M340.07,345.63c.33-.2,3.12-5.85,5-3.41l2.18,2.72,3.56-1.39a1.51,1.51,0,0,1,1.76.26l.53.64c.13.16.08.29-.09.45-1.44,1.28-2.06,2-1.42,2.79l2.64,3.31c1.05,1.35.2,1.89-.79,2.68,0,0-3.38,2.68-4.2,3.31Z"/><path class="cls-12" d="M349.33,356.94l-8.73-11.23,4.49-3.49-1-1.29c-1.87-2.41-5.49-.34-6.74.56v0l-1.19.93,12,15.46Z"/><polygon class="cls-14" points="422.27 334.79 450.63 334.79 451.62 320.38 422.61 324.78 422.27 334.79"/><path class="cls-15" d="M429.92,340.41c.45.13-.4-7.83,5.48-10.48-37-26.81-33.15-27.15-73.53,5.28l6.89,8.28C405.23,314.59,394.11,317.53,429.92,340.41Z"/><path class="cls-16" d="M380,287.79a2.46,2.46,0,0,1-2.14-1.24l-1.17-2a2.47,2.47,0,0,1,4.28-2.45l1.17,2.05a2.47,2.47,0,0,1-.92,3.36A2.42,2.42,0,0,1,380,287.79Z"/><path class="cls-15" d="M443.5,340.54H350.37v-10l103-2v2A10,10,0,0,1,443.5,340.54Z"/><path class="cls-15" d="M405.83,311.06c-11.09-3.28-25.43,9-50.16,28.9l6.89,8.28c21.58-17.11,32.7-27.8,40.54-25.07Z"/><polygon class="cls-15" points="453.37 331.54 423.37 333.54 423.37 318.54 453.37 318.54 453.37 331.54"/><path class="cls-21" d="M439.72,292.09h0a14.74,14.74,0,0,1-14.87-14.62l-.18-21.08a14.74,14.74,0,0,1,14.62-14.87h0a14.75,14.75,0,0,1,14.88,14.62l.18,21.08A14.75,14.75,0,0,1,439.72,292.09Z"/><path class="cls-19" d="M414.41,296.42a11.57,11.57,0,0,1-1.62-.11c-9.32-1.16-17.16-11.49-18.62-20.4l4.7-.77c1.16,7.05,7.61,15.58,14.51,16.45,6.18.78,10.19-5.23,12.45-10.4l4.36,1.91C425.3,294.28,418.73,296.42,414.41,296.42Z"/><path class="cls-22" d="M434.38,285.53c-1.36,4.59-3.24,6.66-6.84,9.82-5.15-1.62-6.7-3.41-7.51-6.92a56.27,56.27,0,0,0,4-8.72C428.3,280.92,430.71,283,434.38,285.53Z"/><path class="cls-10" d="M456.37,324.54a58.12,58.12,0,0,1-33-3l-.31-37.74a11.76,11.76,0,0,1,12-11.55l10.53.19a11.76,11.76,0,0,1,11.55,12Z"/><path class="cls-19" d="M440.23,262l4,.07L444,274.36a4.25,4.25,0,0,1-4.32,4.17h0a4.23,4.23,0,0,1-4.17-4.32l.1-6Z"/><path class="cls-19" d="M427.92,255.58l.13,5.78a2.78,2.78,0,0,1-2.21-2.39l0-1.13A2.5,2.5,0,0,1,427.92,255.58Z"/><path class="cls-16" d="M427.89,263.72l-.13-8.57c.08-4.27,1.26-6.78,5-6.64l11.85.18,0,14C444.37,273.45,428.1,273.58,427.89,263.72Z"/><path class="cls-23" d="M431.49,258.58a.85.85,0,0,1-1.69,0,.84.84,0,0,1,.86-.83A.85.85,0,0,1,431.49,258.58Z"/><path class="cls-23" d="M438.13,258.68a.84.84,0,1,1-.83-.86A.85.85,0,0,1,438.13,258.68Z"/><path class="cls-24" d="M438.69,261.69a5.2,5.2,0,0,1-5,4.11c-2.3,0-3.83-1.86-4.21-4.25Z"/><path class="cls-19" d="M433.74,261.32h0c-.47,0-1.05-.07-1.3-.46s0-1.16.44-2.28l.36-.89a.3.3,0,0,1,.38-.16.29.29,0,0,1,.16.38c-.12.33-.25.62-.36.89-.34.82-.64,1.52-.49,1.74,0,.06.21.18.82.19a.3.3,0,0,1,.29.3A.29.29,0,0,1,433.74,261.32Z"/><path class="cls-16" d="M445.38,255.75h-.9l-.09,5.89.9,0a2.39,2.39,0,0,0,2.42-2.35v-1.13A2.38,2.38,0,0,0,445.38,255.75Z"/><path class="cls-21" d="M444,253.73l-8.37-.44a3,3,0,0,1-2.79-3.14h0c.09-1.63.06-5.08,1.7-5l6.39,2.48a3,3,0,0,1,2.79,3.14h0C443.63,252.43,445.65,253.83,444,253.73Z"/><path class="cls-21" d="M438.14,256.34h0l-1.56-.09a.29.29,0,0,1-.28-.31.27.27,0,0,1,.31-.27l1.56.09a.28.28,0,0,1,.28.3A.29.29,0,0,1,438.14,256.34Z"/><path class="cls-21" d="M431.27,256.1h0l-1.56-.09a.29.29,0,0,1-.28-.3.3.3,0,0,1,.31-.28l1.57.09a.29.29,0,0,1,0,.58Z"/><path class="cls-21" d="M442.43,248l-.13,8.89a3.28,3.28,0,0,0,3.23,3.33h0c1.8,0,3.67.45,3.7-1.35l-.31-7.49a3.28,3.28,0,0,0-3.23-3.33Z"/><path class="cls-19" d="M439.25,282.09h0a10,10,0,0,0,10.12-8.94,11.82,11.82,0,0,0-3.82-.71L435,272.25a11.87,11.87,0,0,0-5.48,1.25A10,10,0,0,0,439.25,282.09Z"/><rect class="cls-2" x="317.43" y="229.76" width="99.89" height="80.53" transform="translate(86.44 -89.08) rotate(15.65)"/><rect class="cls-4" x="323.24" y="236.34" width="88.26" height="67.37" transform="translate(86.44 -89.08) rotate(15.65)"/><polygon class="cls-13" points="406.82 292.81 394.88 252.16 358.62 285.21 348.99 252.4 318.77 279.94 315.79 290.56 400.78 314.36 406.82 292.81"/><path class="cls-16" d="M419.44,314.81a65.72,65.72,0,0,1-18.54-3,2.46,2.46,0,1,1,1.4-4.72c14.21,4.23,25.38,3.7,33.18-1.57,9.43-6.36,11.47-17.89,11.91-22.55a2.46,2.46,0,1,1,4.9.47c-.5,5.35-2.89,18.63-14.05,26.16Q430.49,314.82,419.44,314.81Z"/><path class="cls-10" d="M450.21,275.19c-.16.13-7.94,17.83-7.94,17.82,1.08,3.18,5.26,5,8.44,4.57s4.67-16,5-17.3Z"/><path class="cls-19" d="M234.67,152.88c-4.5,0-18.35-2.62-22.19-33.8l4.72-.58c2.72,22,10.82,29.71,17.58,29.61s12.87-7.72,13.71-17.3l4.74.41c-1.06,12.18-9,21.49-18.36,21.65Z"/><path class="cls-25" d="M207.62,118.6c-1.06,4.67.49,9.17,2.07,13.68,3.11.94,8.42-1.14,9.64-2.68-1.07-2.65-.36-6.74.22-10.34A34.16,34.16,0,0,0,207.62,118.6Z"/><path class="cls-26" d="M170.9,142.37s17.33,11.88,29.45,9.9l18-29.61a11.76,11.76,0,0,0-4.74-15.94l-9.26-5a11.76,11.76,0,0,0-15.94,4.74Z"/><path class="cls-19" d="M214.66,94.19l-3.8-2.06-6.32,11.68a4.58,4.58,0,0,0,1.85,6.22h0a4.6,4.6,0,0,0,6.23-1.85l3.08-5.7Z"/><path class="cls-19" d="M227.91,97.53l-3.13,5.27a3,3,0,0,0,3.29-1.06l.57-1.06A2.63,2.63,0,0,0,227.91,97.53Z"/><path class="cls-16" d="M223.7,105.06l4.59-7.85c2.14-4,2.37-6.91-1.13-8.71l-11-6-7.28,13C203.42,105.45,218.37,114.05,223.7,105.06Z"/><path class="cls-23" d="M223.06,98.43a.88.88,0,0,0,.36,1.21.89.89,0,0,0,1.21-.35.88.88,0,0,0-.36-1.21A.89.89,0,0,0,223.06,98.43Z"/><path class="cls-23" d="M216.87,95.06a.91.91,0,0,0,.36,1.22.9.9,0,0,0,1.21-.36.88.88,0,0,0-.35-1.21A.9.9,0,0,0,216.87,95.06Z"/><path class="cls-24" d="M214.79,97.55a5.55,5.55,0,0,0,2.5,6.43c2.14,1.16,4.51.27,6.11-1.74Z"/><path class="cls-19" d="M220.74,99.7a1.81,1.81,0,0,1-.92-.33.31.31,0,0,1,.33-.53c.32.2.57.28.69.22.32-.17.39-1.31.45-2.41a.31.31,0,1,1,.62,0c-.09,1.56-.15,2.59-.78,2.92A.86.86,0,0,1,220.74,99.7Z"/><path class="cls-21" d="M219.73,93.68a.35.35,0,0,1-.14,0l-1.49-.74a.3.3,0,0,1-.14-.41.3.3,0,0,1,.41-.14l1.5.73a.31.31,0,0,1-.14.59Z"/><path class="cls-21" d="M226.19,97a.31.31,0,0,1-.13,0l-1.5-.74a.31.31,0,1,1,.28-.55l1.49.73a.31.31,0,0,1-.14.59Z"/><path class="cls-21" d="M219.21,83l-3.82,7.29c-.93,1.69-4.12,3.86-6.29,2.68-1.11-.6-4.67-1.81-2.58-6.21.78-1.64,1.56-2.94,2.66-4.85,1.22-2.13,4-2.19,6.13-1Z"/><path class="cls-16" d="M212.13,88.82l1,.54-3,5.49-1-.54a2.79,2.79,0,0,1-1.43-3.65l.58-1.06A2.78,2.78,0,0,1,212.13,88.82Z"/><path class="cls-21" d="M232.53,84.51l-10.88-6.08a5.32,5.32,0,0,0-7,1.49,5.2,5.2,0,0,0-.16,5.71l0,.05-3.67,6.24a1.46,1.46,0,0,0,.65,2h0a1.48,1.48,0,0,0,2-.4l2.54-4.31a1.74,1.74,0,0,1,2.34-.63l8.9,5a5.34,5.34,0,0,0,7.07-1.62A5.22,5.22,0,0,0,232.53,84.51Z"/><path class="cls-16" d="M251.23,132.26a2.46,2.46,0,0,1-1.7-4.25l1.7-1.62a2.46,2.46,0,0,1,3.4,3.56l-1.71,1.63A2.44,2.44,0,0,1,251.23,132.26Z"/><polygon class="cls-5" points="212.44 165.31 239.74 187.44 309.85 100.92 309.79 98.05 282.54 78.79 212.38 162.45 212.44 165.31"/><rect class="cls-4" x="243.51" y="74.57" width="35.15" height="111.36" transform="translate(381.94 395.81) rotate(-140.98)"/><path class="cls-21" d="M296.32,96.85a4.35,4.35,0,1,0,6.13-.65A4.35,4.35,0,0,0,296.32,96.85Z"/><path class="cls-14" d="M299.69,105.09a5.5,5.5,0,0,1-4.26-9h0a5.5,5.5,0,1,1,8.54,6.92,5.42,5.42,0,0,1-3.69,2A3.9,3.9,0,0,1,299.69,105.09Zm-2.49-7.53a3.22,3.22,0,0,0,2.84,5.23,3.21,3.21,0,0,0,1.69-5.7,3.22,3.22,0,0,0-4.53.47Z"/><rect class="cls-13" x="263.36" y="99.78" width="30.35" height="17.87" transform="translate(426.52 368.52) rotate(-140.98)"/><path class="cls-27" d="M282.63,126.9a.58.58,0,0,1-.37-.13L268,115.23a.58.58,0,1,1,.73-.91L283,125.86a.59.59,0,0,1,.08.83A.57.57,0,0,1,282.63,126.9Z"/><rect class="cls-2" x="248.94" y="117.58" width="30.35" height="17.87" transform="translate(389.68 391.08) rotate(-140.98)"/><path class="cls-2" d="M268.2,144.71a.61.61,0,0,1-.36-.13L253.59,133a.59.59,0,0,1-.09-.82.6.6,0,0,1,.83-.09l14.24,11.54a.59.59,0,0,1,.09.83A.61.61,0,0,1,268.2,144.71Z"/><rect class="cls-14" x="234.51" y="135.38" width="30.35" height="17.87" transform="translate(352.84 413.63) rotate(-140.99)"/><path class="cls-27" d="M253.78,162.51a.58.58,0,0,1-.37-.13l-14.24-11.54a.6.6,0,0,1-.09-.83.59.59,0,0,1,.83-.08l14.24,11.54a.59.59,0,0,1,.09.82A.61.61,0,0,1,253.78,162.51Z"/><rect class="cls-10" x="220.09" y="153.19" width="30.35" height="17.87" transform="translate(316 436.19) rotate(-140.98)"/><path class="cls-27" d="M239.36,180.31a.58.58,0,0,1-.37-.13l-14.25-11.54a.58.58,0,0,1-.08-.82.59.59,0,0,1,.82-.09l14.25,11.54a.58.58,0,0,1,.08.82A.55.55,0,0,1,239.36,180.31Z"/><path class="cls-16" d="M224.43,158a2.13,2.13,0,0,1-.55-.07c-16-3.64-26.53-10.46-31.43-20.27-6-12.05-1.58-24.78.62-29.69a2.46,2.46,0,1,1,4.49,2c-1.9,4.28-5.79,15.32-.71,25.49,4.21,8.43,13.68,14.37,28.13,17.67a2.47,2.47,0,0,1-.55,4.87Z"/><path class="cls-26" d="M198.92,101.82c.08.19-.1,20.78-.1,20.77-2.5,2.24-9.51,2.87-12.08,1s4.54-18.7,4.86-20Z"/><ellipse class="cls-28" cx="195.34" cy="252.59" rx="19.33" ry="23.05" transform="translate(-122.87 226.07) rotate(-47.52)"/><polygon class="cls-13" points="251.75 289.43 212.78 231.8 194.13 289.43 251.75 289.43"/><path class="cls-2" d="M216.44,252.59a25.14,25.14,0,0,0-6.33-12.54l-10.89,33.64C210.79,273.6,218.49,264.19,216.44,252.59Z"/><polygon class="cls-29" points="172.5 229.31 170.49 231.75 167.62 229.31 169.63 226.87 172.5 229.31"/><polygon class="cls-29" points="176.59 252.49 174.58 254.93 171.71 252.49 173.72 250.05 176.59 252.49"/><polygon class="cls-29" points="180.68 275.67 178.66 278.11 175.79 275.67 177.8 273.23 180.68 275.67"/><path class="cls-29" d="M178.07,275a.68.68,0,0,1-.67-.56l-7.67-43.53a.68.68,0,0,1,.54-.79.69.69,0,0,1,.79.55l7.68,43.53a.69.69,0,0,1-.55.79Z"/><polygon class="cls-28" points="249.56 238.53 240.31 238.53 238.69 229.29 247.93 229.29 249.56 238.53"/><polygon class="cls-13" points="260.5 238.53 251.26 238.53 249.63 229.29 258.87 229.29 260.5 238.53"/><polygon class="cls-13" points="251.54 249.79 242.3 249.79 240.67 240.55 249.91 240.55 251.54 249.79"/><polygon class="cls-28" points="262.49 249.79 253.25 249.79 251.62 240.55 260.86 240.55 262.49 249.79"/><polygon class="cls-28" points="253.53 261.06 244.29 261.06 242.66 251.82 251.9 251.82 253.53 261.06"/><polygon class="cls-13" points="264.47 261.06 255.23 261.06 253.6 251.82 262.84 251.82 264.47 261.06"/><polygon class="cls-30" points="267.18 266.44 242.96 266.44 242.38 263.15 266.6 263.15 267.18 266.44"/></g></g></svg>