<svg xmlns="http://www.w3.org/2000/svg" viewBox="0 0 1082 313"><defs><style>.cls-1{fill:none;stroke:#264248;stroke-width:5px;}.cls-2{fill:#fff;}.cls-3{fill:#264248;}</style></defs><g id="Layer_2" data-name="Layer 2"><g id="Layer_1-2" data-name="Layer 1"><line class="cls-1" x1="350.67" y1="195.57" x2="519.49" y2="88.89"/><line class="cls-1" x1="528.22" y1="103.82" x2="705.22" y2="202.82"/><line class="cls-1" x1="822.57" y1="198.44" x2="958.55" y2="103.95"/><line class="cls-1" x1="132.29" y1="136.86" x2="270.39" y2="219.73"/><path class="cls-2" d="M90,180A90,90,0,1,0,0,90,90,90,0,0,0,90,180Z"/><path class="cls-3" d="M38.84,71.52a3,3,0,0,1,1.77,1.1,3.06,3.06,0,0,1,.66,1.94,3.12,3.12,0,0,1-1.11,2.52,4.7,4.7,0,0,1-3.08.92H31.19V65.36h5.69a4.63,4.63,0,0,1,3,.89A2.89,2.89,0,0,1,41,68.64a2.83,2.83,0,0,1-.59,1.85A2.91,2.91,0,0,1,38.84,71.52Zm-4.57-1h2a1.77,1.77,0,0,0,1.15-.33,1.4,1.4,0,0,0,0-2,1.72,1.72,0,0,0-1.15-.34h-2Zm2.27,5a1.83,1.83,0,0,0,1.19-.35,1.28,1.28,0,0,0,.43-1,1.3,1.3,0,0,0-.45-1.05,1.79,1.79,0,0,0-1.21-.37H34.27v2.79ZM49.5,78l-2.63-4.77h-.73V78H43.06V65.36h5.16a5.58,5.58,0,0,1,2.54.53,3.5,3.5,0,0,1,1.59,1.44,4,4,0,0,1,.52,2,3.73,3.73,0,0,1-.72,2.25A3.84,3.84,0,0,1,50.06,73L53,78Zm-3.36-7H48a1.72,1.72,0,0,0,1.26-.41,1.55,1.55,0,0,0,.44-1.17,1.51,1.51,0,0,0-.44-1.14A1.72,1.72,0,0,0,48,67.92h-1.9Zm16.53,4.72H58L57.19,78H54l4.57-12.64h3.57L66.68,78H63.42Zm-.8-2.38-1.56-4.62-1.55,4.62Zm9.28-8V78H68.07V65.36ZM84.68,78H81.61l-5.15-7.79V78H73.38V65.36h3.08l5.15,7.83V65.36h3.07Zm6.81.13A6.54,6.54,0,0,1,89,77.68a4.09,4.09,0,0,1-1.76-1.34,3.62,3.62,0,0,1-.68-2.12h3.27a1.61,1.61,0,0,0,.49,1.08,1.57,1.57,0,0,0,1.08.36,1.71,1.71,0,0,0,1.08-.31,1.08,1.08,0,0,0,.39-.88,1,1,0,0,0-.32-.77,2.41,2.41,0,0,0-.77-.51c-.31-.13-.74-.28-1.3-.45a14.32,14.32,0,0,1-2-.75,3.65,3.65,0,0,1-1.33-1.12A3.1,3.1,0,0,1,86.59,69a3.3,3.3,0,0,1,1.28-2.76,5.22,5.22,0,0,1,3.33-1,5.32,5.32,0,0,1,3.37,1A3.56,3.56,0,0,1,95.93,69H92.6a1.25,1.25,0,0,0-.45-.95,1.55,1.55,0,0,0-1.06-.36,1.28,1.28,0,0,0-.9.31,1,1,0,0,0-.34.84,1.06,1.06,0,0,0,.58,1,9.71,9.71,0,0,0,1.79.73,15.65,15.65,0,0,1,2,.8,3.75,3.75,0,0,1,1.33,1.09,3,3,0,0,1,.56,1.86,3.61,3.61,0,0,1-.56,2A3.7,3.7,0,0,1,94,77.6,5.41,5.41,0,0,1,91.49,78.13Zm15.59-12.77v2.47h-3.35V78h-3.08V67.83H97.31V65.36Zm7.52,12.77a6.69,6.69,0,0,1-3.28-.83A6.2,6.2,0,0,1,109,75a6.5,6.5,0,0,1-.87-3.34,6.41,6.41,0,0,1,.87-3.33A6.2,6.2,0,0,1,111.32,66a6.69,6.69,0,0,1,3.28-.83,6.59,6.59,0,0,1,3.26.83,6,6,0,0,1,2.34,2.31,6.5,6.5,0,0,1,.86,3.33A6.59,6.59,0,0,1,120.2,75a6.18,6.18,0,0,1-2.34,2.31A6.59,6.59,0,0,1,114.6,78.13Zm0-2.81a3.07,3.07,0,0,0,2.41-1A4.32,4.32,0,0,0,117,69a3.07,3.07,0,0,0-2.41-1,3.18,3.18,0,0,0-2.45,1,4.46,4.46,0,0,0,0,5.37A3.18,3.18,0,0,0,114.6,75.32ZM129.22,78l-2.63-4.77h-.74V78h-3.08V65.36h5.17a5.61,5.61,0,0,1,2.54.53,3.47,3.47,0,0,1,1.58,1.44,3.91,3.91,0,0,1,.52,2,3.73,3.73,0,0,1-.72,2.25A3.77,3.77,0,0,1,129.78,73l2.91,5Zm-3.37-7h1.91a1.75,1.75,0,0,0,1.26-.41,1.55,1.55,0,0,0,.43-1.17,1.51,1.51,0,0,0-.43-1.14,1.75,1.75,0,0,0-1.26-.41h-1.91Zm23-5.69V78h-3.08V70.42L142.92,78h-2.48l-2.85-7.6V78h-3.07V65.36h3.63l3.55,8.75,3.51-8.75Zm-83,18L62.51,96H58.79l-2-8.32L54.68,96H51L47.75,83.36h3.3l1.81,9.2,2.25-9.2H58.5l2.16,9.2,1.83-9.2Zm4.62,0V96H67.35V83.36Zm11.32,0v2.47H78.4V96H75.32V85.83H72V83.36Zm12.49,0V96H91.16V90.8H86.37V96H83.29V83.36h3.08v5h4.79v-5Zm15.12,0v2.47H106V96h-3.08V85.83H99.59V83.36Zm12.49,0V96h-3.08V90.8H114V96h-3.08V83.36H114v5h4.78v-5Zm5.3,2.47v2.56h4.12v2.37h-4.12v2.77h4.67V96h-7.75V83.36h7.75v2.47ZM59.84,107.66a6.78,6.78,0,0,1,.81-3.33,5.74,5.74,0,0,1,2.25-2.28,6.57,6.57,0,0,1,3.3-.83,6.3,6.3,0,0,1,3.85,1.19,5.73,5.73,0,0,1,2.14,3.24H68.81a2.84,2.84,0,0,0-1.08-1.21,3,3,0,0,0-1.57-.41,2.92,2.92,0,0,0-2.3,1,4.38,4.38,0,0,0,0,5.29,2.92,2.92,0,0,0,2.3,1,3,3,0,0,0,1.57-.41,2.84,2.84,0,0,0,1.08-1.21h3.38a5.73,5.73,0,0,1-2.14,3.24,6.35,6.35,0,0,1-3.85,1.17,6.67,6.67,0,0,1-3.3-.81A5.83,5.83,0,0,1,60.65,111,6.73,6.73,0,0,1,59.84,107.66Zm17.31,4h4V114H74.07V101.36h3.08Zm8.58-10.26V114H82.65V101.36ZM91,103.83v2.56h4.12v2.37H91v2.77H95.7V114H88V101.36H95.7v2.47ZM109,114h-3.07l-5.15-7.79V114H97.7V101.36h3.08l5.15,7.83v-7.83H109Zm11.32-12.64v2.47H117V114H113.9V103.83h-3.35v-2.47Z"/><path class="cls-2" d="M296,313a90,90,0,1,0-90-90A90,90,0,0,0,296,313Z"/><path class="cls-3" d="M244,200.36v7.56a2.52,2.52,0,0,0,.56,1.75,2.1,2.1,0,0,0,1.64.61,2.14,2.14,0,0,0,1.65-.61,2.43,2.43,0,0,0,.58-1.75v-7.56h3.08v7.55a5.37,5.37,0,0,1-.72,2.86,4.54,4.54,0,0,1-2,1.76,6,6,0,0,1-2.7.6,6.13,6.13,0,0,1-2.68-.58,4.42,4.42,0,0,1-1.85-1.76,5.69,5.69,0,0,1-.69-2.88v-7.55Zm21,12.64h-3.08l-5.14-7.79V213h-3.08V200.36h3.08l5.14,7.83v-7.83h3.08Zm7-12.64a7.34,7.34,0,0,1,3.49.8,5.5,5.5,0,0,1,2.3,2.23,6.43,6.43,0,0,1,.83,3.29,6.52,6.52,0,0,1-.83,3.3,5.55,5.55,0,0,1-2.32,2.23,7.28,7.28,0,0,1-3.47.79h-4.74V200.36Zm-.2,10a3.72,3.72,0,0,0,2.72-1,3.62,3.62,0,0,0,1-2.7,3.37,3.37,0,0,0-3.69-3.69h-1.46v7.35Zm11.62-7.51v2.56h4.12v2.37h-4.12v2.77H288V213h-7.74V200.36H288v2.47ZM296.41,213l-2.62-4.77h-.74V213H290V200.36h5.17a5.57,5.57,0,0,1,2.53.53,3.5,3.5,0,0,1,1.59,1.44,3.91,3.91,0,0,1,.52,2,3.73,3.73,0,0,1-.72,2.25A3.8,3.8,0,0,1,297,208l2.92,5Zm-3.36-6.95H295a1.75,1.75,0,0,0,1.26-.41,1.59,1.59,0,0,0,.43-1.17,1.55,1.55,0,0,0-.43-1.14,1.75,1.75,0,0,0-1.26-.41h-1.91Zm13.23,7.08a6.49,6.49,0,0,1-2.48-.45,4.09,4.09,0,0,1-1.76-1.34,3.63,3.63,0,0,1-.69-2.12h3.28a1.65,1.65,0,0,0,.48,1.08,1.6,1.6,0,0,0,1.08.36,1.67,1.67,0,0,0,1.08-.31,1.06,1.06,0,0,0,.4-.88,1,1,0,0,0-.32-.77,2.57,2.57,0,0,0-.78-.51,12.75,12.75,0,0,0-1.29-.45,13.85,13.85,0,0,1-2-.75,3.65,3.65,0,0,1-1.33-1.12,3,3,0,0,1-.56-1.92,3.27,3.27,0,0,1,1.28-2.76,6,6,0,0,1,6.69,0,3.56,3.56,0,0,1,1.37,2.77H307.4a1.25,1.25,0,0,0-.45-1,1.57,1.57,0,0,0-1.06-.36,1.28,1.28,0,0,0-.9.31,1,1,0,0,0-.34.84,1.07,1.07,0,0,0,.57,1,10.18,10.18,0,0,0,1.8.73,14.85,14.85,0,0,1,2,.8,3.66,3.66,0,0,1,1.33,1.09,2.9,2.9,0,0,1,.56,1.86,3.53,3.53,0,0,1-.56,2,3.67,3.67,0,0,1-1.58,1.4A5.45,5.45,0,0,1,306.28,213.13Zm15.6-12.77v2.47h-3.35V213h-3.08V202.83H312.1v-2.47Zm9.41,10.41h-4.72l-.75,2.23h-3.23l4.58-12.64h3.56L335.3,213H332Zm-.8-2.38-1.56-4.62-1.55,4.62ZM348,213h-3.08l-5.15-7.79V213h-3.08V200.36h3.08l5.15,7.83v-7.83H348Zm7-12.64a7.31,7.31,0,0,1,3.49.8,5.52,5.52,0,0,1,2.31,2.23,6.43,6.43,0,0,1,.82,3.29,6.52,6.52,0,0,1-.82,3.3,5.57,5.57,0,0,1-2.33,2.23A7.25,7.25,0,0,1,355,213h-4.73V200.36Zm-.2,10a3.7,3.7,0,0,0,2.72-1,3.59,3.59,0,0,0,1-2.7,3.37,3.37,0,0,0-3.69-3.69H353.3v7.35Zm-60.32,8v2.47h-3.35V231H288V220.83h-3.35v-2.47Zm12.48,0V231h-3.07v-5.2h-4.79V231H296V218.36h3.08v4.95h4.79v-4.95Zm5.31,2.47v2.56h4.12v2.37h-4.12v2.77h4.66V231h-7.74V218.36h7.74v2.47ZM245.77,249l-2.63-4.77h-.74V249h-3.07V236.36h5.16a5.61,5.61,0,0,1,2.54.53,3.42,3.42,0,0,1,1.58,1.44,3.92,3.92,0,0,1,.53,2,3.73,3.73,0,0,1-.72,2.25,3.84,3.84,0,0,1-2.09,1.41l2.91,5Zm-3.37-6.95h1.91a1.72,1.72,0,0,0,1.26-.41,1.55,1.55,0,0,0,.44-1.17,1.51,1.51,0,0,0-.44-1.14,1.72,1.72,0,0,0-1.26-.41H242.4Zm11.75-3.22v2.56h4.12v2.37h-4.12v2.77h4.66V249h-7.74V236.36h7.74v2.47Zm15.66,12.33L268.19,249a6.9,6.9,0,0,1-1.41.15,6.65,6.65,0,0,1-3.27-.83,6.23,6.23,0,0,1-2.36-2.31,6.49,6.49,0,0,1-.86-3.34,6.41,6.41,0,0,1,.86-3.33,6.23,6.23,0,0,1,2.36-2.31,6.65,6.65,0,0,1,3.27-.83A6.56,6.56,0,0,1,270,237a5.91,5.91,0,0,1,2.34,2.31,6.41,6.41,0,0,1,.86,3.33,6.67,6.67,0,0,1-.66,3,6.1,6.1,0,0,1-1.82,2.21l2.77,3.33Zm-6.38-8.51a3.88,3.88,0,0,0,.9,2.68,3.19,3.19,0,0,0,2.45,1,3.1,3.1,0,0,0,2.42-1,4.36,4.36,0,0,0,0-5.33,3.1,3.1,0,0,0-2.42-1,3.19,3.19,0,0,0-2.45,1A3.85,3.85,0,0,0,263.43,242.65ZM278,236.36v7.56a2.47,2.47,0,0,0,.56,1.75,2.08,2.08,0,0,0,1.63.61,2.17,2.17,0,0,0,1.66-.61,2.48,2.48,0,0,0,.58-1.75v-7.56h3.07v7.55a5.37,5.37,0,0,1-.72,2.86,4.58,4.58,0,0,1-1.94,1.76,6,6,0,0,1-2.7.6,6.1,6.1,0,0,1-2.68-.58,4.5,4.5,0,0,1-1.86-1.76,5.79,5.79,0,0,1-.68-2.88v-7.55Zm12.74,0V249h-3.08V236.36ZM299.44,249l-2.63-4.77h-.74V249H293V236.36h5.17a5.64,5.64,0,0,1,2.54.53,3.52,3.52,0,0,1,1.58,1.44,3.91,3.91,0,0,1,.52,2,3.73,3.73,0,0,1-.72,2.25A3.8,3.8,0,0,1,300,244l2.92,5Zm-3.37-6.95H298a1.75,1.75,0,0,0,1.26-.41,1.55,1.55,0,0,0,.43-1.17,1.51,1.51,0,0,0-.43-1.14,1.75,1.75,0,0,0-1.26-.41h-1.91Zm11.74-3.22v2.56h4.12v2.37h-4.12v2.77h4.67V249h-7.75V236.36h7.75v2.47Zm21-2.47V249H325.7v-7.58L322.88,249h-2.49l-2.84-7.6V249h-3.08V236.36h3.64l3.54,8.75,3.52-8.75Zm5.3,2.47v2.56h4.12v2.37h-4.12v2.77h4.66V249H331V236.36h7.74v2.47ZM352,249H349l-5.15-7.79V249h-3.08V236.36h3.08l5.15,7.83v-7.83H352Zm11.32-12.64v2.47H360V249h-3.08V238.83h-3.34v-2.47Z"/><path class="cls-2" d="M526,180a90,90,0,1,0-90-90A90,90,0,0,0,526,180Z"/><path class="cls-3" d="M498.13,83.36a7.34,7.34,0,0,1,3.49.8,5.56,5.56,0,0,1,2.3,2.23,6.43,6.43,0,0,1,.83,3.29,6.52,6.52,0,0,1-.83,3.3,5.55,5.55,0,0,1-2.32,2.23,7.28,7.28,0,0,1-3.47.79h-4.74V83.36Zm-.2,10a3.72,3.72,0,0,0,2.72-1,3.62,3.62,0,0,0,1-2.7A3.37,3.37,0,0,0,497.93,86h-1.46v7.35Zm11.62-7.51v2.56h4.12v2.37h-4.12v2.77h4.66V96h-7.74V83.36h7.74v2.47Zm11.23,10.3a6.49,6.49,0,0,1-2.48-.45,4.18,4.18,0,0,1-1.77-1.34,3.62,3.62,0,0,1-.68-2.12h3.28a1.44,1.44,0,0,0,1.56,1.44,1.67,1.67,0,0,0,1.08-.31,1.06,1.06,0,0,0,.4-.88,1,1,0,0,0-.33-.77,2.41,2.41,0,0,0-.77-.51,12.23,12.23,0,0,0-1.3-.45,14.13,14.13,0,0,1-2-.75,3.76,3.76,0,0,1-1.34-1.12,3.1,3.1,0,0,1-.55-1.92,3.29,3.29,0,0,1,1.27-2.76,6.06,6.06,0,0,1,6.7,0A3.56,3.56,0,0,1,525.23,87H521.9a1.32,1.32,0,0,0-.45-.95,1.57,1.57,0,0,0-1.06-.36,1.25,1.25,0,0,0-.9.31,1,1,0,0,0-.35.84,1.08,1.08,0,0,0,.58,1,9.57,9.57,0,0,0,1.8.73,14.85,14.85,0,0,1,2,.8,3.66,3.66,0,0,1,1.33,1.09,3,3,0,0,1,.56,1.86,3.61,3.61,0,0,1-.56,2,3.73,3.73,0,0,1-1.58,1.4A5.45,5.45,0,0,1,520.78,96.13Zm9.58-12.77V96h-3.08V83.36Zm10.62,4a2.22,2.22,0,0,0-1-1,3.38,3.38,0,0,0-3.89.64,3.7,3.7,0,0,0-.9,2.61,3.84,3.84,0,0,0,.94,2.74,3.49,3.49,0,0,0,2.61,1,3.14,3.14,0,0,0,1.91-.57,3.32,3.32,0,0,0,1.15-1.66H537.9V88.87h6.7v2.86a6.15,6.15,0,0,1-3.24,3.75,6.4,6.4,0,0,1-2.84.61,6.83,6.83,0,0,1-3.35-.81A5.93,5.93,0,0,1,532.88,93a7.25,7.25,0,0,1,0-6.66,5.84,5.84,0,0,1,2.29-2.28,6.64,6.64,0,0,1,3.33-.83,6.42,6.42,0,0,1,3.81,1.1,5.09,5.09,0,0,1,2.07,3ZM557.61,96h-3.08l-5.15-7.79V96H546.3V83.36h3.08l5.15,7.83V83.36h3.08Z"/><path class="cls-2" d="M759,313a90,90,0,1,0-90-90A90,90,0,0,0,759,313Z"/><path class="cls-3" d="M721.94,200.36v2.47H716.8v2.66h3.85v2.4H716.8V213h-3.08V200.36Zm4.7,2.47v2.56h4.12v2.37h-4.12v2.77h4.66V213h-7.74V200.36h7.74v2.47Zm9.74,0v2.56h4.12v2.37h-4.12v2.77H741V213H733.3V200.36H741v2.47Zm11.39-2.47a7.31,7.31,0,0,1,3.49.8,5.52,5.52,0,0,1,2.31,2.23,6.43,6.43,0,0,1,.83,3.29,6.52,6.52,0,0,1-.83,3.3,5.61,5.61,0,0,1-2.32,2.23,7.32,7.32,0,0,1-3.48.79H743V200.36Zm-.2,10a3.7,3.7,0,0,0,2.72-1,3.59,3.59,0,0,0,1-2.7,3.37,3.37,0,0,0-3.69-3.69h-1.45v7.35Zm16.2-3.82a2.91,2.91,0,0,1,1.76,1.1,3.07,3.07,0,0,1,.67,1.94,3.12,3.12,0,0,1-1.12,2.52A4.68,4.68,0,0,1,762,213h-5.88V200.36h5.68a4.62,4.62,0,0,1,3,.89,2.89,2.89,0,0,1,1.1,2.39,2.84,2.84,0,0,1-.6,1.85A2.92,2.92,0,0,1,763.77,206.52Zm-4.58-1h2a1.75,1.75,0,0,0,1.15-.33,1.38,1.38,0,0,0,0-2,1.7,1.7,0,0,0-1.15-.34h-2Zm2.27,5a1.82,1.82,0,0,0,1.19-.35,1.25,1.25,0,0,0,.43-1,1.3,1.3,0,0,0-.45-1.05,1.78,1.78,0,0,0-1.2-.37h-2.24v2.79Zm14.39.25h-4.72l-.75,2.23h-3.23l4.57-12.64h3.57L779.86,213H776.6Zm-.8-2.38-1.56-4.62-1.55,4.62Zm5.68-1.73a6.78,6.78,0,0,1,.81-3.33,5.74,5.74,0,0,1,2.25-2.28,6.57,6.57,0,0,1,3.3-.83,6.3,6.3,0,0,1,3.85,1.19,5.68,5.68,0,0,1,2.14,3.24H789.7a2.79,2.79,0,0,0-1.09-1.21,3.18,3.18,0,0,0-3.87.58,4.42,4.42,0,0,0,0,5.29,3.18,3.18,0,0,0,3.87.58,2.79,2.79,0,0,0,1.09-1.21h3.38a5.68,5.68,0,0,1-2.14,3.24,6.35,6.35,0,0,1-3.85,1.17,6.67,6.67,0,0,1-3.3-.81,5.83,5.83,0,0,1-2.25-2.29A6.73,6.73,0,0,1,780.73,206.66ZM802.29,213,798,207.42V213H795V200.36H798v5.55l4.21-5.55h3.62l-4.89,6.2,5.07,6.44ZM763.1,231l-1.17-1.13a6.71,6.71,0,0,1-4.17,1.33,6.36,6.36,0,0,1-2.54-.47,3.91,3.91,0,0,1-1.68-1.35,3.69,3.69,0,0,1-.57-2,3.79,3.79,0,0,1,.63-2.14,4.65,4.65,0,0,1,1.92-1.59,4,4,0,0,1-.66-1.1,3.2,3.2,0,0,1-.2-1.17,3,3,0,0,1,.47-1.63,3.09,3.09,0,0,1,1.35-1.16,5,5,0,0,1,2.12-.43,4.54,4.54,0,0,1,2.11.45,3,3,0,0,1,1.69,2.86h-2.9a.9.9,0,0,0-.93-1,1.08,1.08,0,0,0-.73.25.82.82,0,0,0-.28.65,1.68,1.68,0,0,0,.23.79,6.08,6.08,0,0,0,.78.95l3.07,3a1.65,1.65,0,0,0,.09-.22,2.57,2.57,0,0,0,.15-.29l.66-1.13h3.08l-.86,1.57a15.68,15.68,0,0,1-1.12,2l3,3Zm-5.2-2.29A3.5,3.5,0,0,0,760,228l-2.81-2.72a2,2,0,0,0-1.29,1.8,1.47,1.47,0,0,0,.52,1.15A2.18,2.18,0,0,0,757.9,228.71Zm-41.37,7.65V249h-3.08V236.36Zm11.32,0v2.47H724.5V249h-3.07V238.83h-3.35v-2.47Zm4.62,2.47v2.56h4.13v2.37h-4.13v2.77h4.67V249H729.4V236.36h7.74v2.47ZM745.58,249,743,244.23h-.74V249h-3.07V236.36h5.16a5.61,5.61,0,0,1,2.54.53,3.42,3.42,0,0,1,1.58,1.44,3.92,3.92,0,0,1,.53,2,3.73,3.73,0,0,1-.72,2.25,3.84,3.84,0,0,1-2.09,1.41l2.91,5Zm-3.37-6.95h1.91a1.72,1.72,0,0,0,1.26-.41,1.55,1.55,0,0,0,.43-1.17,1.51,1.51,0,0,0-.43-1.14,1.72,1.72,0,0,0-1.26-.41h-1.91Zm16.53,4.72H754l-.76,2.23h-3.22l4.57-12.64h3.57L762.76,249H759.5Zm-.79-2.38-1.56-4.62-1.55,4.62Zm15.29-8v2.47h-3.35V249h-3.08V238.83h-3.34v-2.47Zm4.62,0V249h-3.08V236.36Zm8.21,12.77a6.69,6.69,0,0,1-3.28-.83,6.3,6.3,0,0,1-2.36-2.31,6.59,6.59,0,0,1-.86-3.34,6.5,6.5,0,0,1,.86-3.33,6.3,6.3,0,0,1,2.36-2.31,6.69,6.69,0,0,1,3.28-.83,6.59,6.59,0,0,1,3.26.83,6,6,0,0,1,2.34,2.31,6.5,6.5,0,0,1,.86,3.33,6.59,6.59,0,0,1-.86,3.34,6.18,6.18,0,0,1-2.34,2.31A6.59,6.59,0,0,1,786.07,249.13Zm0-2.81a3.07,3.07,0,0,0,2.41-1,4.32,4.32,0,0,0,0-5.33,3.07,3.07,0,0,0-2.41-1,3.18,3.18,0,0,0-2.45,1,4.46,4.46,0,0,0,0,5.37A3.18,3.18,0,0,0,786.07,246.32ZM805.55,249h-3.08l-5.15-7.79V249h-3.08V236.36h3.08l5.15,7.83v-7.83h3.08Z"/><path class="cls-2" d="M992,180a90,90,0,1,0-90-90A90,90,0,0,0,992,180Z"/><path class="cls-3" d="M948.13,93.77h-4.72L942.66,96h-3.22L944,83.36h3.56L952.15,96h-3.26Zm-.79-2.38-1.57-4.62-1.55,4.62Zm15.83-4a4.1,4.1,0,0,1-.51,2,3.72,3.72,0,0,1-1.55,1.46,5.46,5.46,0,0,1-2.59.55h-1.91V96h-3.07V83.36h5a5.67,5.67,0,0,1,2.56.53,3.5,3.5,0,0,1,1.57,1.44A4.25,4.25,0,0,1,963.17,87.43ZM958.29,89a1.79,1.79,0,0,0,1.31-.42,1.52,1.52,0,0,0,.43-1.17,1.55,1.55,0,0,0-.43-1.17,1.84,1.84,0,0,0-1.31-.41h-1.68V89Zm16.11-1.59a4.2,4.2,0,0,1-.5,2,3.85,3.85,0,0,1-1.55,1.46,5.48,5.48,0,0,1-2.59.55h-1.91V96h-3.08V83.36h5a5.62,5.62,0,0,1,2.55.53,3.5,3.5,0,0,1,1.57,1.44A4.14,4.14,0,0,1,974.4,87.43ZM969.52,89a1.84,1.84,0,0,0,1.32-.42,1.56,1.56,0,0,0,.43-1.17,1.59,1.59,0,0,0-.43-1.17,1.88,1.88,0,0,0-1.32-.41h-1.67V89Zm12.93,7-2.63-4.77h-.74V96H976V83.36h5.17a5.64,5.64,0,0,1,2.54.53,3.52,3.52,0,0,1,1.58,1.44,3.91,3.91,0,0,1,.52,2,3.73,3.73,0,0,1-.72,2.25A3.8,3.8,0,0,1,983,91l2.92,5Zm-3.37-7H981a1.75,1.75,0,0,0,1.26-.41,1.55,1.55,0,0,0,.43-1.17,1.51,1.51,0,0,0-.43-1.14,1.75,1.75,0,0,0-1.26-.41h-1.91Zm14.64,7.08a6.69,6.69,0,0,1-3.28-.83A6.2,6.2,0,0,1,988.09,93a6.5,6.5,0,0,1-.87-3.34,6.41,6.41,0,0,1,.87-3.33A6.2,6.2,0,0,1,990.44,84a6.69,6.69,0,0,1,3.28-.83A6.59,6.59,0,0,1,997,84a6,6,0,0,1,2.34,2.31,6.5,6.5,0,0,1,.86,3.33,6.59,6.59,0,0,1-.86,3.34A6.18,6.18,0,0,1,997,95.3,6.59,6.59,0,0,1,993.72,96.13Zm0-2.81a3.07,3.07,0,0,0,2.41-1,4.32,4.32,0,0,0,0-5.33,3.07,3.07,0,0,0-2.41-1,3.18,3.18,0,0,0-2.45,1,4.46,4.46,0,0,0,0,5.37A3.18,3.18,0,0,0,993.72,93.32Zm20-10L1009.27,96h-3.85l-4.48-12.64h3.28l3.13,9.54,3.15-9.54Zm9.15,10.41h-4.72l-.75,2.23h-3.23l4.58-12.64h3.56L1026.92,96h-3.26Zm-.79-2.38-1.57-4.62L1019,91.39Zm9.27,2.23h4V96h-7.11V83.36h3.08Zm10.07,2.51a6.49,6.49,0,0,1-2.48-.45,4.09,4.09,0,0,1-1.76-1.34,3.63,3.63,0,0,1-.69-2.12h3.28a1.65,1.65,0,0,0,.48,1.08,1.6,1.6,0,0,0,1.08.36,1.67,1.67,0,0,0,1.08-.31,1.06,1.06,0,0,0,.4-.88,1,1,0,0,0-.32-.77,2.57,2.57,0,0,0-.78-.51,12.75,12.75,0,0,0-1.29-.45,13.85,13.85,0,0,1-2-.75,3.65,3.65,0,0,1-1.33-1.12,3,3,0,0,1-.56-1.92,3.27,3.27,0,0,1,1.28-2.76,6,6,0,0,1,6.69,0,3.56,3.56,0,0,1,1.37,2.77h-3.33a1.25,1.25,0,0,0-.45-.95,1.57,1.57,0,0,0-1.06-.36,1.28,1.28,0,0,0-.9.31,1,1,0,0,0-.34.84,1.07,1.07,0,0,0,.57,1,10.18,10.18,0,0,0,1.8.73,14.85,14.85,0,0,1,2,.8,3.66,3.66,0,0,1,1.33,1.09,2.9,2.9,0,0,1,.56,1.86,3.53,3.53,0,0,1-.56,2,3.67,3.67,0,0,1-1.58,1.4A5.45,5.45,0,0,1,1041.46,96.13Z"/></g></g></svg>