<svg xmlns="http://www.w3.org/2000/svg" viewBox="0 0 302.72 302.79"><defs><style>.cls-1{fill:#4FA3A5;}</style></defs><g id="Layer_2" data-name="Layer 2"><g id="Layer_1-2" data-name="Layer 1"><path class="cls-1" d="M91.68,302.79c-3.53-1.61-7.31-2.83-10.51-4.94-2.77-1.83-4.88-4.68-7.61-7.4l9.1-5.35c1,1.17,2,2.4,3.13,3.46,3.17,3,7.15,4.11,11.37,4.11q54.39.07,108.77,0c9.82,0,15.92-6.3,16-16.14,0-4.52,0-9,0-13.85H131.54V252.25H222V235.81c0-3.83,0-3.84,3.84-3.83,1.87,0,3.74.05,5.61.1.18,0,.35.14.81.35,0,.91.13,1.95.13,3,0,13.1-.16,26.2,0,39.3.23,15-8.48,25.31-21.32,27.78a1.76,1.76,0,0,0-.52.28Z"/><path class="cls-1" d="M15.26,136.4V126H30.5a67.55,67.55,0,0,1,6.69-23.94A64.59,64.59,0,0,1,68,71.87c2.07-1,2.58-2.1,2.57-4.22q-.13-20.25,0-40.5c0-6.55,1.51-12.66,5.84-17.83C81.29,3.47,87.54.1,95.12.08q56.48-.18,113,0C213.9.07,219,2.4,223.71,6.32L217.05,14c-4.41-3.64-9.45-3.9-14.64-3.89q-52.33.07-104.68,0c-8.63,0-14.48,4.08-16.3,11.65-.63,2.6-.43,5.4-.63,8.43h80.58V40.4H81.13V67.14c2.63-.37,5.21-.77,7.8-1.07,1.75-.2,1.89-1.29,1.87-2.7,0-4.22,0-8.44,0-12.84H101V65.41c35,5.65,55.07,25.74,60.73,60.6h14.83v10.22H161.78c-5.57,35-25.55,55.14-60.6,60.78v14.87H90.79c0-4.26-.08-8.47,0-12.67.05-1.93-.5-2.67-2.58-3-24.36-3.3-41.93-16.12-52.09-38.44-2.73-6-3.77-12.75-5.26-19.23-.41-1.78-1-2.24-2.62-2.22C24,136.44,19.81,136.4,15.26,136.4Zm25.53,0c1.8,15.12,8.07,27.22,19.27,37.07,4-20.83,4-20.92,19.06-33.27-10.84-14.62-11-27.61-.53-37.6a25.33,25.33,0,0,1,33-1.45,24.83,24.83,0,0,1,9.35,16.2c1.37,9.07-2,16.51-8.43,22.93,12.75,7.52,18.85,18.58,18.93,33.1,10.26-7,19.93-25.51,19.07-37.08h-9V126h9.19c-1.09-25.59-24.72-48.7-49.65-49.53v9.16H90.7V76.31C65.48,78,43,99.42,41,126h9.7c0,3-.08,5.58,0,8.22.07,1.73-.7,2.21-2.3,2.16C46,136.33,43.51,136.39,40.79,136.39Zm60.38,50a52.78,52.78,0,0,0,19-5.42,2.83,2.83,0,0,0,.94-2.18,98.51,98.51,0,0,0-.42-10c-1.17-10.26-6.82-17.37-16.42-20.72-10.21-3.57-19.41-1.16-26.94,6.75-5.79,6.09-6.69,13.66-6.62,21.67,0,3.26.87,4.92,4,6,5.16,1.82,10.31,3.45,16.15,3.81v-9.48h10.33Zm-5.29-50.28A15,15,0,0,0,111,121.18a15.23,15.23,0,0,0-15-15.13,15,15,0,0,0-15,15A14.83,14.83,0,0,0,95.88,136.08Z"/><path class="cls-1" d="M222.35,101h10v42.37c1.82-1.55,3.22-2.72,4.59-3.92,13-11.45,25.94-23,39-34.34,8.39-7.27,20.92-5,25.08,4.82,2.58,6.12,2.31,12.67-2.62,18.18-6.11,6.82-12.14,13.72-18.2,20.59q-25.43,28.8-50.8,57.65a11.52,11.52,0,0,0-2.53,5.33c-3.27,18.48-17.5,30.58-36.33,30.65-10.74,0-21.48,0-32.22,0-.88,0-2,.21-2.6-.23-1.55-1.15-3.65-2.41-4.07-4a5.68,5.68,0,0,1,2-5c6.49-3.85,8.21-9.61,7.79-16.59-.62-10.41,1.74-19.94,8.83-27.92a35,35,0,0,1,22.75-11.82,5.11,5.11,0,0,0,2.65-1c9-7.91,18-15.88,26.61-23.47Zm-17.5,80.45,17.54,17.44s.28-.35.54-.64l61.57-69.78c2.22-2.51,4.49-5,6.58-7.59s2.05-5.8-.14-8-5.2-2.35-8-.28c-.63.46-1.18,1-1.77,1.55l-57.84,51C217,170.71,210.79,176.24,204.85,181.49ZM169,231.85c8.71,0,16.88.2,25,0,11.13-.34,21.44-10.2,22.54-21.28a3.9,3.9,0,0,0-.88-2.79q-9.72-9.91-19.63-19.63a3.47,3.47,0,0,0-2.48-.94,24.53,24.53,0,0,0-16.62,9.63c-3.94,5.06-5.18,10.91-5.26,17.13C171.59,219.89,172.21,225.94,169,231.85Z"/><path class="cls-1" d="M232.28,20.13H285.8c5.43,0,7,1.58,7,7.06q0,28.53,0,57.06c0,4.89-1.82,6.72-6.8,6.73q-53.82,0-107.64,0c-4.88,0-6.77-1.94-6.77-6.84q0-28.68,0-57.35c0-4.81,1.83-6.65,6.59-6.65ZM182,80.33H282.5V30.44H182Z"/><path class="cls-1" d="M70.6,227.09V201.91H80.81v25.18h3.42q15.38,0,30.74,0c4.42,0,6.26,1.83,6.26,6.28q0,18.78,0,37.54c0,4.9-1.78,6.71-6.82,6.73-12.21,0-24.43,0-36.65,0H8.31a29.18,29.18,0,0,1-3-.06c-3.6-.37-5.31-2.16-5.32-5.77q-.06-19.51,0-39c0-3.93,2-5.72,6.2-5.72H70.6Zm-60.31,40.1H110.86V237.4H10.29Z"/><path class="cls-1" d="M30.36,20.13c8,0,16,0,24,0,4.38,0,6.4,1.87,6.43,6.26q.1,19.06,0,38.13c0,4.18-2,6.23-6.19,6.25q-24.24.12-48.48,0c-4.22,0-6-2.08-6-6.31Q0,45.55,0,26.62c0-4.65,1.8-6.47,6.4-6.49C14.4,20.11,22.38,20.13,30.36,20.13ZM10.3,60.21H50.21V30.5H10.3Z"/><path class="cls-1" d="M146.42,282.48v-9.72h10v9.72Z"/><path class="cls-1" d="M191.92,60.55h80.5V70.62h-80.5Z"/><path class="cls-1" d="M272.57,40.48v9.88H222.19V40.48Z"/><path class="cls-1" d="M191.86,50.37V40.45h20v9.92Z"/><path class="cls-1" d="M100.94,247.42v9.78H55.79v-9.78Z"/><path class="cls-1" d="M20.28,257.19v-9.76H45.36v9.76Z"/><path class="cls-1" d="M20.39,40.42H40.33v9.93H20.39Z"/></g></g></svg>