<svg xmlns="http://www.w3.org/2000/svg" viewBox="0 0 170.77 197.36"><defs><style>.cls-1{fill:#4fa3a6;}.cls-2{fill:#fff;}</style></defs><g id="Layer_2" data-name="Layer 2"><g id="Layer_1-2" data-name="Layer 1"><rect class="cls-1" width="170.77" height="170.77"/><rect class="cls-2" x="39.78" y="27.76" width="19.68" height="115.26"/><rect class="cls-2" x="91.33" y="51.51" width="11.69" height="11.69"/><rect class="cls-2" x="79.71" y="89.89" width="6.77" height="6.77"/><rect class="cls-2" x="106.72" y="76.9" width="3.54" height="3.54"/><rect class="cls-2" x="108.83" y="61.05" width="5.54" height="5.54"/><rect class="cls-2" x="74.84" y="85.03" width="4.86" height="4.86"/><rect class="cls-2" x="99.51" y="70.16" width="8.52" height="8.52"/><rect class="cls-2" x="100.89" y="57.08" width="7.94" height="7.94"/><rect class="cls-2" x="100.89" y="35.71" width="7.14" height="7.14"/><rect class="cls-2" x="105.39" y="30.08" width="6.21" height="6.21"/><rect class="cls-2" x="114.16" y="44.57" width="8.06" height="8.06"/><rect class="cls-2" x="118.19" y="34.58" width="7.17" height="7.17"/><rect class="cls-2" x="127.19" y="49.81" width="3.8" height="3.8"/><rect class="cls-2" x="109.68" y="48.6" width="6.22" height="6.22"/><rect class="cls-2" x="89.07" y="77.7" width="13.95" height="13.95"/><rect class="cls-2" x="77.15" y="63.2" width="0.13" height="0.01"/><polygon class="cls-2" points="94.6 42.85 94.6 27.76 48.53 27.76 48.53 107.34 87.15 107.34 87.15 101.05 74.12 101.05 74.12 92.21 57.6 92.21 57.6 79.88 85.52 79.88 85.52 74.98 91.34 74.98 91.34 63.21 77.28 63.21 77.28 68.06 72.42 68.06 72.42 63.2 77.15 63.2 77.15 54.71 87.15 54.71 87.15 42.85 77.28 42.85 77.28 32.84 87.28 32.84 87.28 42.85 94.6 42.85"/><path class="cls-1" d="M9.68,180.93a6.3,6.3,0,0,1,2,1.35,6.42,6.42,0,0,1,1.35,2,6.11,6.11,0,0,1,.5,2.46,6,6,0,0,1-.5,2.43,6.33,6.33,0,0,1-3.35,3.35,5.87,5.87,0,0,1-2.43.5H4.38l-.55-2.86H7.25a3.38,3.38,0,0,0,1.34-.27,3.33,3.33,0,0,0,1.08-.73,3.61,3.61,0,0,0,.74-1.1,3.14,3.14,0,0,0,.28-1.33,3.19,3.19,0,0,0-.28-1.34,3.52,3.52,0,0,0-.74-1.08,3.7,3.7,0,0,0-1.08-.74,3.38,3.38,0,0,0-1.34-.27H3.3v14.06H.46V180.43H7.25A6,6,0,0,1,9.68,180.93Z"/><path class="cls-1" d="M27.36,180.43h2.85v16.93H27.36Z"/><path class="cls-1" d="M57.18,197.36h-3.3l-3.23-5.59-3.24,5.59h-3.3L49,188.91l-4.87-8.48h3.3L50.65,186l3.23-5.59h3.3l-4.87,8.48Z"/><path class="cls-1" d="M83.19,188.56a4.07,4.07,0,0,1,1.42,1.37,3.31,3.31,0,0,1,.5,1.77,4.87,4.87,0,0,1-.42,1.88,5.39,5.39,0,0,1-1.28,1.83,7,7,0,0,1-2.19,1.4,9.33,9.33,0,0,1-6.08.08,7.3,7.3,0,0,1-2.12-1.2,5.38,5.38,0,0,1-1.34-1.63,5.6,5.6,0,0,1-.61-1.76l2.79-.53a3.09,3.09,0,0,0,.2.72,2.48,2.48,0,0,0,.64.92,4,4,0,0,0,1.29.8,5.5,5.5,0,0,0,2.07.33,5.4,5.4,0,0,0,2.14-.35,4.11,4.11,0,0,0,1.28-.83,2.7,2.7,0,0,0,.63-1,2.75,2.75,0,0,0,.16-.71c0-.33-.34-.65-1-.95a8.16,8.16,0,0,0-3.19-.46,13.93,13.93,0,0,1-2.79-.24,8,8,0,0,1-1.94-.63,4.58,4.58,0,0,1-1.25-.87,3.41,3.41,0,0,1-.69-1,2.82,2.82,0,0,1-.3-.87,3.7,3.7,0,0,1-.07-.66,4.78,4.78,0,0,1,.42-1.87,5.39,5.39,0,0,1,1.28-1.83A7.08,7.08,0,0,1,74.91,181a9.16,9.16,0,0,1,6.08-.08,7.22,7.22,0,0,1,2.12,1.21,5.62,5.62,0,0,1,1.34,1.62,5.55,5.55,0,0,1,.61,1.75l-2.79.55a3.17,3.17,0,0,0-.2-.71,2.38,2.38,0,0,0-.65-.91,4,4,0,0,0-1.28-.79,5.56,5.56,0,0,0-2.08-.33,5.5,5.5,0,0,0-2.11.35,4.11,4.11,0,0,0-1.28.83,2.73,2.73,0,0,0-.64.93,2.36,2.36,0,0,0-.17.67.74.74,0,0,0,.22.46,1.9,1.9,0,0,0,.72.45,5.83,5.83,0,0,0,1.3.35,12.06,12.06,0,0,0,2,.14A10.09,10.09,0,0,1,83.19,188.56Z"/><path class="cls-1" d="M107.4,180.43l8.45,16.93H98.92Zm0,5.78-4.28,8.57h8.55Z"/><path class="cls-1" d="M139,190v3.86L132.32,187v10.39h-2.56V180.43Zm.8-9.59h2.57v16.93l-2.57-2.65V180.43Z"/><path class="cls-1" d="M168.4,188.56a4.15,4.15,0,0,1,1.42,1.37,3.31,3.31,0,0,1,.5,1.77,4.87,4.87,0,0,1-.42,1.88,5.54,5.54,0,0,1-1.28,1.83,7,7,0,0,1-2.2,1.4,9.3,9.3,0,0,1-6.07.08,7.5,7.5,0,0,1-2.13-1.2,5.49,5.49,0,0,1-1.33-1.63,5.9,5.9,0,0,1-.62-1.76l2.8-.53a3,3,0,0,0,.19.72,2.65,2.65,0,0,0,.65.92,4,4,0,0,0,1.28.8,5.56,5.56,0,0,0,2.08.33,5.4,5.4,0,0,0,2.14-.35,4.23,4.23,0,0,0,1.28-.83,2.53,2.53,0,0,0,.62-1,2.47,2.47,0,0,0,.17-.71c0-.33-.34-.65-1-.95a8.16,8.16,0,0,0-3.19-.46,13.93,13.93,0,0,1-2.79-.24,8,8,0,0,1-1.94-.63,4.43,4.43,0,0,1-1.25-.87,3.41,3.41,0,0,1-.69-1,2.82,2.82,0,0,1-.3-.87,3.7,3.7,0,0,1-.07-.66,5,5,0,0,1,.41-1.87,5.69,5.69,0,0,1,1.28-1.83,7.13,7.13,0,0,1,2.2-1.38,9.13,9.13,0,0,1,6.07-.08,7.28,7.28,0,0,1,2.13,1.21,5.62,5.62,0,0,1,1.34,1.62,5.81,5.81,0,0,1,.61,1.75l-2.79.55a3.84,3.84,0,0,0-.2-.71,2.49,2.49,0,0,0-.65-.91,4,4,0,0,0-1.28-.79,5.56,5.56,0,0,0-2.08-.33,5.46,5.46,0,0,0-2.11.35,4,4,0,0,0-1.28.83,2.73,2.73,0,0,0-.64.93,2.36,2.36,0,0,0-.17.67.74.74,0,0,0,.22.46,1.85,1.85,0,0,0,.71.45,5.93,5.93,0,0,0,1.31.35,12.06,12.06,0,0,0,2,.14A10.15,10.15,0,0,1,168.4,188.56Z"/></g></g></svg>