<svg xmlns="http://www.w3.org/2000/svg" viewBox="0 0 354.9 234.47"><defs><style>.cls-1{fill:#4fa3a6;}.cls-2{fill:#fff;}</style></defs><g id="Layer_2" data-name="Layer 2"><g id="Layer_1-2" data-name="Layer 1"><rect class="cls-1" x="92.06" width="170.77" height="170.77"/><rect class="cls-2" x="131.84" y="27.76" width="19.68" height="115.26"/><rect class="cls-2" x="183.39" y="51.51" width="11.69" height="11.69"/><rect class="cls-2" x="171.77" y="89.89" width="6.77" height="6.77"/><rect class="cls-2" x="198.79" y="76.9" width="3.54" height="3.54"/><rect class="cls-2" x="200.89" y="61.05" width="5.54" height="5.54"/><rect class="cls-2" x="166.91" y="85.03" width="4.86" height="4.86"/><rect class="cls-2" x="191.57" y="70.16" width="8.52" height="8.52"/><rect class="cls-2" x="192.95" y="57.08" width="7.94" height="7.94"/><rect class="cls-2" x="192.95" y="35.71" width="7.14" height="7.14"/><rect class="cls-2" x="197.45" y="30.08" width="6.21" height="6.21"/><rect class="cls-2" x="206.22" y="44.57" width="8.06" height="8.06"/><rect class="cls-2" x="210.25" y="34.58" width="7.17" height="7.17"/><rect class="cls-2" x="219.25" y="49.81" width="3.8" height="3.8"/><rect class="cls-2" x="201.75" y="48.6" width="6.22" height="6.22"/><rect class="cls-2" x="181.13" y="77.7" width="13.95" height="13.95"/><rect class="cls-2" x="169.21" y="63.2" width="0.13" height="0.01"/><polygon class="cls-2" points="186.66 42.85 186.66 27.76 140.59 27.76 140.59 107.34 179.21 107.34 179.21 101.05 166.18 101.05 166.18 92.21 149.66 92.21 149.66 79.88 177.59 79.88 177.59 74.98 183.4 74.98 183.4 63.21 169.34 63.21 169.34 68.06 164.48 68.06 164.48 63.2 169.21 63.2 169.21 54.71 179.21 54.71 179.21 42.85 169.34 42.85 169.34 32.84 179.34 32.84 179.34 42.85 186.66 42.85"/><path class="cls-1" d="M19.28,200.13A13.38,13.38,0,0,1,23.45,203a13.55,13.55,0,0,1,2.83,4.17,12.79,12.79,0,0,1,1,5.14,12.65,12.65,0,0,1-1,5.09,13.6,13.6,0,0,1-2.83,4.18,13.35,13.35,0,0,1-4.17,2.82,12.66,12.66,0,0,1-5.09,1h-6l-1.15-6h7.14a7.06,7.06,0,0,0,2.8-.55,7,7,0,0,0,2.27-1.54A8,8,0,0,0,20.8,215a7,7,0,0,0,0-5.58,7.48,7.48,0,0,0-1.54-2.26A7.29,7.29,0,0,0,17,205.66a6.75,6.75,0,0,0-2.8-.58H5.94v29.39H0V199.09H14.19A12.66,12.66,0,0,1,19.28,200.13Z"/><path class="cls-1" d="M56.22,199.09h5.94v35.38H56.22Z"/><path class="cls-1" d="M118.52,234.47h-6.9l-6.75-11.68-6.76,11.68h-6.9l10.18-17.66L91.21,199.09h6.9l6.76,11.68,6.75-11.68h6.9l-10.18,17.72Z"/><path class="cls-1" d="M172.86,216.08a8.48,8.48,0,0,1,3,2.85,7,7,0,0,1,1,3.72,10.09,10.09,0,0,1-.87,3.9,11.49,11.49,0,0,1-2.68,3.84,14.25,14.25,0,0,1-4.58,2.92,19.29,19.29,0,0,1-12.69.17,15,15,0,0,1-4.44-2.51,11.3,11.3,0,0,1-2.8-3.4,12,12,0,0,1-1.28-3.67l5.84-1.11a6.37,6.37,0,0,0,.41,1.5,5.49,5.49,0,0,0,1.35,1.93,8.3,8.3,0,0,0,2.68,1.66,11.35,11.35,0,0,0,4.34.7,11.23,11.23,0,0,0,4.46-.75,8.12,8.12,0,0,0,2.68-1.73,5.4,5.4,0,0,0,1.31-2,5.23,5.23,0,0,0,.33-1.47c0-.71-.7-1.38-2.12-2a17.47,17.47,0,0,0-6.66-.94,28.74,28.74,0,0,1-5.84-.51,16.31,16.31,0,0,1-4.05-1.32,9.55,9.55,0,0,1-2.61-1.81,7.8,7.8,0,0,1-1.45-2,6.71,6.71,0,0,1-.62-1.83,8.38,8.38,0,0,1-.15-1.38,10.14,10.14,0,0,1,.87-3.91,11.38,11.38,0,0,1,2.68-3.81,14.86,14.86,0,0,1,4.58-2.9,17.1,17.1,0,0,1,6.59-1.16,17.31,17.31,0,0,1,6.11,1,15.31,15.31,0,0,1,4.44,2.53,11.54,11.54,0,0,1,2.79,3.4,11.69,11.69,0,0,1,1.28,3.64l-5.84,1.16a6.2,6.2,0,0,0-.41-1.49,5.18,5.18,0,0,0-1.35-1.91,8.64,8.64,0,0,0-2.68-1.64,13.68,13.68,0,0,0-8.76,0,8.33,8.33,0,0,0-2.67,1.73,5.76,5.76,0,0,0-1.33,1.94,4.62,4.62,0,0,0-.36,1.4,1.56,1.56,0,0,0,.46,1,4,4,0,0,0,1.49,1,13.89,13.89,0,0,0,2.73.72,25.1,25.1,0,0,0,4.1.28Q169.05,213.81,172.86,216.08Z"/><path class="cls-1" d="M223.44,199.09l17.66,35.38H205.73Zm0,12.07-8.93,17.9h17.86Z"/><path class="cls-1" d="M289.46,219.12v8.06l-13.95-14.43v21.72h-5.36V199.09Zm1.69-20h5.35v35.38l-5.35-5.55V199.09Z"/><path class="cls-1" d="M350.89,216.08a8.48,8.48,0,0,1,3,2.85,7,7,0,0,1,1,3.72,10.09,10.09,0,0,1-.87,3.9,11.49,11.49,0,0,1-2.68,3.84,14.36,14.36,0,0,1-4.58,2.92,17.1,17.1,0,0,1-6.59,1.16,17.32,17.32,0,0,1-6.11-1,15.28,15.28,0,0,1-4.44-2.51,11.46,11.46,0,0,1-2.8-3.4,12,12,0,0,1-1.27-3.67l5.84-1.11a5.91,5.91,0,0,0,.41,1.5,5.49,5.49,0,0,0,1.35,1.93,8.36,8.36,0,0,0,2.67,1.66,11.44,11.44,0,0,0,4.35.7,11.23,11.23,0,0,0,4.46-.75,8.22,8.22,0,0,0,2.68-1.73,5.36,5.36,0,0,0,1.3-2,5,5,0,0,0,.34-1.47c0-.71-.71-1.38-2.12-2a17.47,17.47,0,0,0-6.66-.94,28.67,28.67,0,0,1-5.84-.51,16.31,16.31,0,0,1-4-1.32,9.55,9.55,0,0,1-2.61-1.81,7.8,7.8,0,0,1-1.45-2,7.12,7.12,0,0,1-.63-1.83,9.39,9.39,0,0,1-.14-1.38,10.14,10.14,0,0,1,.87-3.91,11.38,11.38,0,0,1,2.68-3.81,14.74,14.74,0,0,1,4.58-2.9,19.21,19.21,0,0,1,12.69-.16,15.05,15.05,0,0,1,4.44,2.53,11.43,11.43,0,0,1,2.8,3.4,11.69,11.69,0,0,1,1.28,3.64L349,210.82a6.2,6.2,0,0,0-.41-1.49,5.18,5.18,0,0,0-1.35-1.91,8.64,8.64,0,0,0-2.68-1.64,13.68,13.68,0,0,0-8.76,0,8.5,8.5,0,0,0-2.68,1.73,5.87,5.87,0,0,0-1.32,1.94,4.62,4.62,0,0,0-.36,1.4,1.59,1.59,0,0,0,.45,1,4.13,4.13,0,0,0,1.5,1,13.89,13.89,0,0,0,2.73.72,25.1,25.1,0,0,0,4.1.28Q347.08,213.81,350.89,216.08Z"/></g></g></svg>